URWPalladioL-BoldItal.ufo
<glyph name="exclam" format="1">
  <advance width="333"/>
  <unicode hex="0021"/>
  <outline>
    <contour>
      <point x="179" y="218" type="curve"/>
      <point x="140" y="194" type="line"/>
      <point x="127" y="203" type="line"/>
      <point x="170" y="633" type="line"/>
      <point x="170" y="666" type="line"/>
      <point x="183" y="666" type="line"/>
      <point x="310" y="695" type="line"/>
      <point x="322" y="686" type="line"/>
      <point x="212" y="340" type="line" smooth="yes"/>
      <point x="201" y="304"/>
      <point x="192" y="273"/>
    </contour>
    <contour>
      <point x="135" y="135" type="curve" smooth="yes"/>
      <point x="173" y="135"/>
      <point x="197" y="110"/>
      <point x="197" y="71" type="curve" smooth="yes"/>
      <point x="197" y="20"/>
      <point x="166" y="-17"/>
      <point x="123" y="-17" type="curve" smooth="yes"/>
      <point x="84" y="-17"/>
      <point x="58" y="9"/>
      <point x="58" y="49" type="curve" smooth="yes"/>
      <point x="58" y="99"/>
      <point x="91" y="135"/>
    </contour>
  </outline>
</glyph>
<glyph name="dollar" format="1">
  <advance width="500"/>
  <unicode hex="0024"/>
  <outline>
    <contour>
      <point x="46" y="183" type="curve"/>
      <point x="80" y="183" type="line"/>
      <point x="77" y="123" type="line"/>
      <point x="77" y="94"/>
      <point x="79" y="89"/>
      <point x="98" y="77" type="curve" smooth="yes"/>
      <point x="127" y="59"/>
      <point x="142" y="53"/>
      <point x="183" y="41" type="curve"/>
      <point x="227" y="285" type="line"/>
      <point x="117" y="304"/>
      <point x="69" y="351"/>
      <point x="69" y="439" type="curve" smooth="yes"/>
      <point x="69" y="515"/>
      <point x="107" y="584"/>
      <point x="173" y="626" type="curve" smooth="yes"/>
      <point x="208" y="649"/>
      <point x="236" y="659"/>
      <point x="295" y="669" type="curve"/>
      <point x="306" y="737" type="line"/>
      <point x="344" y="737" type="line"/>
      <point x="334" y="672" type="line"/>
      <point x="383" y="671"/>
      <point x="407" y="665"/>
      <point x="456" y="640" type="curve" smooth="yes"/>
      <point x="468" y="634"/>
      <point x="470" y="633"/>
      <point x="477" y="630" type="curve"/>
      <point x="466" y="597"/>
      <point x="459" y="564"/>
      <point x="450" y="495" type="curve"/>
      <point x="420" y="495" type="line"/>
      <point x="420" y="566" type="line" smooth="yes"/>
      <point x="420" y="585"/>
      <point x="381" y="608"/>
      <point x="326" y="620" type="curve"/>
      <point x="286" y="389" type="line"/>
      <point x="361" y="373"/>
      <point x="397" y="358"/>
      <point x="423" y="329" type="curve"/>
      <point x="448" y="304"/>
      <point x="460" y="269"/>
      <point x="460" y="228" type="curve" smooth="yes"/>
      <point x="460" y="148"/>
      <point x="413" y="74"/>
      <point x="334" y="28" type="curve" smooth="yes"/>
      <point x="296" y="6"/>
      <point x="269" y="-2"/>
      <point x="215" y="-8" type="curve"/>
      <point x="198" y="-108" type="line"/>
      <point x="155" y="-108" type="line"/>
      <point x="174" y="-7" type="line"/>
      <point x="90" y="5"/>
      <point x="58" y="15"/>
      <point x="20" y="40" type="curve"/>
      <point x="34" y="87"/>
      <point x="40" y="121"/>
    </contour>
    <contour>
      <point x="265" y="275" type="curve"/>
      <point x="223" y="39" type="line"/>
      <point x="255" y="39"/>
      <point x="272" y="43"/>
      <point x="294" y="56" type="curve" smooth="yes"/>
      <point x="335" y="79"/>
      <point x="361" y="124"/>
      <point x="361" y="174" type="curve" smooth="yes"/>
      <point x="361" y="228"/>
      <point x="335" y="256"/>
    </contour>
    <contour>
      <point x="247" y="399" type="curve"/>
      <point x="287" y="620" type="line"/>
      <point x="255" y="618"/>
      <point x="239" y="614"/>
      <point x="218" y="602" type="curve" smooth="yes"/>
      <point x="182" y="580"/>
      <point x="157" y="535"/>
      <point x="157" y="490" type="curve" smooth="yes"/>
      <point x="157" y="445"/>
      <point x="185" y="417"/>
    </contour>
  </outline>
</glyph>
<glyph name="percent" format="1">
  <advance width="889"/>
  <unicode hex="0025"/>
  <outline>
    <contour>
      <point x="244" y="672" type="curve" smooth="yes"/>
      <point x="326" y="672"/>
      <point x="378" y="615"/>
      <point x="378" y="525" type="curve" smooth="yes"/>
      <point x="378" y="422"/>
      <point x="303" y="350"/>
      <point x="198" y="350" type="curve" smooth="yes"/>
      <point x="109" y="350"/>
      <point x="56" y="406"/>
      <point x="56" y="498" type="curve" smooth="yes"/>
      <point x="56" y="601"/>
      <point x="133" y="672"/>
    </contour>
    <contour>
      <point x="239" y="644" type="curve" smooth="yes"/>
      <point x="216" y="644"/>
      <point x="196" y="629"/>
      <point x="179" y="600" type="curve" smooth="yes"/>
      <point x="159" y="566"/>
      <point x="142" y="495"/>
      <point x="142" y="446" type="curve" smooth="yes"/>
      <point x="142" y="406"/>
      <point x="164" y="378"/>
      <point x="195" y="378" type="curve" smooth="yes"/>
      <point x="218" y="378"/>
      <point x="239" y="393"/>
      <point x="255" y="422" type="curve" smooth="yes"/>
      <point x="276" y="459"/>
      <point x="292" y="527"/>
      <point x="292" y="576" type="curve" smooth="yes"/>
      <point x="292" y="616"/>
      <point x="270" y="644"/>
    </contour>
    <contour>
      <point x="656" y="318" type="curve" smooth="yes"/>
      <point x="738" y="318"/>
      <point x="790" y="261"/>
      <point x="790" y="171" type="curve" smooth="yes"/>
      <point x="790" y="68"/>
      <point x="715" y="-4"/>
      <point x="610" y="-4" type="curve" smooth="yes"/>
      <point x="521" y="-4"/>
      <point x="468" y="52"/>
      <point x="468" y="144" type="curve" smooth="yes"/>
      <point x="468" y="247"/>
      <point x="545" y="318"/>
    </contour>
    <contour>
      <point x="651" y="290" type="curve" smooth="yes"/>
      <point x="628" y="290"/>
      <point x="608" y="275"/>
      <point x="591" y="246" type="curve" smooth="yes"/>
      <point x="571" y="212"/>
      <point x="554" y="141"/>
      <point x="554" y="92" type="curve" smooth="yes"/>
      <point x="554" y="52"/>
      <point x="576" y="24"/>
      <point x="607" y="24" type="curve" smooth="yes"/>
      <point x="630" y="24"/>
      <point x="651" y="39"/>
      <point x="667" y="68" type="curve" smooth="yes"/>
      <point x="688" y="105"/>
      <point x="704" y="173"/>
      <point x="704" y="222" type="curve" smooth="yes"/>
      <point x="704" y="262"/>
      <point x="682" y="290"/>
    </contour>
    <contour>
      <point x="229" y="-17" type="line"/>
      <point x="176" y="-17" type="line"/>
      <point x="620" y="697" type="line"/>
      <point x="671" y="697" type="line"/>
    </contour>
  </outline>
</glyph>
<glyph name="parenleft" format="1">
  <advance width="333"/>
  <unicode hex="0028"/>
  <outline>
    <contour>
      <point x="344" y="723" type="line"/>
      <point x="368" y="698" type="line"/>
      <point x="276" y="598"/>
      <point x="241" y="540"/>
      <point x="206" y="430" type="curve" smooth="yes"/>
      <point x="180" y="350"/>
      <point x="168" y="272"/>
      <point x="168" y="185" type="curve" smooth="yes"/>
      <point x="168" y="61"/>
      <point x="189" y="-10"/>
      <point x="252" y="-108" type="curve"/>
      <point x="226" y="-129" type="line"/>
      <point x="165" y="-52"/>
      <point x="139" y="-15"/>
      <point x="114" y="33" type="curve" smooth="yes"/>
      <point x="77" y="105"/>
      <point x="58" y="177"/>
      <point x="58" y="251" type="curve" smooth="yes"/>
      <point x="58" y="397"/>
      <point x="130" y="540"/>
      <point x="260" y="651" type="curve" smooth="yes"/>
    </contour>
  </outline>
</glyph>
<glyph name="asterisk" format="1">
  <advance width="444"/>
  <unicode hex="002A"/>
  <outline>
    <contour>
      <point x="359" y="673" type="curve"/>
      <point x="364" y="659" type="line"/>
      <point x="340" y="635"/>
      <point x="309" y="587"/>
      <point x="282" y="532" type="curve"/>
      <point x="305" y="537"/>
      <point x="313" y="538"/>
      <point x="327" y="541" type="curve" smooth="yes"/>
      <point x="384" y="551"/>
      <point x="404" y="556"/>
      <point x="423" y="563" type="curve"/>
      <point x="429" y="560" type="line"/>
      <point x="428" y="551"/>
      <point x="428" y="545"/>
      <point x="428" y="540" type="curve" smooth="yes"/>
      <point x="428" y="521"/>
      <point x="432" y="499"/>
      <point x="439" y="473" type="curve"/>
      <point x="430" y="462" type="line"/>
      <point x="385" y="480"/>
      <point x="339" y="490"/>
      <point x="276" y="496" type="curve"/>
      <point x="323" y="418"/>
      <point x="330" y="408"/>
      <point x="356" y="378" type="curve"/>
      <point x="354" y="366" type="line"/>
      <point x="333" y="362"/>
      <point x="300" y="349"/>
      <point x="269" y="332" type="curve"/>
      <point x="254" y="339" type="line"/>
      <point x="254" y="398"/>
      <point x="251" y="434"/>
      <point x="243" y="484" type="curve"/>
      <point x="211" y="461"/>
      <point x="171" y="420"/>
      <point x="142" y="379" type="curve"/>
      <point x="123" y="387" type="line"/>
      <point x="114" y="413"/>
      <point x="99" y="440"/>
      <point x="84" y="457" type="curve"/>
      <point x="88" y="464" type="line"/>
      <point x="131" y="475"/>
      <point x="176" y="492"/>
      <point x="225" y="517" type="curve"/>
      <point x="191" y="540"/>
      <point x="143" y="560"/>
      <point x="87" y="576" type="curve"/>
      <point x="84" y="583" type="line"/>
      <point x="107" y="619"/>
      <point x="117" y="637"/>
      <point x="128" y="660" type="curve"/>
      <point x="144" y="660" type="line"/>
      <point x="246" y="546" type="line"/>
      <point x="256" y="597"/>
      <point x="259" y="633"/>
      <point x="259" y="688" type="curve"/>
      <point x="267" y="695" type="line"/>
      <point x="300" y="683"/>
      <point x="323" y="678"/>
    </contour>
  </outline>
</glyph>
<glyph name="plus" format="1">
  <advance width="606"/>
  <unicode hex="002B"/>
  <outline>
    <contour>
      <point x="259" y="292" type="line"/>
      <point x="259" y="501" type="line"/>
      <point x="347" y="501" type="line"/>
      <point x="347" y="292" type="line"/>
      <point x="556" y="292" type="line"/>
      <point x="556" y="204" type="line"/>
      <point x="347" y="204" type="line"/>
      <point x="347" y="-5" type="line"/>
      <point x="259" y="-5" type="line"/>
      <point x="259" y="204" type="line"/>
      <point x="50" y="204" type="line"/>
      <point x="50" y="292" type="line"/>
    </contour>
  </outline>
</glyph>
<glyph name="hyphen" format="1">
  <advance width="389"/>
  <unicode hex="002D"/>
  <outline>
    <contour>
      <point x="355" y="297" type="curve"/>
      <point x="362" y="288" type="line"/>
      <point x="349" y="268"/>
      <point x="343" y="249"/>
      <point x="332" y="198" type="curve"/>
      <point x="307" y="199"/>
      <point x="280" y="200"/>
      <point x="274" y="200" type="curve" smooth="yes"/>
      <point x="236" y="202"/>
      <point x="209" y="203"/>
      <point x="196" y="203" type="curve" smooth="yes"/>
      <point x="120" y="203" type="line" smooth="yes"/>
      <point x="101" y="203"/>
      <point x="85" y="202"/>
      <point x="43" y="199" type="curve"/>
      <point x="37" y="208" type="line"/>
      <point x="55" y="253"/>
      <point x="61" y="273"/>
      <point x="66" y="300" type="curve"/>
      <point x="96" y="295"/>
      <point x="116" y="294"/>
      <point x="158" y="294" type="curve" smooth="yes"/>
      <point x="212" y="294" type="line" smooth="yes"/>
      <point x="232" y="294"/>
      <point x="275" y="295"/>
    </contour>
  </outline>
</glyph>
<glyph name="period" format="1">
  <advance width="250"/>
  <unicode hex="002E"/>
  <outline>
    <contour>
      <point x="125" y="135" type="curve" smooth="yes"/>
      <point x="163" y="135"/>
      <point x="187" y="110"/>
      <point x="187" y="71" type="curve" smooth="yes"/>
      <point x="187" y="21"/>
      <point x="156" y="-17"/>
      <point x="113" y="-17" type="curve" smooth="yes"/>
      <point x="74" y="-17"/>
      <point x="48" y="9"/>
      <point x="48" y="49" type="curve" smooth="yes"/>
      <point x="48" y="99"/>
      <point x="81" y="135"/>
    </contour>
  </outline>
</glyph>
<glyph name="slash" format="1">
  <advance width="315"/>
  <unicode hex="002F"/>
  <outline>
    <contour>
      <point x="225" y="720" type="line"/>
      <point x="315" y="720" type="line"/>
      <point x="91" y="-17" type="line"/>
      <point x="1" y="-17" type="line"/>
    </contour>
  </outline>
</glyph>
<glyph name="two" format="1">
  <advance width="500"/>
  <unicode hex="0032"/>
  <outline>
    <contour>
      <point x="1" y="-3" type="curve"/>
      <point x="1" y="22" type="line"/>
      <point x="98" y="116" type="line" smooth="yes"/>
      <point x="250" y="263"/>
      <point x="328" y="391"/>
      <point x="328" y="491" type="curve" smooth="yes"/>
      <point x="328" y="553"/>
      <point x="286" y="593"/>
      <point x="221" y="593" type="curve" smooth="yes"/>
      <point x="171" y="593"/>
      <point x="145" y="574"/>
      <point x="108" y="511" type="curve" smooth="yes"/>
      <point x="94" y="487" type="line"/>
      <point x="64" y="496" type="line"/>
      <point x="120" y="632" type="line"/>
      <point x="171" y="669"/>
      <point x="212" y="683"/>
      <point x="266" y="683" type="curve" smooth="yes"/>
      <point x="377" y="683"/>
      <point x="450" y="615"/>
      <point x="450" y="513" type="curve" smooth="yes"/>
      <point x="450" y="448"/>
      <point x="417" y="378"/>
      <point x="359" y="320" type="curve" smooth="yes"/>
      <point x="138" y="98" type="line"/>
      <point x="364" y="98" type="line" smooth="yes"/>
      <point x="392" y="98"/>
      <point x="413" y="100"/>
      <point x="446" y="106" type="curve"/>
      <point x="454" y="100" type="line"/>
      <point x="441" y="75"/>
      <point x="436" y="58"/>
      <point x="421" y="-3" type="curve"/>
      <point x="242" y="0"/>
      <point x="242" y="0"/>
      <point x="226" y="0" type="curve" smooth="yes"/>
      <point x="189" y="0"/>
      <point x="68" y="-2"/>
    </contour>
  </outline>
</glyph>
<glyph name="three" format="1">
  <advance width="500"/>
  <unicode hex="0033"/>
  <outline>
    <contour>
      <point x="8" y="24" type="curve"/>
      <point x="38" y="185" type="line"/>
      <point x="72" y="183" type="line"/>
      <point x="69" y="164"/>
      <point x="67" y="143"/>
      <point x="67" y="128" type="curve" smooth="yes"/>
      <point x="67" y="64"/>
      <point x="110" y="20"/>
      <point x="175" y="20" type="curve" smooth="yes"/>
      <point x="224" y="20"/>
      <point x="262" y="44"/>
      <point x="290" y="93" type="curve" smooth="yes"/>
      <point x="310" y="128"/>
      <point x="320" y="169"/>
      <point x="320" y="211" type="curve" smooth="yes"/>
      <point x="320" y="294"/>
      <point x="282" y="340"/>
      <point x="214" y="340" type="curve" smooth="yes"/>
      <point x="196" y="340"/>
      <point x="179" y="337"/>
      <point x="138" y="325" type="curve"/>
      <point x="132" y="331" type="line"/>
      <point x="148" y="382" type="line"/>
      <point x="156" y="379"/>
      <point x="161" y="378"/>
      <point x="177" y="378" type="curve" smooth="yes"/>
      <point x="219" y="378"/>
      <point x="243" y="383"/>
      <point x="267" y="397" type="curve" smooth="yes"/>
      <point x="307" y="421"/>
      <point x="331" y="464"/>
      <point x="331" y="512" type="curve" smooth="yes"/>
      <point x="331" y="569"/>
      <point x="296" y="603"/>
      <point x="236" y="603" type="curve" smooth="yes"/>
      <point x="180" y="603"/>
      <point x="142" y="577"/>
      <point x="110" y="515" type="curve"/>
      <point x="81" y="526" type="line"/>
      <point x="137" y="637" type="line"/>
      <point x="183" y="670"/>
      <point x="224" y="683"/>
      <point x="282" y="683" type="curve" smooth="yes"/>
      <point x="386" y="683"/>
      <point x="450" y="631"/>
      <point x="450" y="548" type="curve" smooth="yes"/>
      <point x="450" y="510"/>
      <point x="436" y="477"/>
      <point x="408" y="447" type="curve" smooth="yes"/>
      <point x="379" y="416"/>
      <point x="354" y="400"/>
      <point x="295" y="375" type="curve"/>
      <point x="294" y="371" type="line"/>
      <point x="398" y="358"/>
      <point x="448" y="309"/>
      <point x="448" y="221" type="curve" smooth="yes"/>
      <point x="448" y="87"/>
      <point x="326" y="-17"/>
      <point x="170" y="-17" type="curve" smooth="yes"/>
      <point x="113" y="-17"/>
      <point x="71" y="-7"/>
    </contour>
  </outline>
</glyph>
<glyph name="five" format="1">
  <advance width="500"/>
  <unicode hex="0035"/>
  <outline>
    <contour>
      <point x="112" y="302" type="curve"/>
      <point x="81" y="314" type="line"/>
      <point x="109" y="455"/>
      <point x="121" y="521"/>
      <point x="145" y="667" type="curve"/>
      <point x="150" y="675" type="line"/>
      <point x="238" y="670"/>
      <point x="293" y="668"/>
      <point x="382" y="668" type="curve" smooth="yes"/>
      <point x="475" y="668" type="line"/>
      <point x="481" y="659" type="line"/>
      <point x="435" y="570" type="line"/>
      <point x="354" y="567"/>
      <point x="318" y="566"/>
      <point x="276" y="566" type="curve" smooth="yes"/>
      <point x="174" y="566" type="line"/>
      <point x="131" y="366" type="line"/>
      <point x="176" y="404"/>
      <point x="212" y="417"/>
      <point x="270" y="417" type="curve" smooth="yes"/>
      <point x="385" y="417"/>
      <point x="456" y="351"/>
      <point x="456" y="244" type="curve" smooth="yes"/>
      <point x="456" y="97"/>
      <point x="335" y="-17"/>
      <point x="178" y="-17" type="curve" smooth="yes"/>
      <point x="114" y="-17"/>
      <point x="65" y="-3"/>
      <point x="14" y="30" type="curve"/>
      <point x="25" y="76"/>
      <point x="31" y="110"/>
      <point x="41" y="178" type="curve"/>
      <point x="70" y="173" type="line"/>
      <point x="69" y="161"/>
      <point x="68" y="152"/>
      <point x="68" y="144" type="curve" smooth="yes"/>
      <point x="68" y="69"/>
      <point x="113" y="20"/>
      <point x="180" y="20" type="curve" smooth="yes"/>
      <point x="232" y="20"/>
      <point x="271" y="49"/>
      <point x="299" y="108" type="curve" smooth="yes"/>
      <point x="317" y="146"/>
      <point x="328" y="195"/>
      <point x="328" y="239" type="curve" smooth="yes"/>
      <point x="328" y="315"/>
      <point x="286" y="362"/>
      <point x="219" y="362" type="curve" smooth="yes"/>
      <point x="175" y="362"/>
      <point x="147" y="347"/>
    </contour>
  </outline>
</glyph>
<glyph name="six" format="1">
  <advance width="500"/>
  <unicode hex="0036"/>
  <outline>
    <contour>
      <point x="488" y="669" type="curve"/>
      <point x="466" y="600" type="line"/>
      <point x="458" y="596" type="line"/>
      <point x="433" y="620"/>
      <point x="406" y="631"/>
      <point x="373" y="631" type="curve" smooth="yes"/>
      <point x="318" y="631"/>
      <point x="270" y="594"/>
      <point x="234" y="522" type="curve" smooth="yes"/>
      <point x="210" y="474"/>
      <point x="195" y="425"/>
      <point x="176" y="334" type="curve"/>
      <point x="232" y="393"/>
      <point x="274" y="415"/>
      <point x="328" y="415" type="curve" smooth="yes"/>
      <point x="414" y="415"/>
      <point x="476" y="350"/>
      <point x="476" y="260" type="curve" smooth="yes"/>
      <point x="476" y="112"/>
      <point x="354" y="-17"/>
      <point x="214" y="-17" type="curve" smooth="yes"/>
      <point x="101" y="-17"/>
      <point x="39" y="62"/>
      <point x="39" y="206" type="curve" smooth="yes"/>
      <point x="39" y="342"/>
      <point x="89" y="473"/>
      <point x="175" y="563" type="curve" smooth="yes"/>
      <point x="248" y="639"/>
      <point x="335" y="683"/>
      <point x="415" y="683" type="curve" smooth="yes"/>
      <point x="439" y="683"/>
      <point x="467" y="678"/>
    </contour>
    <contour>
      <point x="273" y="348" type="curve" smooth="yes"/>
      <point x="202" y="348"/>
      <point x="159" y="273"/>
      <point x="159" y="151" type="curve" smooth="yes"/>
      <point x="159" y="71"/>
      <point x="188" y="29"/>
      <point x="244" y="29" type="curve" smooth="yes"/>
      <point x="275" y="29"/>
      <point x="296" y="42"/>
      <point x="315" y="75" type="curve" smooth="yes"/>
      <point x="336" y="110"/>
      <point x="351" y="177"/>
      <point x="351" y="234" type="curve" smooth="yes"/>
      <point x="351" y="308"/>
      <point x="324" y="348"/>
    </contour>
  </outline>
</glyph>
<glyph name="seven" format="1">
  <advance width="500"/>
  <unicode hex="0037"/>
  <outline>
    <contour>
      <point x="76" y="-3" type="curve"/>
      <point x="69" y="10" type="line"/>
      <point x="177" y="178"/>
      <point x="312" y="382"/>
      <point x="360" y="448" type="curve" smooth="yes"/>
      <point x="439" y="557" type="line"/>
      <point x="170" y="557" type="line" smooth="yes"/>
      <point x="145" y="557"/>
      <point x="123" y="555"/>
      <point x="81" y="550" type="curve"/>
      <point x="73" y="556" type="line"/>
      <point x="81" y="593"/>
      <point x="87" y="620"/>
      <point x="94" y="665" type="curve"/>
      <point x="100" y="674" type="line"/>
      <point x="211" y="669"/>
      <point x="251" y="668"/>
      <point x="284" y="668" type="curve" smooth="yes"/>
      <point x="544" y="668" type="line"/>
      <point x="544" y="629" type="line"/>
      <point x="486" y="548" type="line"/>
      <point x="382" y="392"/>
      <point x="256" y="156"/>
      <point x="191" y="-3" type="curve"/>
      <point x="152" y="0"/>
      <point x="143" y="0"/>
      <point x="133" y="0" type="curve" smooth="yes"/>
      <point x="123" y="0"/>
      <point x="121" y="0"/>
    </contour>
  </outline>
</glyph>
<glyph name="nine" format="1">
  <advance width="500"/>
  <unicode hex="0039"/>
  <outline>
    <contour>
      <point x="348" y="313" type="curve"/>
      <point x="352" y="331" type="line"/>
      <point x="302" y="270"/>
      <point x="260" y="246"/>
      <point x="201" y="246" type="curve" smooth="yes"/>
      <point x="112" y="246"/>
      <point x="56" y="312"/>
      <point x="56" y="417" type="curve" smooth="yes"/>
      <point x="56" y="510"/>
      <point x="94" y="579"/>
      <point x="175" y="632" type="curve" smooth="yes"/>
      <point x="229" y="667"/>
      <point x="272" y="683"/>
      <point x="313" y="683" type="curve" smooth="yes"/>
      <point x="425" y="683"/>
      <point x="491" y="599"/>
      <point x="491" y="456" type="curve" smooth="yes"/>
      <point x="491" y="218"/>
      <point x="318" y="-17"/>
      <point x="143" y="-17" type="curve" smooth="yes"/>
      <point x="116" y="-17"/>
      <point x="94" y="-13"/>
      <point x="52" y="-2" type="curve"/>
      <point x="46" y="25"/>
      <point x="42" y="44"/>
      <point x="27" y="101" type="curve"/>
      <point x="50" y="111" type="line"/>
      <point x="74" y="59"/>
      <point x="113" y="32"/>
      <point x="165" y="32" type="curve" smooth="yes"/>
      <point x="222" y="32"/>
      <point x="267" y="70"/>
      <point x="299" y="146" type="curve" smooth="yes"/>
      <point x="318" y="190"/>
      <point x="325" y="216"/>
    </contour>
    <contour>
      <point x="285" y="634" type="curve" smooth="yes"/>
      <point x="218" y="634"/>
      <point x="176" y="564"/>
      <point x="176" y="452" type="curve" smooth="yes"/>
      <point x="176" y="363"/>
      <point x="204" y="317"/>
      <point x="259" y="317" type="curve" smooth="yes"/>
      <point x="326" y="317"/>
      <point x="366" y="386"/>
      <point x="366" y="503" type="curve" smooth="yes"/>
      <point x="366" y="587"/>
      <point x="337" y="634"/>
    </contour>
  </outline>
</glyph>
<glyph name="colon" format="1">
  <advance width="250"/>
  <unicode hex="003A"/>
  <outline>
    <contour>
      <point x="174" y="452" type="curve" smooth="yes"/>
      <point x="212" y="452"/>
      <point x="236" y="427"/>
      <point x="236" y="388" type="curve" smooth="yes"/>
      <point x="236" y="337"/>
      <point x="205" y="300"/>
      <point x="162" y="300" type="curve" smooth="yes"/>
      <point x="123" y="300"/>
      <point x="97" y="326"/>
      <point x="97" y="366" type="curve" smooth="yes"/>
      <point x="97" y="416"/>
      <point x="129" y="452"/>
    </contour>
    <contour>
      <point x="115" y="135" type="curve" smooth="yes"/>
      <point x="153" y="135"/>
      <point x="177" y="110"/>
      <point x="177" y="71" type="curve" smooth="yes"/>
      <point x="177" y="21"/>
      <point x="146" y="-17"/>
      <point x="103" y="-17" type="curve" smooth="yes"/>
      <point x="64" y="-17"/>
      <point x="38" y="9"/>
      <point x="38" y="49" type="curve" smooth="yes"/>
      <point x="38" y="99"/>
      <point x="71" y="135"/>
    </contour>
  </outline>
</glyph>
<glyph name="equal" format="1">
  <advance width="606"/>
  <unicode hex="003D"/>
  <outline>
    <contour>
      <point x="555" y="390" type="line"/>
      <point x="555" y="302" type="line"/>
      <point x="51" y="302" type="line"/>
      <point x="51" y="390" type="line"/>
    </contour>
    <contour>
      <point x="555" y="194" type="line"/>
      <point x="555" y="106" type="line"/>
      <point x="51" y="106" type="line"/>
      <point x="51" y="194" type="line"/>
    </contour>
  </outline>
</glyph>
<glyph name="question" format="1">
  <advance width="444"/>
  <unicode hex="003F"/>
  <outline>
    <contour>
      <point x="223" y="207" type="curve"/>
      <point x="201" y="189" type="line"/>
      <point x="171" y="214"/>
      <point x="159" y="237"/>
      <point x="159" y="266" type="curve" smooth="yes"/>
      <point x="159" y="297"/>
      <point x="176" y="329"/>
      <point x="210" y="365" type="curve" smooth="yes"/>
      <point x="273" y="431" type="line" smooth="yes"/>
      <point x="308" y="468"/>
      <point x="324" y="501"/>
      <point x="324" y="536" type="curve" smooth="yes"/>
      <point x="324" y="585"/>
      <point x="289" y="615"/>
      <point x="233" y="615" type="curve" smooth="yes"/>
      <point x="215" y="615"/>
      <point x="197" y="610"/>
      <point x="177" y="601" type="curve"/>
      <point x="158" y="591"/>
      <point x="146" y="575"/>
      <point x="131" y="539" type="curve" smooth="yes"/>
      <point x="124" y="522" type="line"/>
      <point x="91" y="526" type="line"/>
      <point x="111" y="570"/>
      <point x="122" y="600"/>
      <point x="134" y="652" type="curve"/>
      <point x="194" y="686"/>
      <point x="225" y="695"/>
      <point x="274" y="695" type="curve" smooth="yes"/>
      <point x="381" y="695"/>
      <point x="450" y="636"/>
      <point x="450" y="543" type="curve" smooth="yes"/>
      <point x="450" y="488"/>
      <point x="427" y="445"/>
      <point x="376" y="408" type="curve" smooth="yes"/>
      <point x="273" y="332" type="line" smooth="yes"/>
      <point x="217" y="291"/>
      <point x="203" y="274"/>
      <point x="203" y="249" type="curve" smooth="yes"/>
      <point x="203" y="234"/>
      <point x="209" y="222"/>
    </contour>
    <contour>
      <point x="174" y="135" type="curve" smooth="yes"/>
      <point x="212" y="135"/>
      <point x="236" y="110"/>
      <point x="236" y="71" type="curve" smooth="yes"/>
      <point x="236" y="20"/>
      <point x="205" y="-17"/>
      <point x="162" y="-17" type="curve" smooth="yes"/>
      <point x="123" y="-17"/>
      <point x="97" y="9"/>
      <point x="97" y="49" type="curve" smooth="yes"/>
      <point x="97" y="99"/>
      <point x="130" y="135"/>
    </contour>
  </outline>
</glyph>
<glyph name="L" format="1">
  <advance width="611"/>
  <unicode hex="004C"/>
  <outline>
    <contour>
      <point x="416" y="646" type="line"/>
      <point x="371" y="643" type="line" smooth="yes"/>
      <point x="338" y="641"/>
      <point x="332" y="635"/>
      <point x="325" y="599" type="curve" smooth="yes"/>
      <point x="226" y="56" type="line"/>
      <point x="251" y="51"/>
      <point x="263" y="50"/>
      <point x="294" y="50" type="curve" smooth="yes"/>
      <point x="334" y="50"/>
      <point x="426" y="53"/>
      <point x="462" y="56" type="curve" smooth="yes"/>
      <point x="496" y="59"/>
      <point x="510" y="70"/>
      <point x="519" y="98" type="curve" smooth="yes"/>
      <point x="542" y="174" type="line"/>
      <point x="578" y="174" type="line"/>
      <point x="559" y="81"/>
      <point x="552" y="50"/>
      <point x="544" y="0" type="curve"/>
      <point x="402" y="-3"/>
      <point x="402" y="-3"/>
      <point x="372" y="-3" type="curve" smooth="yes"/>
      <point x="360" y="-3"/>
      <point x="357" y="-3"/>
      <point x="258" y="-1" type="curve" smooth="yes"/>
      <point x="171" y="0" type="line" smooth="yes"/>
      <point x="128" y="0"/>
      <point x="126" y="0"/>
      <point x="26" y="-3" type="curve"/>
      <point x="30" y="29" type="line"/>
      <point x="58" y="32" type="line" smooth="yes"/>
      <point x="87" y="35"/>
      <point x="95" y="46"/>
      <point x="104" y="92" type="curve" smooth="yes"/>
      <point x="186" y="541" type="line" smooth="yes"/>
      <point x="192" y="573"/>
      <point x="195" y="599"/>
      <point x="195" y="615" type="curve" smooth="yes"/>
      <point x="195" y="632"/>
      <point x="183" y="642"/>
      <point x="157" y="643" type="curve" smooth="yes"/>
      <point x="105" y="646" type="line"/>
      <point x="109" y="681" type="line"/>
      <point x="239" y="678"/>
      <point x="239" y="678"/>
      <point x="261" y="678" type="curve" smooth="yes"/>
      <point x="283" y="678"/>
      <point x="283" y="678"/>
      <point x="420" y="681" type="curve"/>
    </contour>
  </outline>
</glyph>
<glyph name="M" format="1">
  <advance width="944"/>
  <unicode hex="004D"/>
  <outline>
    <contour>
      <point x="372" y="-17" type="line"/>
      <point x="229" y="548" type="line"/>
      <point x="122" y="108" type="line" smooth="yes"/>
      <point x="114" y="76"/>
      <point x="114" y="75"/>
      <point x="114" y="64" type="curve" smooth="yes"/>
      <point x="114" y="44"/>
      <point x="123" y="36"/>
      <point x="148" y="35" type="curve" smooth="yes"/>
      <point x="199" y="32" type="line"/>
      <point x="194" y="-3" type="line"/>
      <point x="149" y="-1"/>
      <point x="105" y="0"/>
      <point x="86" y="0" type="curve" smooth="yes"/>
      <point x="68" y="0"/>
      <point x="68" y="0"/>
      <point x="-23" y="-3" type="curve"/>
      <point x="-21" y="32" type="line"/>
      <point x="21" y="35" type="line" smooth="yes"/>
      <point x="38" y="37"/>
      <point x="51" y="55"/>
      <point x="61" y="91" type="curve" smooth="yes"/>
      <point x="186" y="552" type="line" smooth="yes"/>
      <point x="192" y="574"/>
      <point x="195" y="595"/>
      <point x="195" y="613" type="curve" smooth="yes"/>
      <point x="195" y="634"/>
      <point x="179" y="644"/>
      <point x="142" y="646" type="curve" smooth="yes"/>
      <point x="97" y="649" type="line"/>
      <point x="102" y="681" type="line"/>
      <point x="148" y="679"/>
      <point x="194" y="678"/>
      <point x="212" y="678" type="curve" smooth="yes"/>
      <point x="230" y="678"/>
      <point x="230" y="678"/>
      <point x="323" y="681" type="curve"/>
      <point x="450" y="174" type="line"/>
      <point x="620" y="441"/>
      <point x="679" y="538"/>
      <point x="758" y="681" type="curve"/>
      <point x="805" y="679"/>
      <point x="852" y="678"/>
      <point x="871" y="678" type="curve" smooth="yes"/>
      <point x="890" y="678"/>
      <point x="890" y="678"/>
      <point x="985" y="681" type="curve"/>
      <point x="980" y="649" type="line"/>
      <point x="941" y="646" type="line" smooth="yes"/>
      <point x="904" y="643"/>
      <point x="895" y="631"/>
      <point x="885" y="577" type="curve" smooth="yes"/>
      <point x="805" y="110" type="line" smooth="yes"/>
      <point x="805" y="109"/>
      <point x="804" y="106"/>
      <point x="803" y="102" type="curve" smooth="yes"/>
      <point x="800" y="83"/>
      <point x="798" y="72"/>
      <point x="798" y="65" type="curve" smooth="yes"/>
      <point x="798" y="44"/>
      <point x="808" y="36"/>
      <point x="834" y="35" type="curve" smooth="yes"/>
      <point x="889" y="32" type="line"/>
      <point x="884" y="-3" type="line"/>
      <point x="757" y="0"/>
      <point x="757" y="0"/>
      <point x="732" y="0" type="curve" smooth="yes"/>
      <point x="708" y="0"/>
      <point x="708" y="0"/>
      <point x="577" y="-3" type="curve"/>
      <point x="582" y="32" type="line"/>
      <point x="631" y="35" type="line"/>
      <point x="662" y="40"/>
      <point x="666" y="44"/>
      <point x="673" y="81" type="curve"/>
      <point x="673" y="81"/>
      <point x="674" y="85"/>
      <point x="675" y="90" type="curve" smooth="yes"/>
      <point x="676" y="94"/>
      <point x="677" y="99"/>
      <point x="677" y="101" type="curve" smooth="yes"/>
      <point x="759" y="586" type="line"/>
      <point x="468" y="108" type="line"/>
      <point x="397" y="-17" type="line"/>
    </contour>
  </outline>
</glyph>
<glyph name="V" format="1">
  <advance width="667"/>
  <unicode hex="0056"/>
  <outline>
    <contour>
      <point x="363" y="646" type="line"/>
      <point x="313" y="643" type="line" smooth="yes"/>
      <point x="288" y="641"/>
      <point x="283" y="636"/>
      <point x="283" y="607" type="curve" smooth="yes"/>
      <point x="283" y="602"/>
      <point x="283" y="600"/>
      <point x="284" y="594" type="curve" smooth="yes"/>
      <point x="352" y="132" type="line"/>
      <point x="585" y="567" type="line" smooth="yes"/>
      <point x="602" y="599"/>
      <point x="606" y="609"/>
      <point x="606" y="621" type="curve" smooth="yes"/>
      <point x="606" y="635"/>
      <point x="596" y="642"/>
      <point x="573" y="643" type="curve" smooth="yes"/>
      <point x="523" y="646" type="line"/>
      <point x="528" y="681" type="line"/>
      <point x="612" y="678"/>
      <point x="626" y="678"/>
      <point x="637" y="678" type="curve" smooth="yes"/>
      <point x="745" y="681" type="line"/>
      <point x="742" y="646" type="line"/>
      <point x="716" y="643" type="line" smooth="yes"/>
      <point x="695" y="641"/>
      <point x="687" y="633"/>
      <point x="666" y="598" type="curve"/>
      <point x="332" y="-3" type="line"/>
      <point x="249" y="-3" type="line"/>
      <point x="154" y="585" type="line" smooth="yes"/>
      <point x="147" y="627"/>
      <point x="136" y="641"/>
      <point x="110" y="643" type="curve" smooth="yes"/>
      <point x="67" y="646" type="line"/>
      <point x="67" y="681" type="line"/>
      <point x="189" y="678"/>
      <point x="189" y="678"/>
      <point x="215" y="678" type="curve" smooth="yes"/>
      <point x="240" y="678"/>
      <point x="240" y="678"/>
      <point x="363" y="681" type="curve"/>
    </contour>
  </outline>
</glyph>
<glyph name="bracketleft" format="1">
  <advance width="333"/>
  <unicode hex="005B"/>
  <outline>
    <contour>
      <point x="376" y="684" type="line"/>
      <point x="301" y="686" type="line"/>
      <point x="261" y="685"/>
      <point x="261" y="684"/>
      <point x="247" y="603" type="curve"/>
      <point x="161" y="56" type="line" smooth="yes"/>
      <point x="155" y="15"/>
      <point x="152" y="-7"/>
      <point x="152" y="-21" type="curve" smooth="yes"/>
      <point x="152" y="-49"/>
      <point x="161" y="-62"/>
      <point x="182" y="-63" type="curve" smooth="yes"/>
      <point x="269" y="-67" type="line"/>
      <point x="264" y="-102" type="line"/>
      <point x="213" y="-100"/>
      <point x="165" y="-99"/>
      <point x="144" y="-99" type="curve" smooth="yes"/>
      <point x="117" y="-99"/>
      <point x="113" y="-99"/>
      <point x="50" y="-102" type="curve"/>
      <point x="45" y="-94" type="line"/>
      <point x="67" y="6"/>
      <point x="75" y="44"/>
      <point x="81" y="86" type="curve" smooth="yes"/>
      <point x="165" y="645" type="line" smooth="yes"/>
      <point x="167" y="660"/>
      <point x="168" y="672"/>
      <point x="170" y="715" type="curve"/>
      <point x="177" y="723" type="line"/>
      <point x="225" y="721"/>
      <point x="245" y="720"/>
      <point x="268" y="720" type="curve" smooth="yes"/>
      <point x="288" y="720"/>
      <point x="311" y="721"/>
      <point x="381" y="723" type="curve"/>
    </contour>
  </outline>
</glyph>
<glyph name="backslash" format="1">
  <advance width="606"/>
  <unicode hex="005C"/>
  <outline>
    <contour>
      <point x="72" y="720" type="line"/>
      <point x="162" y="720" type="line"/>
      <point x="534" y="0" type="line"/>
      <point x="444" y="0" type="line"/>
    </contour>
  </outline>
</glyph>
<glyph name="grave" format="1">
  <advance width="333"/>
  <unicode hex="0060"/>
  <outline>
    <contour>
      <point x="277" y="518" type="line"/>
      <point x="154" y="600" type="line" smooth="yes"/>
      <point x="119" y="623"/>
      <point x="110" y="635"/>
      <point x="110" y="656" type="curve" smooth="yes"/>
      <point x="110" y="678"/>
      <point x="133" y="699"/>
      <point x="157" y="699" type="curve" smooth="yes"/>
      <point x="176" y="699"/>
      <point x="195" y="686"/>
      <point x="218" y="655" type="curve" smooth="yes"/>
      <point x="322" y="518" type="line"/>
    </contour>
  </outline>
</glyph>
<glyph name="b" format="1">
  <advance width="537"/>
  <unicode hex="0062"/>
  <outline>
    <contour>
      <point x="255" y="726" type="curve"/>
      <point x="265" y="717" type="line"/>
      <point x="257" y="683"/>
      <point x="254" y="667"/>
      <point x="251" y="652" type="curve" smooth="yes"/>
      <point x="180" y="304" type="line"/>
      <point x="220" y="363"/>
      <point x="242" y="389"/>
      <point x="279" y="416" type="curve" smooth="yes"/>
      <point x="327" y="451"/>
      <point x="374" y="469"/>
      <point x="420" y="469" type="curve" smooth="yes"/>
      <point x="468" y="469"/>
      <point x="494" y="428"/>
      <point x="494" y="353" type="curve" smooth="yes"/>
      <point x="494" y="206"/>
      <point x="436" y="96"/>
      <point x="324" y="31" type="curve" smooth="yes"/>
      <point x="272" y="1"/>
      <point x="212" y="-17"/>
      <point x="165" y="-17" type="curve" smooth="yes"/>
      <point x="90" y="-17"/>
      <point x="44" y="24"/>
      <point x="44" y="93" type="curve" smooth="yes"/>
      <point x="44" y="109"/>
      <point x="45" y="120"/>
      <point x="53" y="165" type="curve" smooth="yes"/>
      <point x="126" y="596" type="line" smooth="yes"/>
      <point x="128" y="608"/>
      <point x="129" y="618"/>
      <point x="129" y="627" type="curve" smooth="yes"/>
      <point x="129" y="644"/>
      <point x="118" y="652"/>
      <point x="95" y="652" type="curve" smooth="yes"/>
      <point x="50" y="652" type="line"/>
      <point x="57" y="680" type="line"/>
      <point x="157" y="695"/>
      <point x="206" y="706"/>
    </contour>
    <contour>
      <point x="341" y="403" type="curve" smooth="yes"/>
      <point x="302" y="407"/>
      <point x="223" y="340"/>
      <point x="193" y="277" type="curve" smooth="yes"/>
      <point x="169" y="226"/>
      <point x="154" y="163"/>
      <point x="154" y="118" type="curve" smooth="yes"/>
      <point x="154" y="63"/>
      <point x="180" y="29"/>
      <point x="222" y="29" type="curve" smooth="yes"/>
      <point x="263" y="29"/>
      <point x="301" y="61"/>
      <point x="331" y="121" type="curve" smooth="yes"/>
      <point x="356" y="172"/>
      <point x="380" y="268"/>
      <point x="380" y="319" type="curve" smooth="yes"/>
      <point x="380" y="369"/>
      <point x="366" y="400"/>
    </contour>
  </outline>
</glyph>
<glyph name="k" format="1">
  <advance width="556"/>
  <unicode hex="006B"/>
  <outline>
    <contour>
      <point x="286" y="726" type="curve"/>
      <point x="296" y="717" type="line"/>
      <point x="292" y="703"/>
      <point x="290" y="695"/>
      <point x="289" y="689" type="curve" smooth="yes"/>
      <point x="284" y="671"/>
      <point x="280" y="658"/>
      <point x="279" y="652" type="curve" smooth="yes"/>
      <point x="184" y="221" type="line"/>
      <point x="224" y="276"/>
      <point x="273" y="330"/>
      <point x="331" y="385" type="curve" smooth="yes"/>
      <point x="394" y="445"/>
      <point x="438" y="469"/>
      <point x="485" y="469" type="curve" smooth="yes"/>
      <point x="497" y="469"/>
      <point x="513" y="466"/>
      <point x="528" y="460" type="curve"/>
      <point x="508" y="390" type="line"/>
      <point x="486" y="396"/>
      <point x="474" y="398"/>
      <point x="459" y="398" type="curve" smooth="yes"/>
      <point x="407" y="398"/>
      <point x="359" y="372"/>
      <point x="313" y="318" type="curve"/>
      <point x="378" y="145" type="line" smooth="yes"/>
      <point x="396" y="98"/>
      <point x="420" y="65"/>
      <point x="437" y="65" type="curve" smooth="yes"/>
      <point x="447" y="65"/>
      <point x="460" y="71"/>
      <point x="483" y="85" type="curve" smooth="yes"/>
      <point x="510" y="102" type="line"/>
      <point x="520" y="73" type="line"/>
      <point x="476" y="42" type="line" smooth="yes"/>
      <point x="421" y="3"/>
      <point x="379" y="-17"/>
      <point x="354" y="-17" type="curve" smooth="yes"/>
      <point x="331" y="-17"/>
      <point x="315" y="7"/>
      <point x="288" y="80" type="curve" smooth="yes"/>
      <point x="231" y="235" type="line"/>
      <point x="200" y="201" type="line"/>
      <point x="179" y="176"/>
      <point x="177" y="170"/>
      <point x="165" y="110" type="curve" smooth="yes"/>
      <point x="153" y="53"/>
      <point x="151" y="37"/>
      <point x="149" y="4" type="curve"/>
      <point x="120" y="2"/>
      <point x="104" y="-1"/>
      <point x="44" y="-14" type="curve"/>
      <point x="34" y="-5" type="line"/>
      <point x="51" y="38"/>
      <point x="81" y="169"/>
      <point x="112" y="334" type="curve" smooth="yes"/>
      <point x="141" y="488"/>
      <point x="160" y="604"/>
      <point x="160" y="627" type="curve" smooth="yes"/>
      <point x="160" y="644"/>
      <point x="149" y="652"/>
      <point x="126" y="652" type="curve" smooth="yes"/>
      <point x="81" y="652" type="line"/>
      <point x="88" y="680" type="line"/>
      <point x="188" y="695"/>
      <point x="237" y="706"/>
    </contour>
  </outline>
</glyph>
<glyph name="l" format="1">
  <advance width="333"/>
  <unicode hex="006C"/>
  <outline>
    <contour>
      <point x="277" y="114" type="line"/>
      <point x="291" y="87" type="line"/>
      <point x="175" y="2"/>
      <point x="139" y="-17"/>
      <point x="96" y="-17" type="curve" smooth="yes"/>
      <point x="75" y="-17"/>
      <point x="64" y="1"/>
      <point x="64" y="36" type="curve" smooth="yes"/>
      <point x="64" y="70"/>
      <point x="65" y="80"/>
      <point x="80" y="146" type="curve" smooth="yes"/>
      <point x="179" y="596" type="line" smooth="yes"/>
      <point x="182" y="608"/>
      <point x="183" y="618"/>
      <point x="183" y="627" type="curve" smooth="yes"/>
      <point x="183" y="643"/>
      <point x="171" y="652"/>
      <point x="148" y="652" type="curve" smooth="yes"/>
      <point x="103" y="652" type="line"/>
      <point x="110" y="680" type="line"/>
      <point x="210" y="695"/>
      <point x="259" y="706"/>
      <point x="308" y="726" type="curve"/>
      <point x="318" y="717" type="line"/>
      <point x="315" y="706"/>
      <point x="312" y="695"/>
      <point x="311" y="689" type="curve" smooth="yes"/>
      <point x="306" y="671"/>
      <point x="302" y="658"/>
      <point x="301" y="652" type="curve" smooth="yes"/>
      <point x="194" y="170" type="line" smooth="yes"/>
      <point x="186" y="136"/>
      <point x="182" y="102"/>
      <point x="182" y="79" type="curve" smooth="yes"/>
      <point x="182" y="71"/>
      <point x="187" y="65"/>
      <point x="194" y="65" type="curve" smooth="yes"/>
      <point x="204" y="65"/>
      <point x="229" y="77"/>
      <point x="247" y="91" type="curve" smooth="yes"/>
    </contour>
  </outline>
</glyph>
<glyph name="v" format="1">
  <advance width="556"/>
  <unicode hex="0076"/>
  <outline>
    <contour>
      <point x="19" y="324" type="line"/>
      <point x="60" y="456" type="line"/>
      <point x="82" y="460"/>
      <point x="95" y="461"/>
      <point x="111" y="461" type="curve" smooth="yes"/>
      <point x="128" y="461"/>
      <point x="147" y="460"/>
      <point x="231" y="456" type="curve" smooth="yes"/>
      <point x="238" y="455"/>
      <point x="243" y="455"/>
      <point x="246" y="455" type="curve" smooth="yes"/>
      <point x="270" y="455"/>
      <point x="298" y="461"/>
      <point x="310" y="469" type="curve"/>
      <point x="324" y="450" type="line"/>
      <point x="265" y="380"/>
      <point x="240" y="338"/>
      <point x="217" y="269" type="curve" smooth="yes"/>
      <point x="204" y="227"/>
      <point x="197" y="187"/>
      <point x="197" y="147" type="curve" smooth="yes"/>
      <point x="197" y="82"/>
      <point x="220" y="46"/>
      <point x="263" y="46" type="curve" smooth="yes"/>
      <point x="306" y="46"/>
      <point x="344" y="76"/>
      <point x="378" y="135" type="curve" smooth="yes"/>
      <point x="412" y="195"/>
      <point x="436" y="278"/>
      <point x="436" y="334" type="curve" smooth="yes"/>
      <point x="436" y="366"/>
      <point x="420" y="389"/>
      <point x="397" y="389" type="curve" smooth="yes"/>
      <point x="383" y="389"/>
      <point x="370" y="385"/>
      <point x="361" y="377" type="curve"/>
      <point x="351" y="398" type="line"/>
      <point x="370" y="412"/>
      <point x="385" y="428"/>
      <point x="417" y="465" type="curve"/>
      <point x="429" y="468"/>
      <point x="435" y="469"/>
      <point x="443" y="469" type="curve" smooth="yes"/>
      <point x="480" y="469"/>
      <point x="513" y="423"/>
      <point x="513" y="370" type="curve" smooth="yes"/>
      <point x="513" y="279"/>
      <point x="452" y="149"/>
      <point x="368" y="63" type="curve" smooth="yes"/>
      <point x="319" y="12"/>
      <point x="260" y="-17"/>
      <point x="205" y="-17" type="curve" smooth="yes"/>
      <point x="131" y="-17"/>
      <point x="87" y="35"/>
      <point x="87" y="123" type="curve" smooth="yes"/>
      <point x="87" y="207"/>
      <point x="119" y="268"/>
      <point x="213" y="362" type="curve" smooth="yes"/>
      <point x="254" y="403" type="line"/>
      <point x="220" y="395"/>
      <point x="184" y="392"/>
      <point x="117" y="392" type="curve" smooth="yes"/>
      <point x="89" y="392"/>
      <point x="77" y="390"/>
      <point x="75" y="384" type="curve" smooth="yes"/>
      <point x="47" y="324" type="line"/>
    </contour>
  </outline>
</glyph>
<glyph name="braceright" format="1">
  <advance width="333"/>
  <unicode hex="007D"/>
  <outline>
    <contour>
      <point x="91" y="6" type="curve" smooth="yes"/>
      <point x="122" y="186" type="line" smooth="yes"/>
      <point x="136" y="266"/>
      <point x="162" y="296"/>
      <point x="229" y="309" type="curve"/>
      <point x="180" y="322"/>
      <point x="161" y="344"/>
      <point x="161" y="387" type="curve" smooth="yes"/>
      <point x="161" y="401"/>
      <point x="163" y="422"/>
      <point x="167" y="444" type="curve" smooth="yes"/>
      <point x="196" y="612" type="line" smooth="yes"/>
      <point x="198" y="623"/>
      <point x="199" y="635"/>
      <point x="199" y="646" type="curve" smooth="yes"/>
      <point x="199" y="687"/>
      <point x="184" y="706"/>
      <point x="142" y="718" type="curve"/>
      <point x="142" y="720" type="line"/>
      <point x="216" y="720" type="line" smooth="yes"/>
      <point x="255" y="720"/>
      <point x="293" y="678"/>
      <point x="293" y="635" type="curve" smooth="yes"/>
      <point x="293" y="624"/>
      <point x="292" y="613"/>
      <point x="287" y="585" type="curve"/>
      <point x="287" y="580" type="line"/>
      <point x="286" y="576" type="line"/>
      <point x="258" y="417" type="line" smooth="yes"/>
      <point x="256" y="403"/>
      <point x="254" y="388"/>
      <point x="254" y="377" type="curve" smooth="yes"/>
      <point x="254" y="340"/>
      <point x="269" y="324"/>
      <point x="315" y="310" type="curve"/>
      <point x="315" y="308" type="line"/>
      <point x="257" y="298"/>
      <point x="232" y="270"/>
      <point x="221" y="204" type="curve" smooth="yes"/>
      <point x="190" y="24" type="line" smooth="yes"/>
      <point x="181" y="-26"/>
      <point x="170" y="-50"/>
      <point x="146" y="-71" type="curve" smooth="yes"/>
      <point x="124" y="-90"/>
      <point x="89" y="-105"/>
      <point x="67" y="-105" type="curve" smooth="yes"/>
      <point x="-1" y="-105" type="line"/>
      <point x="-1" y="-103" type="line"/>
      <point x="58" y="-86"/>
      <point x="79" y="-60"/>
    </contour>
  </outline>
</glyph>
<glyph name="sterling" format="1">
  <advance width="500"/>
  <unicode hex="00A3"/>
  <outline>
    <contour>
      <point x="387" y="315" type="line"/>
      <point x="236" y="315" type="line"/>
      <point x="204" y="195"/>
      <point x="185" y="157"/>
      <point x="129" y="99" type="curve"/>
      <point x="168" y="109"/>
      <point x="192" y="112"/>
      <point x="242" y="112" type="curve" smooth="yes"/>
      <point x="268" y="112"/>
      <point x="287" y="111"/>
      <point x="318" y="107" type="curve" smooth="yes"/>
      <point x="337" y="105"/>
      <point x="363" y="103"/>
      <point x="382" y="103" type="curve" smooth="yes"/>
      <point x="417" y="103"/>
      <point x="433" y="111"/>
      <point x="442" y="134" type="curve" smooth="yes"/>
      <point x="465" y="192" type="line"/>
      <point x="496" y="192" type="line"/>
      <point x="449" y="18" type="line" smooth="yes"/>
      <point x="445" y="4"/>
      <point x="427" y="-4"/>
      <point x="400" y="-4" type="curve" smooth="yes"/>
      <point x="356" y="-4"/>
      <point x="356" y="-4"/>
      <point x="196" y="31" type="curve" smooth="yes"/>
      <point x="169" y="37"/>
      <point x="136" y="42"/>
      <point x="126" y="42" type="curve" smooth="yes"/>
      <point x="111" y="42"/>
      <point x="94" y="33"/>
      <point x="71" y="13" type="curve" smooth="yes"/>
      <point x="58" y="2"/>
      <point x="47" y="-5"/>
      <point x="41" y="-5" type="curve" smooth="yes"/>
      <point x="30" y="-5" type="line"/>
      <point x="23" y="17"/>
      <point x="21" y="32"/>
      <point x="21" y="54" type="curve"/>
      <point x="107" y="97"/>
      <point x="115" y="115"/>
      <point x="127" y="315" type="curve"/>
      <point x="39" y="315" type="line"/>
      <point x="45" y="355" type="line"/>
      <point x="130" y="355" type="line"/>
      <point x="146" y="491"/>
      <point x="171" y="551"/>
      <point x="229" y="601" type="curve"/>
      <point x="283" y="646"/>
      <point x="361" y="683"/>
      <point x="403" y="683" type="curve" smooth="yes"/>
      <point x="433" y="683"/>
      <point x="463" y="675"/>
      <point x="501" y="658" type="curve"/>
      <point x="467" y="529" type="line"/>
      <point x="444" y="535" type="line"/>
      <point x="444" y="574" type="line" smooth="yes"/>
      <point x="444" y="606"/>
      <point x="415" y="627"/>
      <point x="373" y="627" type="curve" smooth="yes"/>
      <point x="324" y="627"/>
      <point x="291" y="597"/>
      <point x="281" y="544" type="curve" smooth="yes"/>
      <point x="244" y="355" type="line"/>
      <point x="393" y="355" type="line"/>
    </contour>
  </outline>
</glyph>
<glyph name="currency" format="1">
  <advance width="500"/>
  <unicode hex="00A4"/>
  <outline>
    <contour>
      <point x="32" y="141" type="line"/>
      <point x="81" y="190" type="line"/>
      <point x="51" y="228"/>
      <point x="39" y="263"/>
      <point x="39" y="313" type="curve" smooth="yes"/>
      <point x="39" y="365"/>
      <point x="51" y="401"/>
      <point x="81" y="435" type="curve"/>
      <point x="32" y="484" type="line"/>
      <point x="79" y="531" type="line"/>
      <point x="127" y="483" type="line"/>
      <point x="164" y="511"/>
      <point x="204" y="524"/>
      <point x="251" y="524" type="curve" smooth="yes"/>
      <point x="297" y="524"/>
      <point x="334" y="512"/>
      <point x="371" y="484" type="curve"/>
      <point x="419" y="533" type="line"/>
      <point x="468" y="484" type="line"/>
      <point x="422" y="436" type="line"/>
      <point x="449" y="401"/>
      <point x="461" y="363"/>
      <point x="461" y="314" type="curve" smooth="yes"/>
      <point x="461" y="265"/>
      <point x="449" y="227"/>
      <point x="421" y="189" type="curve"/>
      <point x="467" y="141" type="line"/>
      <point x="422" y="96" type="line"/>
      <point x="375" y="145" type="line"/>
      <point x="338" y="115"/>
      <point x="301" y="102"/>
      <point x="250" y="102" type="curve" smooth="yes"/>
      <point x="199" y="102"/>
      <point x="162" y="114"/>
      <point x="125" y="144" type="curve"/>
      <point x="77" y="96" type="line"/>
    </contour>
    <contour>
      <point x="251" y="447" type="curve" smooth="yes"/>
      <point x="177" y="447"/>
      <point x="116" y="386"/>
      <point x="116" y="312" type="curve" smooth="yes"/>
      <point x="116" y="240"/>
      <point x="177" y="178"/>
      <point x="249" y="178" type="curve" smooth="yes"/>
      <point x="324" y="178"/>
      <point x="384" y="239"/>
      <point x="384" y="314" type="curve" smooth="yes"/>
      <point x="384" y="386"/>
      <point x="324" y="447"/>
    </contour>
  </outline>
</glyph>
<glyph name="yen" format="1">
  <advance width="500"/>
  <unicode hex="00A5"/>
  <outline>
    <contour>
      <point x="538" y="681" type="curve"/>
      <point x="533" y="593" type="line"/>
      <point x="471" y="581"/>
      <point x="397" y="485"/>
      <point x="344" y="350" type="curve"/>
      <point x="431" y="350" type="line"/>
      <point x="424" y="310" type="line"/>
      <point x="325" y="310" type="line"/>
      <point x="300" y="235" type="line"/>
      <point x="419" y="235" type="line"/>
      <point x="412" y="195" type="line"/>
      <point x="293" y="195" type="line"/>
      <point x="278" y="100" type="line" smooth="yes"/>
      <point x="277" y="95"/>
      <point x="276" y="74"/>
      <point x="276" y="67" type="curve" smooth="yes"/>
      <point x="276" y="45"/>
      <point x="284" y="36"/>
      <point x="307" y="35" type="curve" smooth="yes"/>
      <point x="357" y="32" type="line"/>
      <point x="354" y="-3" type="line"/>
      <point x="232" y="0"/>
      <point x="232" y="0"/>
      <point x="217" y="0" type="curve" smooth="yes"/>
      <point x="201" y="0"/>
      <point x="201" y="0"/>
      <point x="82" y="-3" type="curve"/>
      <point x="85" y="32" type="line"/>
      <point x="127" y="35" type="line" smooth="yes"/>
      <point x="155" y="38"/>
      <point x="158" y="44"/>
      <point x="174" y="132" type="curve"/>
      <point x="184" y="195" type="line"/>
      <point x="68" y="195" type="line"/>
      <point x="76" y="235" type="line"/>
      <point x="191" y="235" type="line"/>
      <point x="190" y="258"/>
      <point x="189" y="266"/>
      <point x="182" y="310" type="curve"/>
      <point x="80" y="310" type="line"/>
      <point x="88" y="350" type="line"/>
      <point x="171" y="350" type="line"/>
      <point x="144" y="456" type="line" smooth="yes"/>
      <point x="123" y="539"/>
      <point x="85" y="597"/>
      <point x="52" y="597" type="curve" smooth="yes"/>
      <point x="37" y="597"/>
      <point x="22" y="593"/>
      <point x="13" y="587" type="curve"/>
      <point x="11" y="620" type="line"/>
      <point x="32" y="637"/>
      <point x="49" y="652"/>
      <point x="87" y="690" type="curve"/>
      <point x="99" y="694"/>
      <point x="105" y="695"/>
      <point x="110" y="695" type="curve" smooth="yes"/>
      <point x="144" y="695"/>
      <point x="175" y="673"/>
      <point x="197" y="633" type="curve" smooth="yes"/>
      <point x="216" y="598"/>
      <point x="239" y="524"/>
      <point x="249" y="466" type="curve" smooth="yes"/>
      <point x="279" y="296" type="line"/>
      <point x="357" y="520"/>
      <point x="467" y="684"/>
    </contour>
  </outline>
</glyph>
<glyph name="section" format="1">
  <advance width="556"/>
  <unicode hex="00A7"/>
  <outline>
    <contour>
      <point x="109" y="48" type="line"/>
      <point x="104" y="-37" type="line"/>
      <point x="143" y="-85"/>
      <point x="183" y="-107"/>
      <point x="230" y="-107" type="curve" smooth="yes"/>
      <point x="294" y="-107"/>
      <point x="354" y="-56"/>
      <point x="354" y="-1" type="curve" smooth="yes"/>
      <point x="354" y="28"/>
      <point x="330" y="62"/>
      <point x="298" y="81" type="curve" smooth="yes"/>
      <point x="163" y="159" type="line" smooth="yes"/>
      <point x="106" y="192"/>
      <point x="81" y="231"/>
      <point x="81" y="286" type="curve" smooth="yes"/>
      <point x="81" y="343"/>
      <point x="105" y="380"/>
      <point x="177" y="435" type="curve"/>
      <point x="149" y="461"/>
      <point x="136" y="486"/>
      <point x="136" y="512" type="curve" smooth="yes"/>
      <point x="136" y="563"/>
      <point x="172" y="625"/>
      <point x="221" y="659" type="curve" smooth="yes"/>
      <point x="257" y="683"/>
      <point x="294" y="695"/>
      <point x="336" y="695" type="curve" smooth="yes"/>
      <point x="394" y="695"/>
      <point x="440" y="681"/>
      <point x="497" y="646" type="curve"/>
      <point x="470" y="518" type="line"/>
      <point x="436" y="518" type="line"/>
      <point x="439" y="591" type="line"/>
      <point x="393" y="630"/>
      <point x="356" y="646"/>
      <point x="311" y="646" type="curve" smooth="yes"/>
      <point x="255" y="646"/>
      <point x="215" y="614"/>
      <point x="215" y="569" type="curve" smooth="yes"/>
      <point x="215" y="536"/>
      <point x="235" y="511"/>
      <point x="286" y="481" type="curve" smooth="yes"/>
      <point x="403" y="412" type="line" smooth="yes"/>
      <point x="457" y="380"/>
      <point x="486" y="338"/>
      <point x="486" y="291" type="curve" smooth="yes"/>
      <point x="486" y="231"/>
      <point x="456" y="182"/>
      <point x="392" y="138" type="curve"/>
      <point x="424" y="110"/>
      <point x="438" y="80"/>
      <point x="438" y="44" type="curve" smooth="yes"/>
      <point x="438" y="-2"/>
      <point x="409" y="-54"/>
      <point x="360" y="-96" type="curve" smooth="yes"/>
      <point x="319" y="-131"/>
      <point x="263" y="-151"/>
      <point x="207" y="-151" type="curve" smooth="yes"/>
      <point x="147" y="-151"/>
      <point x="98" y="-132"/>
      <point x="47" y="-87" type="curve"/>
      <point x="76" y="48" type="line"/>
    </contour>
    <contour>
      <point x="238" y="227" type="curve" smooth="yes"/>
      <point x="355" y="161" type="line"/>
      <point x="386" y="172"/>
      <point x="411" y="208"/>
      <point x="411" y="243" type="curve" smooth="yes"/>
      <point x="411" y="266"/>
      <point x="398" y="291"/>
      <point x="379" y="309" type="curve"/>
      <point x="371" y="315"/>
      <point x="354" y="326"/>
      <point x="327" y="342" type="curve" smooth="yes"/>
      <point x="211" y="409" type="line"/>
      <point x="178" y="379"/>
      <point x="164" y="354"/>
      <point x="164" y="325" type="curve" smooth="yes"/>
      <point x="164" y="288"/>
      <point x="190" y="254"/>
    </contour>
  </outline>
</glyph>
<glyph name="ordfeminine" format="1">
  <advance width="333"/>
  <unicode hex="00AA"/>
  <outline>
    <contour>
      <point x="307" y="667" type="curve"/>
      <point x="336" y="684" type="line"/>
      <point x="346" y="676" type="line"/>
      <point x="337" y="651" type="line" smooth="yes"/>
      <point x="334" y="642"/>
      <point x="331" y="634"/>
      <point x="330" y="630" type="curve" smooth="yes"/>
      <point x="330" y="628"/>
      <point x="328" y="622"/>
      <point x="326" y="613" type="curve" smooth="yes"/>
      <point x="296" y="485" type="line"/>
      <point x="295" y="482" type="line" smooth="yes"/>
      <point x="295" y="480"/>
      <point x="294" y="477"/>
      <point x="293" y="473" type="curve" smooth="yes"/>
      <point x="291" y="463"/>
      <point x="290" y="459"/>
      <point x="290" y="454" type="curve"/>
      <point x="299" y="441" type="line"/>
      <point x="305" y="441"/>
      <point x="323" y="450"/>
      <point x="335" y="459" type="curve" smooth="yes"/>
      <point x="348" y="469" type="line"/>
      <point x="355" y="451" type="line"/>
      <point x="307" y="411"/>
      <point x="270" y="391"/>
      <point x="242" y="391" type="curve" smooth="yes"/>
      <point x="230" y="391"/>
      <point x="222" y="401"/>
      <point x="222" y="418" type="curve" smooth="yes"/>
      <point x="222" y="427"/>
      <point x="224" y="444"/>
      <point x="226" y="451" type="curve" smooth="yes"/>
      <point x="252" y="548" type="line"/>
      <point x="191" y="445"/>
      <point x="133" y="391"/>
      <point x="80" y="391" type="curve" smooth="yes"/>
      <point x="60" y="391"/>
      <point x="47" y="411"/>
      <point x="47" y="443" type="curve" smooth="yes"/>
      <point x="47" y="495"/>
      <point x="77" y="589"/>
      <point x="100" y="613" type="curve"/>
      <point x="113" y="625"/>
      <point x="141" y="645"/>
      <point x="186" y="671" type="curve" smooth="yes"/>
      <point x="201" y="679"/>
      <point x="217" y="683"/>
      <point x="239" y="683" type="curve" smooth="yes"/>
      <point x="262" y="683"/>
      <point x="277" y="679"/>
    </contour>
    <contour>
      <point x="263" y="639" type="curve"/>
      <point x="241" y="648"/>
      <point x="227" y="652"/>
      <point x="211" y="652" type="curve" smooth="yes"/>
      <point x="185" y="652"/>
      <point x="170" y="639"/>
      <point x="155" y="604" type="curve" smooth="yes"/>
      <point x="140" y="569"/>
      <point x="120" y="489"/>
      <point x="120" y="463" type="curve" smooth="yes"/>
      <point x="120" y="451"/>
      <point x="125" y="441"/>
      <point x="131" y="441" type="curve" smooth="yes"/>
      <point x="149" y="441"/>
      <point x="188" y="478"/>
      <point x="216" y="522" type="curve" smooth="yes"/>
      <point x="242" y="562"/>
      <point x="255" y="594"/>
    </contour>
  </outline>
</glyph>
<glyph name="logicalnot" format="1">
  <advance width="606"/>
  <unicode hex="00AC"/>
  <outline>
    <contour>
      <point x="467" y="302" type="line"/>
      <point x="51" y="302" type="line"/>
      <point x="51" y="390" type="line"/>
      <point x="555" y="390" type="line"/>
      <point x="555" y="107" type="line"/>
      <point x="467" y="107" type="line"/>
    </contour>
  </outline>
</glyph>
<glyph name="macron" format="1">
  <advance width="333"/>
  <unicode hex="00AF"/>
  <outline>
    <contour>
      <point x="418" y="608" type="line"/>
      <point x="402" y="538" type="line"/>
      <point x="76" y="538" type="line"/>
      <point x="93" y="608" type="line"/>
    </contour>
  </outline>
</glyph>
<glyph name="degree" format="1">
  <advance width="400"/>
  <unicode hex="00B0"/>
  <outline>
    <contour>
      <point x="202" y="683" type="curve" smooth="yes"/>
      <point x="282" y="683"/>
      <point x="350" y="614"/>
      <point x="350" y="533" type="curve" smooth="yes"/>
      <point x="350" y="450"/>
      <point x="282" y="383"/>
      <point x="200" y="383" type="curve" smooth="yes"/>
      <point x="117" y="383"/>
      <point x="50" y="450"/>
      <point x="50" y="533" type="curve" smooth="yes"/>
      <point x="50" y="617"/>
      <point x="117" y="683"/>
    </contour>
    <contour>
      <point x="200" y="622" type="curve" smooth="yes"/>
      <point x="150" y="622"/>
      <point x="111" y="583"/>
      <point x="111" y="534" type="curve" smooth="yes"/>
      <point x="111" y="484"/>
      <point x="151" y="444"/>
      <point x="200" y="444" type="curve" smooth="yes"/>
      <point x="249" y="444"/>
      <point x="289" y="484"/>
      <point x="289" y="533" type="curve" smooth="yes"/>
      <point x="289" y="581"/>
      <point x="248" y="622"/>
    </contour>
  </outline>
</glyph>
<glyph name="twosuperior" format="1">
  <advance width="300"/>
  <unicode hex="00B2"/>
  <outline>
    <contour>
      <point x="26" y="271" type="curve"/>
      <point x="26" y="294" type="line"/>
      <point x="111" y="375" type="line" smooth="yes"/>
      <point x="190" y="450"/>
      <point x="231" y="516"/>
      <point x="231" y="567" type="curve" smooth="yes"/>
      <point x="231" y="599"/>
      <point x="205" y="623"/>
      <point x="170" y="623" type="curve" smooth="yes"/>
      <point x="144" y="623"/>
      <point x="123" y="611"/>
      <point x="109" y="588" type="curve" smooth="yes"/>
      <point x="91" y="558" type="line"/>
      <point x="61" y="567" type="line"/>
      <point x="101" y="652" type="line"/>
      <point x="137" y="674"/>
      <point x="165" y="683"/>
      <point x="199" y="683" type="curve" smooth="yes"/>
      <point x="270" y="683"/>
      <point x="318" y="642"/>
      <point x="318" y="580" type="curve" smooth="yes"/>
      <point x="318" y="537"/>
      <point x="298" y="498"/>
      <point x="255" y="457" type="curve" smooth="yes"/>
      <point x="127" y="336" type="line"/>
      <point x="262" y="336" type="line" smooth="yes"/>
      <point x="280" y="336"/>
      <point x="294" y="337"/>
      <point x="315" y="341" type="curve"/>
      <point x="321" y="333" type="line"/>
      <point x="312" y="318"/>
      <point x="306" y="302"/>
      <point x="299" y="271" type="curve"/>
      <point x="255" y="272"/>
      <point x="189" y="273"/>
      <point x="162" y="273" type="curve" smooth="yes"/>
      <point x="136" y="273"/>
      <point x="70" y="272"/>
    </contour>
  </outline>
</glyph>
<glyph name="threesuperior" format="1">
  <advance width="300"/>
  <unicode hex="00B3"/>
  <outline>
    <contour>
      <point x="23" y="288" type="curve"/>
      <point x="42" y="384" type="line"/>
      <point x="70" y="384" type="line"/>
      <point x="70" y="382"/>
      <point x="70" y="381"/>
      <point x="69" y="377" type="curve" smooth="yes"/>
      <point x="68" y="369"/>
      <point x="67" y="362"/>
      <point x="67" y="353" type="curve" smooth="yes"/>
      <point x="67" y="317"/>
      <point x="93" y="293"/>
      <point x="132" y="293" type="curve" smooth="yes"/>
      <point x="181" y="293"/>
      <point x="218" y="338"/>
      <point x="218" y="398" type="curve" smooth="yes"/>
      <point x="218" y="447"/>
      <point x="197" y="471"/>
      <point x="156" y="471" type="curve" smooth="yes"/>
      <point x="142" y="471"/>
      <point x="133" y="469"/>
      <point x="107" y="462" type="curve"/>
      <point x="98" y="469" type="line"/>
      <point x="111" y="506" type="line"/>
      <point x="118" y="504"/>
      <point x="123" y="504"/>
      <point x="133" y="504" type="curve" smooth="yes"/>
      <point x="160" y="504"/>
      <point x="176" y="507"/>
      <point x="191" y="516" type="curve" smooth="yes"/>
      <point x="215" y="530"/>
      <point x="229" y="555"/>
      <point x="229" y="582" type="curve" smooth="yes"/>
      <point x="229" y="612"/>
      <point x="207" y="631"/>
      <point x="171" y="631" type="curve" smooth="yes"/>
      <point x="137" y="631"/>
      <point x="116" y="615"/>
      <point x="94" y="572" type="curve"/>
      <point x="66" y="586" type="line"/>
      <point x="107" y="655" type="line"/>
      <point x="136" y="675"/>
      <point x="163" y="683"/>
      <point x="202" y="683" type="curve" smooth="yes"/>
      <point x="268" y="683"/>
      <point x="310" y="652"/>
      <point x="310" y="602" type="curve" smooth="yes"/>
      <point x="310" y="557"/>
      <point x="277" y="523"/>
      <point x="205" y="497" type="curve"/>
      <point x="276" y="488"/>
      <point x="309" y="459"/>
      <point x="309" y="406" type="curve" smooth="yes"/>
      <point x="309" y="326"/>
      <point x="230" y="263"/>
      <point x="129" y="263" type="curve" smooth="yes"/>
      <point x="92" y="263"/>
      <point x="64" y="270"/>
    </contour>
  </outline>
</glyph>
<glyph name="acute" format="1">
  <advance width="333"/>
  <unicode hex="00B4"/>
  <outline>
    <contour>
      <point x="153" y="518" type="line"/>
      <point x="294" y="669" type="line" smooth="yes"/>
      <point x="314" y="690"/>
      <point x="329" y="699"/>
      <point x="345" y="699" type="curve" smooth="yes"/>
      <point x="371" y="699"/>
      <point x="392" y="679"/>
      <point x="392" y="654" type="curve" smooth="yes"/>
      <point x="392" y="634"/>
      <point x="384" y="623"/>
      <point x="356" y="607" type="curve" smooth="yes"/>
      <point x="202" y="518" type="line"/>
    </contour>
  </outline>
</glyph>
<glyph name="paragraph" format="1">
  <advance width="556"/>
  <unicode hex="00B6"/>
  <outline>
    <contour>
      <point x="80" y="-204" type="curve"/>
      <point x="83" y="-169" type="line"/>
      <point x="116" y="-169" type="line" smooth="yes"/>
      <point x="141" y="-169"/>
      <point x="160" y="-162"/>
      <point x="168" y="-150" type="curve" smooth="yes"/>
      <point x="178" y="-135"/>
      <point x="181" y="-123"/>
      <point x="192" y="-59" type="curve" smooth="yes"/>
      <point x="244" y="239" type="line"/>
      <point x="192" y="246"/>
      <point x="166" y="255"/>
      <point x="130" y="279" type="curve" smooth="yes"/>
      <point x="57" y="328"/>
      <point x="14" y="412"/>
      <point x="14" y="505" type="curve" smooth="yes"/>
      <point x="14" y="621"/>
      <point x="77" y="681"/>
      <point x="198" y="681" type="curve" smooth="yes"/>
      <point x="206" y="681"/>
      <point x="225" y="681"/>
      <point x="251" y="680" type="curve" smooth="yes"/>
      <point x="273" y="679"/>
      <point x="373" y="678"/>
      <point x="400" y="678" type="curve" smooth="yes"/>
      <point x="419" y="678" type="line"/>
      <point x="629" y="681" type="line"/>
      <point x="622" y="645" type="line"/>
      <point x="558" y="642" type="line" smooth="yes"/>
      <point x="539" y="641"/>
      <point x="533" y="634"/>
      <point x="528" y="606" type="curve" smooth="yes"/>
      <point x="402" y="-103" type="line"/>
      <point x="402" y="-105" type="line"/>
      <point x="401" y="-108" type="line"/>
      <point x="400" y="-118"/>
      <point x="399" y="-126"/>
      <point x="399" y="-133" type="curve" smooth="yes"/>
      <point x="399" y="-157"/>
      <point x="422" y="-169"/>
      <point x="466" y="-169" type="curve" smooth="yes"/>
      <point x="495" y="-169" type="line"/>
      <point x="492" y="-204" type="line"/>
      <point x="303" y="-201" type="line" smooth="yes"/>
      <point x="267" y="-201"/>
      <point x="152" y="-203"/>
    </contour>
    <contour>
      <point x="457" y="634" type="line"/>
      <point x="389" y="634" type="line"/>
      <point x="249" y="-159" type="line"/>
      <point x="317" y="-159" type="line"/>
    </contour>
    <contour>
      <point x="251" y="278" type="curve"/>
      <point x="314" y="642" type="line"/>
      <point x="289" y="646"/>
      <point x="277" y="647"/>
      <point x="261" y="647" type="curve" smooth="yes"/>
      <point x="191" y="647"/>
      <point x="157" y="593"/>
      <point x="157" y="480" type="curve" smooth="yes"/>
      <point x="157" y="374"/>
      <point x="193" y="298"/>
    </contour>
  </outline>
</glyph>
<glyph name="onehalf" format="1">
  <advance width="750"/>
  <unicode hex="00BD"/>
  <outline>
    <contour>
      <point x="213" y="0" type="line"/>
      <point x="144" y="0" type="line"/>
      <point x="583" y="683" type="line"/>
      <point x="652" y="683" type="line"/>
    </contour>
    <contour>
      <point x="14" y="271" type="curve"/>
      <point x="20" y="299" type="line"/>
      <point x="47" y="301" type="line" smooth="yes"/>
      <point x="88" y="304"/>
      <point x="92" y="307"/>
      <point x="102" y="336" type="curve"/>
      <point x="154" y="612" type="line"/>
      <point x="41" y="565" type="line"/>
      <point x="32" y="578" type="line"/>
      <point x="43" y="616" type="line"/>
      <point x="173" y="654" type="line" smooth="yes"/>
      <point x="192" y="660"/>
      <point x="213" y="668"/>
      <point x="240" y="680" type="curve"/>
      <point x="255" y="675" type="line"/>
      <point x="253" y="666"/>
      <point x="251" y="658"/>
      <point x="251" y="656" type="curve" smooth="yes"/>
      <point x="250" y="653"/>
      <point x="249" y="647"/>
      <point x="247" y="637" type="curve" smooth="yes"/>
      <point x="191" y="341" type="line" smooth="yes"/>
      <point x="189" y="331"/>
      <point x="188" y="324"/>
      <point x="188" y="323" type="curve" smooth="yes"/>
      <point x="191" y="304"/>
      <point x="195" y="302"/>
      <point x="225" y="301" type="curve" smooth="yes"/>
      <point x="271" y="299" type="line"/>
      <point x="265" y="271" type="line"/>
      <point x="222" y="272"/>
      <point x="162" y="273"/>
      <point x="140" y="273" type="curve" smooth="yes"/>
      <point x="118" y="273"/>
      <point x="57" y="272"/>
    </contour>
    <contour>
      <point x="441" y="-2" type="curve"/>
      <point x="441" y="21" type="line"/>
      <point x="526" y="102" type="line" smooth="yes"/>
      <point x="605" y="177"/>
      <point x="646" y="243"/>
      <point x="646" y="294" type="curve" smooth="yes"/>
      <point x="646" y="326"/>
      <point x="620" y="350"/>
      <point x="585" y="350" type="curve" smooth="yes"/>
      <point x="559" y="350"/>
      <point x="538" y="338"/>
      <point x="524" y="315" type="curve" smooth="yes"/>
      <point x="506" y="285" type="line"/>
      <point x="476" y="294" type="line"/>
      <point x="516" y="379" type="line"/>
      <point x="552" y="401"/>
      <point x="580" y="410"/>
      <point x="614" y="410" type="curve" smooth="yes"/>
      <point x="685" y="410"/>
      <point x="733" y="369"/>
      <point x="733" y="307" type="curve" smooth="yes"/>
      <point x="733" y="264"/>
      <point x="713" y="225"/>
      <point x="670" y="184" type="curve" smooth="yes"/>
      <point x="542" y="63" type="line"/>
      <point x="677" y="63" type="line" smooth="yes"/>
      <point x="695" y="63"/>
      <point x="709" y="64"/>
      <point x="730" y="68" type="curve"/>
      <point x="736" y="60" type="line"/>
      <point x="727" y="45"/>
      <point x="721" y="29"/>
      <point x="714" y="-2" type="curve"/>
      <point x="617" y="0"/>
      <point x="615" y="0"/>
      <point x="580" y="0" type="curve" smooth="yes"/>
      <point x="545" y="0"/>
      <point x="545" y="0"/>
    </contour>
  </outline>
</glyph>
<glyph name="Atilde" format="1">
  <advance width="722"/>
  <unicode hex="00C3"/>
  <outline>
    <contour>
      <point x="414" y="683" type="line"/>
      <point x="510" y="683" type="line"/>
      <point x="512" y="663"/>
      <point x="514" y="647"/>
      <point x="515" y="640" type="curve" smooth="yes"/>
      <point x="517" y="618"/>
      <point x="518" y="615"/>
      <point x="518" y="612" type="curve" smooth="yes"/>
      <point x="594" y="90" type="line" smooth="yes"/>
      <point x="600" y="54"/>
      <point x="616" y="38"/>
      <point x="648" y="35" type="curve" smooth="yes"/>
      <point x="685" y="32" type="line"/>
      <point x="685" y="-3" type="line"/>
      <point x="600" y="-1"/>
      <point x="564" y="0"/>
      <point x="539" y="0" type="curve" smooth="yes"/>
      <point x="509" y="0"/>
      <point x="509" y="0"/>
      <point x="384" y="-3" type="curve"/>
      <point x="384" y="32" type="line"/>
      <point x="426" y="35" type="line" smooth="yes"/>
      <point x="454" y="37"/>
      <point x="469" y="48"/>
      <point x="468" y="66" type="curve"/>
      <point x="443" y="264" type="line"/>
      <point x="406" y="265" type="line" smooth="yes"/>
      <point x="372" y="266"/>
      <point x="354" y="267"/>
      <point x="343" y="267" type="curve" smooth="yes"/>
      <point x="333" y="267" type="line"/>
      <point x="222" y="264" type="line"/>
      <point x="136" y="112" type="line" smooth="yes"/>
      <point x="122" y="87"/>
      <point x="117" y="72"/>
      <point x="117" y="55" type="curve" smooth="yes"/>
      <point x="117" y="43"/>
      <point x="131" y="37"/>
      <point x="160" y="35" type="curve" smooth="yes"/>
      <point x="204" y="32" type="line"/>
      <point x="199" y="-3" type="line"/>
      <point x="178" y="-2"/>
      <point x="150" y="-2"/>
      <point x="143" y="-1" type="curve" smooth="yes"/>
      <point x="103" y="0"/>
      <point x="93" y="0"/>
      <point x="85" y="0" type="curve" smooth="yes"/>
      <point x="-35" y="-3" type="line"/>
      <point x="-30" y="32" type="line"/>
      <point x="4" y="35" type="line" smooth="yes"/>
      <point x="22" y="36"/>
      <point x="37" y="48"/>
      <point x="51" y="70" type="curve" smooth="yes"/>
    </contour>
    <contour>
      <point x="400" y="573" type="line"/>
      <point x="245" y="307" type="line"/>
      <point x="438" y="307" type="line"/>
    </contour>
    <contour>
      <point x="329" y="747" type="curve"/>
      <point x="289" y="747" type="line"/>
      <point x="307" y="826"/>
      <point x="347" y="866"/>
      <point x="407" y="866" type="curve" smooth="yes"/>
      <point x="433" y="866"/>
      <point x="450" y="862"/>
      <point x="483" y="847" type="curve" smooth="yes"/>
      <point x="516" y="832"/>
      <point x="541" y="824"/>
      <point x="558" y="824" type="curve" smooth="yes"/>
      <point x="580" y="824"/>
      <point x="593" y="835"/>
      <point x="607" y="866" type="curve"/>
      <point x="648" y="866" type="line"/>
      <point x="627" y="785"/>
      <point x="590" y="747"/>
      <point x="533" y="747" type="curve" smooth="yes"/>
      <point x="510" y="747"/>
      <point x="497" y="751"/>
      <point x="451" y="769" type="curve" smooth="yes"/>
      <point x="409" y="786"/>
      <point x="392" y="791"/>
      <point x="375" y="791" type="curve" smooth="yes"/>
      <point x="355" y="791"/>
      <point x="344" y="781"/>
    </contour>
  </outline>
</glyph>
<glyph name="Adieresis" format="1">
  <advance width="722"/>
  <unicode hex="00C4"/>
  <outline>
    <contour>
      <point x="414" y="683" type="line"/>
      <point x="510" y="683" type="line"/>
      <point x="512" y="663"/>
      <point x="514" y="647"/>
      <point x="515" y="640" type="curve" smooth="yes"/>
      <point x="517" y="618"/>
      <point x="518" y="615"/>
      <point x="518" y="612" type="curve" smooth="yes"/>
      <point x="594" y="90" type="line" smooth="yes"/>
      <point x="600" y="54"/>
      <point x="616" y="38"/>
      <point x="648" y="35" type="curve" smooth="yes"/>
      <point x="685" y="32" type="line"/>
      <point x="685" y="-3" type="line"/>
      <point x="600" y="-1"/>
      <point x="564" y="0"/>
      <point x="539" y="0" type="curve" smooth="yes"/>
      <point x="509" y="0"/>
      <point x="509" y="0"/>
      <point x="384" y="-3" type="curve"/>
      <point x="384" y="32" type="line"/>
      <point x="426" y="35" type="line" smooth="yes"/>
      <point x="454" y="37"/>
      <point x="469" y="48"/>
      <point x="468" y="66" type="curve"/>
      <point x="443" y="264" type="line"/>
      <point x="406" y="265" type="line" smooth="yes"/>
      <point x="372" y="266"/>
      <point x="354" y="267"/>
      <point x="343" y="267" type="curve" smooth="yes"/>
      <point x="333" y="267" type="line"/>
      <point x="222" y="264" type="line"/>
      <point x="136" y="112" type="line" smooth="yes"/>
      <point x="122" y="87"/>
      <point x="117" y="72"/>
      <point x="117" y="55" type="curve" smooth="yes"/>
      <point x="117" y="43"/>
      <point x="131" y="37"/>
      <point x="160" y="35" type="curve" smooth="yes"/>
      <point x="204" y="32" type="line"/>
      <point x="199" y="-3" type="line"/>
      <point x="178" y="-2"/>
      <point x="150" y="-2"/>
      <point x="143" y="-1" type="curve" smooth="yes"/>
      <point x="103" y="0"/>
      <point x="93" y="0"/>
      <point x="85" y="0" type="curve" smooth="yes"/>
      <point x="-35" y="-3" type="line"/>
      <point x="-30" y="32" type="line"/>
      <point x="4" y="35" type="line" smooth="yes"/>
      <point x="22" y="36"/>
      <point x="37" y="48"/>
      <point x="51" y="70" type="curve" smooth="yes"/>
    </contour>
    <contour>
      <point x="400" y="573" type="line"/>
      <point x="245" y="307" type="line"/>
      <point x="438" y="307" type="line"/>
    </contour>
    <contour>
      <point x="593" y="880" type="curve" smooth="yes"/>
      <point x="626" y="880"/>
      <point x="649" y="855"/>
      <point x="649" y="820" type="curve" smooth="yes"/>
      <point x="649" y="779"/>
      <point x="620" y="749"/>
      <point x="580" y="749" type="curve" smooth="yes"/>
      <point x="547" y="749"/>
      <point x="526" y="771"/>
      <point x="526" y="806" type="curve" smooth="yes"/>
      <point x="526" y="847"/>
      <point x="556" y="880"/>
    </contour>
    <contour>
      <point x="380" y="880" type="curve" smooth="yes"/>
      <point x="413" y="880"/>
      <point x="436" y="855"/>
      <point x="436" y="820" type="curve" smooth="yes"/>
      <point x="436" y="779"/>
      <point x="407" y="749"/>
      <point x="367" y="749" type="curve" smooth="yes"/>
      <point x="334" y="749"/>
      <point x="313" y="771"/>
      <point x="313" y="806" type="curve" smooth="yes"/>
      <point x="313" y="847"/>
      <point x="343" y="880"/>
    </contour>
  </outline>
</glyph>
<glyph name="AE" format="1">
  <advance width="944"/>
  <unicode hex="00C6"/>
  <outline>
    <contour>
      <point x="594" y="330" type="line"/>
      <point x="547" y="56" type="line"/>
      <point x="572" y="51"/>
      <point x="584" y="50"/>
      <point x="610" y="50" type="curve" smooth="yes"/>
      <point x="623" y="50"/>
      <point x="634" y="50"/>
      <point x="645" y="51" type="curve" smooth="yes"/>
      <point x="677" y="52" type="line"/>
      <point x="805" y="54"/>
      <point x="817" y="58"/>
      <point x="831" y="98" type="curve"/>
      <point x="853" y="168" type="line"/>
      <point x="889" y="168" type="line"/>
      <point x="878" y="123"/>
      <point x="871" y="88"/>
      <point x="855" y="0" type="curve"/>
      <point x="758" y="-3"/>
      <point x="712" y="-4"/>
      <point x="683" y="-4" type="curve" smooth="yes"/>
      <point x="667" y="-4"/>
      <point x="653" y="-4"/>
      <point x="596" y="-2" type="curve" smooth="yes"/>
      <point x="555" y="-1"/>
      <point x="496" y="0"/>
      <point x="480" y="0" type="curve" smooth="yes"/>
      <point x="448" y="0"/>
      <point x="447" y="0"/>
      <point x="348" y="-3" type="curve"/>
      <point x="354" y="29" type="line"/>
      <point x="394" y="32" type="line" smooth="yes"/>
      <point x="414" y="33"/>
      <point x="421" y="45"/>
      <point x="430" y="91" type="curve" smooth="yes"/>
      <point x="460" y="262" type="line"/>
      <point x="423" y="263" type="line" smooth="yes"/>
      <point x="389" y="264"/>
      <point x="371" y="265"/>
      <point x="360" y="265" type="curve" smooth="yes"/>
      <point x="350" y="265" type="line"/>
      <point x="239" y="262" type="line"/>
      <point x="139" y="92" type="line"/>
      <point x="138" y="90" type="line"/>
      <point x="127" y="73"/>
      <point x="124" y="66"/>
      <point x="124" y="57" type="curve" smooth="yes"/>
      <point x="124" y="40"/>
      <point x="133" y="34"/>
      <point x="160" y="32" type="curve" smooth="yes"/>
      <point x="210" y="29" type="line"/>
      <point x="205" y="-3" type="line"/>
      <point x="181" y="-3" type="line" smooth="yes"/>
      <point x="160" y="-3"/>
      <point x="142" y="-2"/>
      <point x="126" y="0" type="curve" smooth="yes"/>
      <point x="117" y="1"/>
      <point x="110" y="1"/>
      <point x="108" y="1" type="curve" smooth="yes"/>
      <point x="88" y="0" type="line"/>
      <point x="-29" y="-3" type="line"/>
      <point x="-24" y="29" type="line"/>
      <point x="2" y="34" type="line" smooth="yes"/>
      <point x="31" y="40"/>
      <point x="59" y="66"/>
      <point x="96" y="122" type="curve" smooth="yes"/>
      <point x="387" y="573" type="line" smooth="yes"/>
      <point x="408" y="605"/>
      <point x="414" y="617"/>
      <point x="414" y="624" type="curve" smooth="yes"/>
      <point x="414" y="637"/>
      <point x="402" y="645"/>
      <point x="381" y="646" type="curve" smooth="yes"/>
      <point x="311" y="649" type="line"/>
      <point x="316" y="681" type="line"/>
      <point x="550" y="678"/>
      <point x="550" y="678"/>
      <point x="572" y="678" type="curve" smooth="yes"/>
      <point x="612" y="678"/>
      <point x="624" y="678"/>
      <point x="731" y="681" type="curve"/>
      <point x="768" y="681" type="line" smooth="yes"/>
      <point x="787" y="681"/>
      <point x="787" y="681"/>
      <point x="917" y="678" type="curve"/>
      <point x="927" y="672" type="line"/>
      <point x="915" y="608"/>
      <point x="910" y="575"/>
      <point x="902" y="520" type="curve"/>
      <point x="870" y="520" type="line"/>
      <point x="870" y="573" type="line" smooth="yes"/>
      <point x="870" y="607"/>
      <point x="867" y="617"/>
      <point x="856" y="619" type="curve" smooth="yes"/>
      <point x="830" y="626"/>
      <point x="713" y="635"/>
      <point x="686" y="633" type="curve" smooth="yes"/>
      <point x="647" y="630" type="line"/>
      <point x="602" y="378" type="line"/>
      <point x="688" y="378" type="line" smooth="yes"/>
      <point x="739" y="378"/>
      <point x="773" y="379"/>
      <point x="828" y="381" type="curve"/>
      <point x="833" y="372" type="line"/>
      <point x="819" y="325" type="line"/>
      <point x="714" y="329"/>
      <point x="681" y="330"/>
      <point x="649" y="330" type="curve" smooth="yes"/>
    </contour>
    <contour>
      <point x="270" y="308" type="line"/>
      <point x="467" y="308" type="line"/>
      <point x="517" y="589" type="line" smooth="yes"/>
      <point x="520" y="603"/>
      <point x="521" y="616"/>
      <point x="521" y="625" type="curve" smooth="yes"/>
      <point x="521" y="633"/>
      <point x="516" y="639"/>
      <point x="508" y="639" type="curve" smooth="yes"/>
      <point x="489" y="639"/>
      <point x="466" y="617"/>
      <point x="436" y="570" type="curve" smooth="yes"/>
    </contour>
  </outline>
</glyph>
<glyph name="Ntilde" format="1">
  <advance width="778"/>
  <unicode hex="00D1"/>
  <outline>
    <contour>
      <point x="620" y="-3" type="curve"/>
      <point x="535" y="-3" type="line"/>
      <point x="225" y="534" type="line"/>
      <point x="152" y="138" type="line" smooth="yes"/>
      <point x="147" y="111"/>
      <point x="144" y="88"/>
      <point x="144" y="76" type="curve" smooth="yes"/>
      <point x="144" y="50"/>
      <point x="156" y="36"/>
      <point x="180" y="35" type="curve" smooth="yes"/>
      <point x="231" y="32" type="line"/>
      <point x="226" y="-3" type="line"/>
      <point x="133" y="0"/>
      <point x="133" y="0"/>
      <point x="114" y="0" type="curve" smooth="yes"/>
      <point x="95" y="0"/>
      <point x="95" y="0"/>
      <point x="-2" y="-3" type="curve"/>
      <point x="0" y="32" type="line"/>
      <point x="48" y="35" type="line" smooth="yes"/>
      <point x="70" y="36"/>
      <point x="80" y="50"/>
      <point x="88" y="91" type="curve" smooth="yes"/>
      <point x="185" y="578" type="line"/>
      <point x="186" y="582" type="line" smooth="yes"/>
      <point x="188" y="592"/>
      <point x="171" y="617"/>
      <point x="153" y="629" type="curve" smooth="yes"/>
      <point x="139" y="638"/>
      <point x="119" y="645"/>
      <point x="103" y="646" type="curve" smooth="yes"/>
      <point x="64" y="649" type="line"/>
      <point x="67" y="681" type="line"/>
      <point x="112" y="679"/>
      <point x="156" y="678"/>
      <point x="174" y="678" type="curve" smooth="yes"/>
      <point x="192" y="678"/>
      <point x="192" y="678"/>
      <point x="282" y="681" type="curve"/>
      <point x="596" y="142" type="line"/>
      <point x="670" y="542" type="line" smooth="yes"/>
      <point x="673" y="561"/>
      <point x="676" y="590"/>
      <point x="676" y="612" type="curve" smooth="yes"/>
      <point x="676" y="633"/>
      <point x="661" y="644"/>
      <point x="630" y="646" type="curve" smooth="yes"/>
      <point x="588" y="649" type="line"/>
      <point x="593" y="681" type="line"/>
      <point x="691" y="678"/>
      <point x="691" y="678"/>
      <point x="711" y="678" type="curve" smooth="yes"/>
      <point x="731" y="678"/>
      <point x="731" y="678"/>
      <point x="829" y="681" type="curve"/>
      <point x="823" y="649" type="line"/>
      <point x="786" y="646" type="line" smooth="yes"/>
      <point x="767" y="644"/>
      <point x="760" y="642"/>
      <point x="752" y="636" type="curve" smooth="yes"/>
      <point x="744" y="629"/>
      <point x="739" y="612"/>
      <point x="722" y="528" type="curve" smooth="yes"/>
      <point x="636" y="100" type="line" smooth="yes"/>
      <point x="629" y="67"/>
      <point x="625" y="37"/>
    </contour>
    <contour>
      <point x="357" y="747" type="curve"/>
      <point x="317" y="747" type="line"/>
      <point x="335" y="826"/>
      <point x="375" y="866"/>
      <point x="435" y="866" type="curve" smooth="yes"/>
      <point x="461" y="866"/>
      <point x="478" y="862"/>
      <point x="511" y="847" type="curve" smooth="yes"/>
      <point x="544" y="832"/>
      <point x="569" y="824"/>
      <point x="586" y="824" type="curve" smooth="yes"/>
      <point x="608" y="824"/>
      <point x="621" y="835"/>
      <point x="635" y="866" type="curve"/>
      <point x="676" y="866" type="line"/>
      <point x="655" y="785"/>
      <point x="618" y="747"/>
      <point x="561" y="747" type="curve" smooth="yes"/>
      <point x="538" y="747"/>
      <point x="525" y="751"/>
      <point x="479" y="769" type="curve" smooth="yes"/>
      <point x="437" y="786"/>
      <point x="420" y="791"/>
      <point x="403" y="791" type="curve" smooth="yes"/>
      <point x="383" y="791"/>
      <point x="372" y="781"/>
    </contour>
  </outline>
</glyph>
<glyph name="Otilde" format="1">
  <advance width="833"/>
  <unicode hex="00D5"/>
  <outline>
    <contour>
      <point x="493" y="695" type="curve" smooth="yes"/>
      <point x="588" y="695"/>
      <point x="667" y="666"/>
      <point x="721" y="612" type="curve" smooth="yes"/>
      <point x="770" y="563"/>
      <point x="794" y="499"/>
      <point x="794" y="414" type="curve" smooth="yes"/>
      <point x="794" y="170"/>
      <point x="608" y="-17"/>
      <point x="365" y="-17" type="curve" smooth="yes"/>
      <point x="182" y="-17"/>
      <point x="76" y="87"/>
      <point x="76" y="268" type="curve" smooth="yes"/>
      <point x="76" y="518"/>
      <point x="249" y="695"/>
    </contour>
    <contour>
      <point x="480" y="652" type="curve" smooth="yes"/>
      <point x="394" y="652"/>
      <point x="332" y="616"/>
      <point x="285" y="537" type="curve" smooth="yes"/>
      <point x="243" y="467"/>
      <point x="214" y="346"/>
      <point x="214" y="239" type="curve" smooth="yes"/>
      <point x="214" y="99"/>
      <point x="274" y="26"/>
      <point x="388" y="26" type="curve" smooth="yes"/>
      <point x="473" y="26"/>
      <point x="541" y="69"/>
      <point x="589" y="153" type="curve" smooth="yes"/>
      <point x="631" y="226"/>
      <point x="656" y="332"/>
      <point x="656" y="435" type="curve" smooth="yes"/>
      <point x="656" y="579"/>
      <point x="596" y="652"/>
    </contour>
    <contour>
      <point x="373" y="747" type="curve"/>
      <point x="333" y="747" type="line"/>
      <point x="351" y="826"/>
      <point x="391" y="866"/>
      <point x="451" y="866" type="curve" smooth="yes"/>
      <point x="477" y="866"/>
      <point x="494" y="862"/>
      <point x="527" y="847" type="curve" smooth="yes"/>
      <point x="560" y="832"/>
      <point x="585" y="824"/>
      <point x="602" y="824" type="curve" smooth="yes"/>
      <point x="624" y="824"/>
      <point x="637" y="835"/>
      <point x="651" y="866" type="curve"/>
      <point x="692" y="866" type="line"/>
      <point x="671" y="785"/>
      <point x="634" y="747"/>
      <point x="577" y="747" type="curve" smooth="yes"/>
      <point x="554" y="747"/>
      <point x="541" y="751"/>
      <point x="495" y="769" type="curve" smooth="yes"/>
      <point x="453" y="786"/>
      <point x="436" y="791"/>
      <point x="419" y="791" type="curve" smooth="yes"/>
      <point x="399" y="791"/>
      <point x="388" y="781"/>
    </contour>
  </outline>
</glyph>
<glyph name="Uacute" format="1">
  <advance width="778"/>
  <unicode hex="00DA"/>
  <outline>
    <contour>
      <point x="497" y="-3" type="curve"/>
      <point x="492" y="5" type="line"/>
      <point x="501" y="45"/>
      <point x="506" y="68"/>
      <point x="519" y="133" type="curve"/>
      <point x="461" y="72"/>
      <point x="438" y="50"/>
      <point x="403" y="26" type="curve" smooth="yes"/>
      <point x="364" y="-2"/>
      <point x="317" y="-17"/>
      <point x="271" y="-17" type="curve" smooth="yes"/>
      <point x="209" y="-17"/>
      <point x="155" y="8"/>
      <point x="124" y="51" type="curve"/>
      <point x="104" y="77"/>
      <point x="94" y="112"/>
      <point x="94" y="156" type="curve" smooth="yes"/>
      <point x="94" y="180"/>
      <point x="97" y="206"/>
      <point x="102" y="234" type="curve" smooth="yes"/>
      <point x="160" y="541" type="line"/>
      <point x="161" y="548" type="line" smooth="yes"/>
      <point x="162" y="550"/>
      <point x="162" y="552"/>
      <point x="162" y="555" type="curve" smooth="yes"/>
      <point x="168" y="582"/>
      <point x="171" y="605"/>
      <point x="171" y="617" type="curve" smooth="yes"/>
      <point x="171" y="633"/>
      <point x="159" y="642"/>
      <point x="134" y="643" type="curve" smooth="yes"/>
      <point x="83" y="646" type="line"/>
      <point x="88" y="681" type="line"/>
      <point x="142" y="680" type="line" smooth="yes"/>
      <point x="182" y="679"/>
      <point x="209" y="678"/>
      <point x="220" y="678" type="curve" smooth="yes"/>
      <point x="246" y="678"/>
      <point x="260" y="678"/>
      <point x="307" y="681" type="curve"/>
      <point x="313" y="674" type="line"/>
      <point x="227" y="214" type="line" smooth="yes"/>
      <point x="225" y="203"/>
      <point x="224" y="192"/>
      <point x="224" y="178" type="curve" smooth="yes"/>
      <point x="224" y="150"/>
      <point x="229" y="124"/>
      <point x="238" y="110" type="curve" smooth="yes"/>
      <point x="255" y="81"/>
      <point x="290" y="63"/>
      <point x="327" y="63" type="curve" smooth="yes"/>
      <point x="356" y="63"/>
      <point x="385" y="72"/>
      <point x="421" y="93" type="curve" smooth="yes"/>
      <point x="469" y="121"/>
      <point x="518" y="164"/>
      <point x="521" y="182" type="curve" smooth="yes"/>
      <point x="586" y="541" type="line" smooth="yes"/>
      <point x="586" y="543"/>
      <point x="587" y="546"/>
      <point x="588" y="550" type="curve" smooth="yes"/>
      <point x="589" y="561"/>
      <point x="591" y="568"/>
      <point x="591" y="571" type="curve" smooth="yes"/>
      <point x="595" y="590"/>
      <point x="597" y="606"/>
      <point x="597" y="617" type="curve" smooth="yes"/>
      <point x="597" y="633"/>
      <point x="585" y="642"/>
      <point x="560" y="643" type="curve" smooth="yes"/>
      <point x="509" y="646" type="line"/>
      <point x="514" y="681" type="line"/>
      <point x="644" y="678"/>
      <point x="644" y="678"/>
      <point x="666" y="678" type="curve" smooth="yes"/>
      <point x="688" y="678"/>
      <point x="688" y="678"/>
      <point x="825" y="681" type="curve"/>
      <point x="820" y="646" type="line"/>
      <point x="774" y="643" type="line" smooth="yes"/>
      <point x="739" y="641"/>
      <point x="732" y="635"/>
      <point x="725" y="599" type="curve" smooth="yes"/>
      <point x="635" y="100" type="line" smooth="yes"/>
      <point x="632" y="85"/>
      <point x="631" y="74"/>
      <point x="631" y="65" type="curve" smooth="yes"/>
      <point x="631" y="44"/>
      <point x="641" y="36"/>
      <point x="667" y="35" type="curve" smooth="yes"/>
      <point x="726" y="32" type="line"/>
      <point x="721" y="-3" type="line"/>
      <point x="619" y="0"/>
      <point x="619" y="0"/>
      <point x="603" y="0" type="curve" smooth="yes"/>
      <point x="585" y="0"/>
      <point x="585" y="0"/>
    </contour>
    <contour>
      <point x="408" y="730" type="line"/>
      <point x="549" y="881" type="line" smooth="yes"/>
      <point x="569" y="902"/>
      <point x="584" y="911"/>
      <point x="600" y="911" type="curve" smooth="yes"/>
      <point x="626" y="911"/>
      <point x="647" y="891"/>
      <point x="647" y="866" type="curve" smooth="yes"/>
      <point x="647" y="846"/>
      <point x="639" y="835"/>
      <point x="611" y="819" type="curve" smooth="yes"/>
      <point x="457" y="730" type="line"/>
    </contour>
  </outline>
</glyph>
<glyph name="Thorn" format="1">
  <advance width="667"/>
  <unicode hex="00DE"/>
  <outline>
    <contour>
      <point x="15" y="32" type="line"/>
      <point x="64" y="35" type="line" smooth="yes"/>
      <point x="97" y="37"/>
      <point x="102" y="47"/>
      <point x="118" y="132" type="curve"/>
      <point x="190" y="541" type="line" smooth="yes"/>
      <point x="196" y="575"/>
      <point x="199" y="599"/>
      <point x="199" y="613" type="curve" smooth="yes"/>
      <point x="199" y="632"/>
      <point x="187" y="641"/>
      <point x="161" y="643" type="curve" smooth="yes"/>
      <point x="109" y="646" type="line"/>
      <point x="113" y="681" type="line"/>
      <point x="243" y="678"/>
      <point x="243" y="678"/>
      <point x="265" y="678" type="curve" smooth="yes"/>
      <point x="287" y="678"/>
      <point x="287" y="678"/>
      <point x="424" y="681" type="curve"/>
      <point x="420" y="646" type="line"/>
      <point x="375" y="643" type="line" smooth="yes"/>
      <point x="342" y="640"/>
      <point x="338" y="636"/>
      <point x="329" y="599" type="curve"/>
      <point x="317" y="540" type="line"/>
      <point x="431" y="543" type="line" smooth="yes"/>
      <point x="571" y="547"/>
      <point x="644" y="496"/>
      <point x="644" y="394" type="curve" smooth="yes"/>
      <point x="644" y="264"/>
      <point x="525" y="143"/>
      <point x="397" y="143" type="curve" smooth="yes"/>
      <point x="368" y="143"/>
      <point x="339" y="149"/>
      <point x="304" y="161" type="curve"/>
      <point x="302" y="196" type="line"/>
      <point x="325" y="188"/>
      <point x="346" y="184"/>
      <point x="368" y="184" type="curve" smooth="yes"/>
      <point x="407" y="184"/>
      <point x="437" y="198"/>
      <point x="463" y="230" type="curve" smooth="yes"/>
      <point x="493" y="267"/>
      <point x="512" y="322"/>
      <point x="512" y="376" type="curve" smooth="yes"/>
      <point x="512" y="463"/>
      <point x="470" y="500"/>
      <point x="371" y="500" type="curve" smooth="yes"/>
      <point x="352" y="500"/>
      <point x="335" y="499"/>
      <point x="308" y="497" type="curve"/>
      <point x="242" y="100" type="line" smooth="yes"/>
      <point x="240" y="88"/>
      <point x="239" y="76"/>
      <point x="239" y="65" type="curve" smooth="yes"/>
      <point x="239" y="45"/>
      <point x="249" y="36"/>
      <point x="276" y="35" type="curve" smooth="yes"/>
      <point x="335" y="32" type="line"/>
      <point x="331" y="-3" type="line"/>
      <point x="183" y="0"/>
      <point x="183" y="0"/>
      <point x="168" y="0" type="curve" smooth="yes"/>
      <point x="151" y="0"/>
      <point x="151" y="0"/>
      <point x="11" y="-3" type="curve"/>
    </contour>
  </outline>
</glyph>
<glyph name="ae" format="1">
  <advance width="738"/>
  <unicode hex="00E6"/>
  <outline>
    <contour>
      <point x="670" y="114" type="curve"/>
      <point x="680" y="86" type="line"/>
      <point x="668" y="78"/>
      <point x="663" y="75"/>
      <point x="651" y="68" type="curve" smooth="yes"/>
      <point x="552" y="3"/>
      <point x="502" y="-17"/>
      <point x="443" y="-17" type="curve" smooth="yes"/>
      <point x="379" y="-17"/>
      <point x="342" y="9"/>
      <point x="322" y="69" type="curve"/>
      <point x="237" y="-1"/>
      <point x="204" y="-17"/>
      <point x="149" y="-17" type="curve" smooth="yes"/>
      <point x="85" y="-17"/>
      <point x="44" y="21"/>
      <point x="44" y="80" type="curve" smooth="yes"/>
      <point x="44" y="131"/>
      <point x="71" y="184"/>
      <point x="109" y="210" type="curve" smooth="yes"/>
      <point x="145" y="234"/>
      <point x="206" y="251"/>
      <point x="259" y="251" type="curve" smooth="yes"/>
      <point x="339" y="251" type="line"/>
      <point x="339" y="295" type="line" smooth="yes"/>
      <point x="339" y="369"/>
      <point x="300" y="408"/>
      <point x="226" y="408" type="curve" smooth="yes"/>
      <point x="219" y="408"/>
      <point x="213" y="407"/>
      <point x="197" y="405" type="curve" smooth="yes"/>
      <point x="185" y="404"/>
      <point x="179" y="403"/>
      <point x="166" y="402" type="curve"/>
      <point x="142" y="335" type="line"/>
      <point x="123" y="339" type="line"/>
      <point x="116" y="413" type="line"/>
      <point x="172" y="455"/>
      <point x="208" y="469"/>
      <point x="266" y="469" type="curve" smooth="yes"/>
      <point x="343" y="469"/>
      <point x="386" y="440"/>
      <point x="409" y="372" type="curve"/>
      <point x="501" y="443"/>
      <point x="557" y="469"/>
      <point x="617" y="469" type="curve" smooth="yes"/>
      <point x="674" y="469"/>
      <point x="711" y="435"/>
      <point x="711" y="383" type="curve" smooth="yes"/>
      <point x="711" y="291"/>
      <point x="627" y="240"/>
      <point x="439" y="218" type="curve"/>
      <point x="436" y="193"/>
      <point x="435" y="170"/>
      <point x="435" y="141" type="curve" smooth="yes"/>
      <point x="435" y="77"/>
      <point x="458" y="47"/>
      <point x="508" y="47" type="curve" smooth="yes"/>
      <point x="549" y="47"/>
      <point x="595" y="66"/>
    </contour>
    <contour>
      <point x="335" y="222" type="curve"/>
      <point x="291" y="222" type="line" smooth="yes"/>
      <point x="207" y="222"/>
      <point x="149" y="177"/>
      <point x="149" y="113" type="curve" smooth="yes"/>
      <point x="149" y="75"/>
      <point x="169" y="56"/>
      <point x="208" y="56" type="curve" smooth="yes"/>
      <point x="282" y="56"/>
      <point x="330" y="118"/>
    </contour>
    <contour>
      <point x="443" y="248" type="curve"/>
      <point x="468" y="251"/>
      <point x="481" y="252"/>
      <point x="492" y="255" type="curve" smooth="yes"/>
      <point x="538" y="265"/>
      <point x="573" y="285"/>
      <point x="593" y="311" type="curve" smooth="yes"/>
      <point x="608" y="332"/>
      <point x="617" y="354"/>
      <point x="617" y="373" type="curve" smooth="yes"/>
      <point x="617" y="403"/>
      <point x="600" y="421"/>
      <point x="571" y="421" type="curve" smooth="yes"/>
      <point x="536" y="421"/>
      <point x="508" y="400"/>
      <point x="486" y="358" type="curve" smooth="yes"/>
      <point x="474" y="335"/>
      <point x="469" y="322"/>
    </contour>
  </outline>
</glyph>
<glyph name="ccedilla" format="1">
  <advance width="444"/>
  <unicode hex="00E7"/>
  <outline>
    <contour>
      <point x="226" y="-7" type="curve"/>
      <point x="188" y="-62" type="line"/>
      <point x="198" y="-60"/>
      <point x="205" y="-59"/>
      <point x="214" y="-59" type="curve" smooth="yes"/>
      <point x="267" y="-59"/>
      <point x="304" y="-89"/>
      <point x="304" y="-131" type="curve" smooth="yes"/>
      <point x="304" y="-182"/>
      <point x="252" y="-218"/>
      <point x="181" y="-218" type="curve" smooth="yes"/>
      <point x="142" y="-218"/>
      <point x="113" y="-212"/>
      <point x="68" y="-193" type="curve"/>
      <point x="90" y="-160" type="line"/>
      <point x="119" y="-173"/>
      <point x="135" y="-177"/>
      <point x="157" y="-177" type="curve" smooth="yes"/>
      <point x="191" y="-177"/>
      <point x="212" y="-162"/>
      <point x="212" y="-137" type="curve" smooth="yes"/>
      <point x="212" y="-113"/>
      <point x="195" y="-100"/>
      <point x="164" y="-100" type="curve" smooth="yes"/>
      <point x="154" y="-100"/>
      <point x="147" y="-101"/>
      <point x="135" y="-104" type="curve"/>
      <point x="122" y="-92" type="line"/>
      <point x="175" y="-16" type="line"/>
      <point x="168" y="-17"/>
      <point x="164" y="-17"/>
      <point x="159" y="-17" type="curve" smooth="yes"/>
      <point x="81" y="-17"/>
      <point x="32" y="36"/>
      <point x="32" y="119" type="curve" smooth="yes"/>
      <point x="32" y="191"/>
      <point x="56" y="286"/>
      <point x="85" y="332" type="curve" smooth="yes"/>
      <point x="103" y="360"/>
      <point x="137" y="389"/>
      <point x="190" y="420" type="curve"/>
      <point x="254" y="459"/>
      <point x="283" y="469"/>
      <point x="323" y="469" type="curve" smooth="yes"/>
      <point x="357" y="469"/>
      <point x="383" y="464"/>
      <point x="436" y="445" type="curve"/>
      <point x="422" y="408"/>
      <point x="417" y="388"/>
      <point x="401" y="304" type="curve"/>
      <point x="368" y="304" type="line"/>
      <point x="374" y="360" type="line"/>
      <point x="370" y="374" type="line"/>
      <point x="338" y="397"/>
      <point x="309" y="407"/>
      <point x="278" y="407" type="curve" smooth="yes"/>
      <point x="238" y="407"/>
      <point x="206" y="383"/>
      <point x="186" y="339" type="curve" smooth="yes"/>
      <point x="165" y="292"/>
      <point x="146" y="198"/>
      <point x="146" y="140" type="curve" smooth="yes"/>
      <point x="146" y="85"/>
      <point x="177" y="50"/>
      <point x="225" y="50" type="curve" smooth="yes"/>
      <point x="272" y="50"/>
      <point x="312" y="67"/>
      <point x="391" y="120" type="curve"/>
      <point x="401" y="90" type="line"/>
      <point x="319" y="33"/>
      <point x="275" y="8"/>
    </contour>
  </outline>
</glyph>
<glyph name="eth" format="1">
  <advance width="556"/>
  <unicode hex="00F0"/>
  <outline>
    <contour>
      <point x="546" y="665" type="line"/>
      <point x="417" y="601" type="line"/>
      <point x="477" y="507"/>
      <point x="502" y="425"/>
      <point x="502" y="319" type="curve" smooth="yes"/>
      <point x="502" y="199"/>
      <point x="459" y="103"/>
      <point x="380" y="44" type="curve" smooth="yes"/>
      <point x="327" y="5"/>
      <point x="262" y="-17"/>
      <point x="199" y="-17" type="curve" smooth="yes"/>
      <point x="98" y="-17"/>
      <point x="48" y="33"/>
      <point x="48" y="135" type="curve" smooth="yes"/>
      <point x="48" y="214"/>
      <point x="78" y="313"/>
      <point x="117" y="356" type="curve"/>
      <point x="177" y="426"/>
      <point x="267" y="469"/>
      <point x="349" y="469" type="curve" smooth="yes"/>
      <point x="366" y="469"/>
      <point x="375" y="467"/>
      <point x="392" y="460" type="curve"/>
      <point x="387" y="505"/>
      <point x="377" y="533"/>
      <point x="353" y="570" type="curve"/>
      <point x="215" y="501" type="line"/>
      <point x="196" y="536" type="line"/>
      <point x="327" y="601" type="line"/>
      <point x="299" y="634"/>
      <point x="277" y="653"/>
      <point x="236" y="678" type="curve"/>
      <point x="276" y="726" type="line"/>
      <point x="320" y="704"/>
      <point x="354" y="677"/>
      <point x="392" y="633" type="curve"/>
      <point x="528" y="700" type="line"/>
    </contour>
    <contour>
      <point x="308" y="425" type="curve" smooth="yes"/>
      <point x="275" y="425"/>
      <point x="247" y="408"/>
      <point x="223" y="374" type="curve" smooth="yes"/>
      <point x="188" y="324"/>
      <point x="162" y="220"/>
      <point x="162" y="130" type="curve" smooth="yes"/>
      <point x="162" y="67"/>
      <point x="193" y="27"/>
      <point x="243" y="27" type="curve" smooth="yes"/>
      <point x="275" y="27"/>
      <point x="303" y="44"/>
      <point x="327" y="78" type="curve" smooth="yes"/>
      <point x="362" y="128"/>
      <point x="388" y="233"/>
      <point x="388" y="323" type="curve" smooth="yes"/>
      <point x="388" y="385"/>
      <point x="356" y="425"/>
    </contour>
  </outline>
</glyph>
<glyph name="divide" format="1">
  <advance width="606"/>
  <unicode hex="00F7"/>
  <outline>
    <contour>
      <point x="50" y="204" type="line"/>
      <point x="50" y="292" type="line"/>
      <point x="556" y="292" type="line"/>
      <point x="556" y="204" type="line"/>
    </contour>
    <contour>
      <point x="303" y="501" type="curve" smooth="yes"/>
      <point x="338" y="501"/>
      <point x="367" y="471"/>
      <point x="367" y="435" type="curve" smooth="yes"/>
      <point x="367" y="400"/>
      <point x="338" y="372"/>
      <point x="303" y="372" type="curve" smooth="yes"/>
      <point x="268" y="372"/>
      <point x="238" y="401"/>
      <point x="238" y="436" type="curve" smooth="yes"/>
      <point x="238" y="471"/>
      <point x="268" y="501"/>
    </contour>
    <contour>
      <point x="303" y="124" type="curve" smooth="yes"/>
      <point x="338" y="124"/>
      <point x="367" y="94"/>
      <point x="367" y="58" type="curve" smooth="yes"/>
      <point x="367" y="24"/>
      <point x="338" y="-5"/>
      <point x="303" y="-5" type="curve" smooth="yes"/>
      <point x="268" y="-5"/>
      <point x="238" y="24"/>
      <point x="238" y="59" type="curve" smooth="yes"/>
      <point x="238" y="94"/>
      <point x="268" y="124"/>
    </contour>
  </outline>
</glyph>
<glyph name="yacute" format="1">
  <advance width="556"/>
  <unicode hex="00FD"/>
  <outline>
    <contour>
      <point x="27" y="329" type="curve"/>
      <point x="13" y="357" type="line"/>
      <point x="93" y="419" type="line" smooth="yes"/>
      <point x="132" y="449"/>
      <point x="173" y="469"/>
      <point x="196" y="469" type="curve" smooth="yes"/>
      <point x="220" y="469"/>
      <point x="235" y="445"/>
      <point x="235" y="406" type="curve" smooth="yes"/>
      <point x="235" y="382"/>
      <point x="233" y="354"/>
      <point x="230" y="326" type="curve" smooth="yes"/>
      <point x="211" y="163" type="line" smooth="yes"/>
      <point x="208" y="138"/>
      <point x="207" y="123"/>
      <point x="207" y="108" type="curve" smooth="yes"/>
      <point x="207" y="82"/>
      <point x="213" y="67"/>
      <point x="224" y="67" type="curve" smooth="yes"/>
      <point x="254" y="67"/>
      <point x="305" y="123"/>
      <point x="347" y="202" type="curve" smooth="yes"/>
      <point x="388" y="279"/>
      <point x="417" y="378"/>
      <point x="419" y="447" type="curve"/>
      <point x="452" y="446"/>
      <point x="486" y="452"/>
      <point x="529" y="465" type="curve"/>
      <point x="541" y="453" type="line"/>
      <point x="522" y="412"/>
      <point x="500" y="340"/>
      <point x="457" y="185" type="curve"/>
      <point x="406" y="-4"/>
      <point x="392" y="-43"/>
      <point x="341" y="-122" type="curve"/>
      <point x="283" y="-214"/>
      <point x="198" y="-271"/>
      <point x="119" y="-271" type="curve" smooth="yes"/>
      <point x="84" y="-271"/>
      <point x="51" y="-254"/>
      <point x="36" y="-227" type="curve"/>
      <point x="27" y="-213"/>
      <point x="24" y="-200"/>
      <point x="21" y="-174" type="curve"/>
      <point x="83" y="-134" type="line"/>
      <point x="101" y="-140" type="line"/>
      <point x="100" y="-147"/>
      <point x="100" y="-156"/>
      <point x="100" y="-159" type="curve" smooth="yes"/>
      <point x="100" y="-201"/>
      <point x="123" y="-225"/>
      <point x="162" y="-225" type="curve" smooth="yes"/>
      <point x="227" y="-225"/>
      <point x="275" y="-154"/>
      <point x="314" y="4" type="curve" smooth="yes"/>
      <point x="355" y="170" type="line"/>
      <point x="316" y="101"/>
      <point x="294" y="73"/>
      <point x="255" y="39" type="curve" smooth="yes"/>
      <point x="215" y="4"/>
      <point x="175" y="-17"/>
      <point x="147" y="-17" type="curve" smooth="yes"/>
      <point x="120" y="-17"/>
      <point x="100" y="20"/>
      <point x="100" y="70" type="curve" smooth="yes"/>
      <point x="100" y="90"/>
      <point x="102" y="114"/>
      <point x="106" y="155" type="curve" smooth="yes"/>
      <point x="125" y="337" type="line" smooth="yes"/>
      <point x="126" y="343"/>
      <point x="126" y="348"/>
      <point x="126" y="351" type="curve" smooth="yes"/>
      <point x="126" y="363"/>
      <point x="119" y="370"/>
      <point x="108" y="370" type="curve" smooth="yes"/>
      <point x="88" y="370"/>
      <point x="61" y="356"/>
    </contour>
    <contour>
      <point x="265" y="518" type="line"/>
      <point x="406" y="669" type="line" smooth="yes"/>
      <point x="426" y="690"/>
      <point x="441" y="699"/>
      <point x="457" y="699" type="curve" smooth="yes"/>
      <point x="483" y="699"/>
      <point x="504" y="679"/>
      <point x="504" y="654" type="curve" smooth="yes"/>
      <point x="504" y="634"/>
      <point x="496" y="623"/>
      <point x="468" y="607" type="curve" smooth="yes"/>
      <point x="314" y="518" type="line"/>
    </contour>
  </outline>
</glyph>
<glyph name="thorn" format="1">
  <advance width="556"/>
  <unicode hex="00FE"/>
  <outline>
    <contour>
      <point x="-11" y="-271" type="curve"/>
      <point x="-21" y="-264" type="line"/>
      <point x="13" y="-152"/>
      <point x="26" y="-103"/>
      <point x="36" y="-52" type="curve" smooth="yes"/>
      <point x="160" y="596" type="line" smooth="yes"/>
      <point x="162" y="607"/>
      <point x="163" y="616"/>
      <point x="163" y="626" type="curve" smooth="yes"/>
      <point x="163" y="644"/>
      <point x="152" y="652"/>
      <point x="129" y="652" type="curve" smooth="yes"/>
      <point x="84" y="652" type="line"/>
      <point x="91" y="680" type="line"/>
      <point x="191" y="695"/>
      <point x="240" y="706"/>
      <point x="289" y="726" type="curve"/>
      <point x="299" y="717" type="line"/>
      <point x="196" y="251" type="line"/>
      <point x="262" y="352"/>
      <point x="307" y="401"/>
      <point x="363" y="437" type="curve" smooth="yes"/>
      <point x="398" y="459"/>
      <point x="429" y="469"/>
      <point x="458" y="469" type="curve" smooth="yes"/>
      <point x="497" y="469"/>
      <point x="516" y="437"/>
      <point x="516" y="370" type="curve" smooth="yes"/>
      <point x="516" y="251"/>
      <point x="474" y="138"/>
      <point x="409" y="82" type="curve" smooth="yes"/>
      <point x="371" y="50"/>
      <point x="318" y="13"/>
      <point x="291" y="0" type="curve" smooth="yes"/>
      <point x="266" y="-11"/>
      <point x="238" y="-17"/>
      <point x="205" y="-17" type="curve" smooth="yes"/>
      <point x="184" y="-17"/>
      <point x="170" y="-15"/>
      <point x="149" y="-10" type="curve"/>
      <point x="113" y="-152"/>
      <point x="105" y="-190"/>
      <point x="101" y="-250" type="curve"/>
      <point x="83" y="-252"/>
      <point x="64" y="-255"/>
      <point x="21" y="-264" type="curve" smooth="yes"/>
      <point x="6" y="-268"/>
      <point x="2" y="-269"/>
    </contour>
    <contour>
      <point x="175" y="121" type="curve" smooth="yes"/>
      <point x="161" y="59" type="line"/>
      <point x="194" y="40"/>
      <point x="223" y="32"/>
      <point x="255" y="32" type="curve" smooth="yes"/>
      <point x="287" y="32"/>
      <point x="316" y="52"/>
      <point x="335" y="86" type="curve" smooth="yes"/>
      <point x="372" y="152"/>
      <point x="402" y="264"/>
      <point x="402" y="333" type="curve" smooth="yes"/>
      <point x="402" y="371"/>
      <point x="392" y="391"/>
      <point x="374" y="391" type="curve" smooth="yes"/>
      <point x="337" y="391"/>
      <point x="284" y="346"/>
      <point x="237" y="274" type="curve" smooth="yes"/>
      <point x="203" y="222"/>
      <point x="191" y="191"/>
    </contour>
  </outline>
</glyph>
<glyph name="Amacron" format="1">
  <advance width="722"/>
  <unicode hex="0100"/>
  <outline>
    <contour>
      <point x="414" y="683" type="line"/>
      <point x="510" y="683" type="line"/>
      <point x="512" y="663"/>
      <point x="514" y="647"/>
      <point x="515" y="640" type="curve" smooth="yes"/>
      <point x="517" y="618"/>
      <point x="518" y="615"/>
      <point x="518" y="612" type="curve" smooth="yes"/>
      <point x="594" y="90" type="line" smooth="yes"/>
      <point x="600" y="54"/>
      <point x="616" y="38"/>
      <point x="648" y="35" type="curve" smooth="yes"/>
      <point x="685" y="32" type="line"/>
      <point x="685" y="-3" type="line"/>
      <point x="600" y="-1"/>
      <point x="564" y="0"/>
      <point x="539" y="0" type="curve" smooth="yes"/>
      <point x="509" y="0"/>
      <point x="509" y="0"/>
      <point x="384" y="-3" type="curve"/>
      <point x="384" y="32" type="line"/>
      <point x="426" y="35" type="line" smooth="yes"/>
      <point x="454" y="37"/>
      <point x="469" y="48"/>
      <point x="468" y="66" type="curve"/>
      <point x="443" y="264" type="line"/>
      <point x="406" y="265" type="line" smooth="yes"/>
      <point x="372" y="266"/>
      <point x="354" y="267"/>
      <point x="343" y="267" type="curve" smooth="yes"/>
      <point x="333" y="267" type="line"/>
      <point x="222" y="264" type="line"/>
      <point x="136" y="112" type="line" smooth="yes"/>
      <point x="122" y="87"/>
      <point x="117" y="72"/>
      <point x="117" y="55" type="curve" smooth="yes"/>
      <point x="117" y="43"/>
      <point x="131" y="37"/>
      <point x="160" y="35" type="curve" smooth="yes"/>
      <point x="204" y="32" type="line"/>
      <point x="199" y="-3" type="line"/>
      <point x="178" y="-2"/>
      <point x="150" y="-2"/>
      <point x="143" y="-1" type="curve" smooth="yes"/>
      <point x="103" y="0"/>
      <point x="93" y="0"/>
      <point x="85" y="0" type="curve" smooth="yes"/>
      <point x="-35" y="-3" type="line"/>
      <point x="-30" y="32" type="line"/>
      <point x="4" y="35" type="line" smooth="yes"/>
      <point x="22" y="36"/>
      <point x="37" y="48"/>
      <point x="51" y="70" type="curve" smooth="yes"/>
    </contour>
    <contour>
      <point x="400" y="573" type="line"/>
      <point x="245" y="307" type="line"/>
      <point x="438" y="307" type="line"/>
    </contour>
    <contour>
      <point x="643" y="820" type="line"/>
      <point x="627" y="750" type="line"/>
      <point x="301" y="750" type="line"/>
      <point x="318" y="820" type="line"/>
    </contour>
  </outline>
</glyph>
<glyph name="Abreve" format="1">
  <advance width="722"/>
  <unicode hex="0102"/>
  <outline>
    <contour>
      <point x="414" y="683" type="line"/>
      <point x="510" y="683" type="line"/>
      <point x="512" y="663"/>
      <point x="514" y="647"/>
      <point x="515" y="640" type="curve" smooth="yes"/>
      <point x="517" y="618"/>
      <point x="518" y="615"/>
      <point x="518" y="612" type="curve" smooth="yes"/>
      <point x="594" y="90" type="line" smooth="yes"/>
      <point x="600" y="54"/>
      <point x="616" y="38"/>
      <point x="648" y="35" type="curve" smooth="yes"/>
      <point x="685" y="32" type="line"/>
      <point x="685" y="-3" type="line"/>
      <point x="600" y="-1"/>
      <point x="564" y="0"/>
      <point x="539" y="0" type="curve" smooth="yes"/>
      <point x="509" y="0"/>
      <point x="509" y="0"/>
      <point x="384" y="-3" type="curve"/>
      <point x="384" y="32" type="line"/>
      <point x="426" y="35" type="line" smooth="yes"/>
      <point x="454" y="37"/>
      <point x="469" y="48"/>
      <point x="468" y="66" type="curve"/>
      <point x="443" y="264" type="line"/>
      <point x="406" y="265" type="line" smooth="yes"/>
      <point x="372" y="266"/>
      <point x="354" y="267"/>
      <point x="343" y="267" type="curve" smooth="yes"/>
      <point x="333" y="267" type="line"/>
      <point x="222" y="264" type="line"/>
      <point x="136" y="112" type="line" smooth="yes"/>
      <point x="122" y="87"/>
      <point x="117" y="72"/>
      <point x="117" y="55" type="curve" smooth="yes"/>
      <point x="117" y="43"/>
      <point x="131" y="37"/>
      <point x="160" y="35" type="curve" smooth="yes"/>
      <point x="204" y="32" type="line"/>
      <point x="199" y="-3" type="line"/>
      <point x="178" y="-2"/>
      <point x="150" y="-2"/>
      <point x="143" y="-1" type="curve" smooth="yes"/>
      <point x="103" y="0"/>
      <point x="93" y="0"/>
      <point x="85" y="0" type="curve" smooth="yes"/>
      <point x="-35" y="-3" type="line"/>
      <point x="-30" y="32" type="line"/>
      <point x="4" y="35" type="line" smooth="yes"/>
      <point x="22" y="36"/>
      <point x="37" y="48"/>
      <point x="51" y="70" type="curve" smooth="yes"/>
    </contour>
    <contour>
      <point x="400" y="573" type="line"/>
      <point x="245" y="307" type="line"/>
      <point x="438" y="307" type="line"/>
    </contour>
    <contour>
      <point x="331" y="892" type="curve"/>
      <point x="374" y="892" type="line"/>
      <point x="379" y="830"/>
      <point x="411" y="802"/>
      <point x="478" y="802" type="curve" smooth="yes"/>
      <point x="542" y="802"/>
      <point x="579" y="828"/>
      <point x="608" y="892" type="curve"/>
      <point x="647" y="892" type="line"/>
      <point x="637" y="844"/>
      <point x="628" y="821"/>
      <point x="609" y="796" type="curve" smooth="yes"/>
      <point x="577" y="754"/>
      <point x="525" y="730"/>
      <point x="463" y="730" type="curve" smooth="yes"/>
      <point x="416" y="730"/>
      <point x="384" y="743"/>
      <point x="362" y="772" type="curve" smooth="yes"/>
      <point x="340" y="800"/>
      <point x="332" y="831"/>
    </contour>
  </outline>
</glyph>
<glyph name="Aogonek" format="1">
  <advance width="722"/>
  <unicode hex="0104"/>
  <outline>
    <contour>
      <point x="414" y="683" type="line"/>
      <point x="510" y="683" type="line"/>
      <point x="512" y="663"/>
      <point x="514" y="647"/>
      <point x="515" y="640" type="curve" smooth="yes"/>
      <point x="517" y="618"/>
      <point x="518" y="615"/>
      <point x="518" y="612" type="curve" smooth="yes"/>
      <point x="594" y="90" type="line" smooth="yes"/>
      <point x="600" y="54"/>
      <point x="616" y="38"/>
      <point x="648" y="35" type="curve" smooth="yes"/>
      <point x="685" y="32" type="line"/>
      <point x="685" y="-3" type="line"/>
      <point x="676" y="-3" type="line"/>
      <point x="674" y="-2" type="line"/>
      <point x="636" y="-25"/>
      <point x="609" y="-61"/>
      <point x="609" y="-87" type="curve" smooth="yes"/>
      <point x="609" y="-112"/>
      <point x="632" y="-134"/>
      <point x="657" y="-134" type="curve" smooth="yes"/>
      <point x="679" y="-134"/>
      <point x="697" y="-124"/>
      <point x="721" y="-99" type="curve"/>
      <point x="745" y="-112" type="line"/>
      <point x="691" y="-168"/>
      <point x="652" y="-189"/>
      <point x="606" y="-189" type="curve" smooth="yes"/>
      <point x="566" y="-189"/>
      <point x="539" y="-163"/>
      <point x="539" y="-124" type="curve" smooth="yes"/>
      <point x="539" y="-85"/>
      <point x="557" y="-60"/>
      <point x="627" y="-2" type="curve"/>
      <point x="570" y="0"/>
      <point x="562" y="0"/>
      <point x="538" y="0" type="curve" smooth="yes"/>
      <point x="507" y="0"/>
      <point x="507" y="0"/>
      <point x="384" y="-3" type="curve"/>
      <point x="384" y="32" type="line"/>
      <point x="426" y="35" type="line" smooth="yes"/>
      <point x="454" y="37"/>
      <point x="469" y="48"/>
      <point x="468" y="66" type="curve"/>
      <point x="443" y="264" type="line"/>
      <point x="406" y="265" type="line" smooth="yes"/>
      <point x="372" y="266"/>
      <point x="354" y="267"/>
      <point x="343" y="267" type="curve" smooth="yes"/>
      <point x="333" y="267" type="line"/>
      <point x="222" y="264" type="line"/>
      <point x="136" y="112" type="line" smooth="yes"/>
      <point x="122" y="87"/>
      <point x="117" y="72"/>
      <point x="117" y="55" type="curve" smooth="yes"/>
      <point x="117" y="43"/>
      <point x="131" y="37"/>
      <point x="160" y="35" type="curve" smooth="yes"/>
      <point x="204" y="32" type="line"/>
      <point x="199" y="-3" type="line"/>
      <point x="115" y="0" type="line"/>
      <point x="85" y="0" type="line"/>
      <point x="-35" y="-3" type="line"/>
      <point x="-30" y="32" type="line"/>
      <point x="4" y="35" type="line" smooth="yes"/>
      <point x="22" y="36"/>
      <point x="37" y="48"/>
      <point x="51" y="70" type="curve" smooth="yes"/>
    </contour>
    <contour>
      <point x="400" y="573" type="line"/>
      <point x="245" y="307" type="line"/>
      <point x="438" y="307" type="line"/>
    </contour>
  </outline>
</glyph>
<glyph name="Cacute" format="1">
  <advance width="685"/>
  <unicode hex="0106"/>
  <outline>
    <contour>
      <point x="622" y="484" type="line"/>
      <point x="627" y="572" type="line" smooth="yes"/>
      <point x="629" y="605"/>
      <point x="544" y="636"/>
      <point x="452" y="636" type="curve" smooth="yes"/>
      <point x="303" y="636"/>
      <point x="207" y="494"/>
      <point x="207" y="272" type="curve" smooth="yes"/>
      <point x="207" y="119"/>
      <point x="268" y="48"/>
      <point x="399" y="48" type="curve" smooth="yes"/>
      <point x="462" y="48"/>
      <point x="521" y="67"/>
      <point x="597" y="112" type="curve" smooth="yes"/>
      <point x="619" y="125" type="line"/>
      <point x="629" y="116" type="line"/>
      <point x="616" y="77" type="line"/>
      <point x="506" y="8"/>
      <point x="434" y="-17"/>
      <point x="340" y="-17" type="curve" smooth="yes"/>
      <point x="264" y="-17"/>
      <point x="196" y="3"/>
      <point x="152" y="39" type="curve" smooth="yes"/>
      <point x="97" y="84"/>
      <point x="69" y="154"/>
      <point x="69" y="250" type="curve" smooth="yes"/>
      <point x="69" y="497"/>
      <point x="263" y="695"/>
      <point x="504" y="695" type="curve" smooth="yes"/>
      <point x="573" y="695"/>
      <point x="630" y="682"/>
      <point x="695" y="652" type="curve"/>
      <point x="669" y="560"/>
      <point x="662" y="531"/>
      <point x="657" y="484" type="curve"/>
    </contour>
    <contour>
      <point x="429" y="730" type="line"/>
      <point x="570" y="881" type="line" smooth="yes"/>
      <point x="590" y="902"/>
      <point x="605" y="911"/>
      <point x="621" y="911" type="curve" smooth="yes"/>
      <point x="647" y="911"/>
      <point x="668" y="891"/>
      <point x="668" y="866" type="curve" smooth="yes"/>
      <point x="668" y="846"/>
      <point x="660" y="835"/>
      <point x="632" y="819" type="curve" smooth="yes"/>
      <point x="478" y="730" type="line"/>
    </contour>
  </outline>
</glyph>
<glyph name="ccircumflex" format="1">
  <advance width="444"/>
  <unicode hex="0109"/>
  <outline>
    <contour>
      <point x="375" y="743" type="line"/>
      <point x="461" y="569" type="line"/>
      <point x="410" y="569" type="line"/>
      <point x="322" y="664" type="line"/>
      <point x="191" y="569" type="line"/>
      <point x="134" y="569" type="line"/>
      <point x="294" y="743" type="line"/>
    </contour>
    <contour>
      <point x="391" y="120" type="curve"/>
      <point x="401" y="90" type="line"/>
      <point x="283" y="8"/>
      <point x="227" y="-17"/>
      <point x="159" y="-17" type="curve" smooth="yes"/>
      <point x="81" y="-17"/>
      <point x="32" y="36"/>
      <point x="32" y="119" type="curve" smooth="yes"/>
      <point x="32" y="191"/>
      <point x="56" y="286"/>
      <point x="85" y="332" type="curve" smooth="yes"/>
      <point x="103" y="360"/>
      <point x="137" y="389"/>
      <point x="190" y="420" type="curve"/>
      <point x="254" y="459"/>
      <point x="283" y="469"/>
      <point x="323" y="469" type="curve" smooth="yes"/>
      <point x="357" y="469"/>
      <point x="383" y="464"/>
      <point x="436" y="445" type="curve"/>
      <point x="422" y="408"/>
      <point x="417" y="388"/>
      <point x="401" y="304" type="curve"/>
      <point x="368" y="304" type="line"/>
      <point x="374" y="360" type="line"/>
      <point x="370" y="374" type="line"/>
      <point x="338" y="397"/>
      <point x="309" y="407"/>
      <point x="278" y="407" type="curve" smooth="yes"/>
      <point x="238" y="407"/>
      <point x="206" y="383"/>
      <point x="186" y="339" type="curve" smooth="yes"/>
      <point x="165" y="292"/>
      <point x="146" y="198"/>
      <point x="146" y="140" type="curve" smooth="yes"/>
      <point x="146" y="85"/>
      <point x="177" y="50"/>
      <point x="225" y="50" type="curve" smooth="yes"/>
      <point x="272" y="50"/>
      <point x="312" y="67"/>
    </contour>
  </outline>
</glyph>
<glyph name="Cdotaccent" format="1">
  <advance width="685"/>
  <unicode hex="010A"/>
  <outline>
    <contour>
      <point x="470" y="912" type="curve" smooth="yes"/>
      <point x="503" y="912"/>
      <point x="526" y="887"/>
      <point x="526" y="852" type="curve" smooth="yes"/>
      <point x="526" y="811"/>
      <point x="497" y="781"/>
      <point x="457" y="781" type="curve" smooth="yes"/>
      <point x="424" y="781"/>
      <point x="403" y="803"/>
      <point x="403" y="838" type="curve" smooth="yes"/>
      <point x="403" y="879"/>
      <point x="433" y="912"/>
    </contour>
    <contour>
      <point x="622" y="484" type="line"/>
      <point x="627" y="572" type="line" smooth="yes"/>
      <point x="629" y="605"/>
      <point x="544" y="636"/>
      <point x="452" y="636" type="curve" smooth="yes"/>
      <point x="303" y="636"/>
      <point x="207" y="494"/>
      <point x="207" y="272" type="curve" smooth="yes"/>
      <point x="207" y="119"/>
      <point x="268" y="48"/>
      <point x="399" y="48" type="curve" smooth="yes"/>
      <point x="462" y="48"/>
      <point x="521" y="67"/>
      <point x="597" y="112" type="curve" smooth="yes"/>
      <point x="619" y="125" type="line"/>
      <point x="629" y="116" type="line"/>
      <point x="616" y="77" type="line"/>
      <point x="506" y="8"/>
      <point x="434" y="-17"/>
      <point x="340" y="-17" type="curve" smooth="yes"/>
      <point x="264" y="-17"/>
      <point x="196" y="3"/>
      <point x="152" y="39" type="curve" smooth="yes"/>
      <point x="97" y="84"/>
      <point x="69" y="154"/>
      <point x="69" y="250" type="curve" smooth="yes"/>
      <point x="69" y="497"/>
      <point x="263" y="695"/>
      <point x="504" y="695" type="curve" smooth="yes"/>
      <point x="573" y="695"/>
      <point x="630" y="682"/>
      <point x="695" y="652" type="curve"/>
      <point x="669" y="560"/>
      <point x="662" y="531"/>
      <point x="657" y="484" type="curve"/>
    </contour>
  </outline>
</glyph>
<glyph name="cdotaccent" format="1">
  <advance width="444"/>
  <unicode hex="010B"/>
  <outline>
    <contour>
      <point x="314" y="700" type="curve" smooth="yes"/>
      <point x="347" y="700"/>
      <point x="370" y="675"/>
      <point x="370" y="640" type="curve" smooth="yes"/>
      <point x="370" y="599"/>
      <point x="341" y="569"/>
      <point x="301" y="569" type="curve" smooth="yes"/>
      <point x="268" y="569"/>
      <point x="247" y="591"/>
      <point x="247" y="626" type="curve" smooth="yes"/>
      <point x="247" y="667"/>
      <point x="277" y="700"/>
    </contour>
    <contour>
      <point x="391" y="120" type="curve"/>
      <point x="401" y="90" type="line"/>
      <point x="283" y="8"/>
      <point x="227" y="-17"/>
      <point x="159" y="-17" type="curve" smooth="yes"/>
      <point x="81" y="-17"/>
      <point x="32" y="36"/>
      <point x="32" y="119" type="curve" smooth="yes"/>
      <point x="32" y="191"/>
      <point x="56" y="286"/>
      <point x="85" y="332" type="curve" smooth="yes"/>
      <point x="103" y="360"/>
      <point x="137" y="389"/>
      <point x="190" y="420" type="curve"/>
      <point x="254" y="459"/>
      <point x="283" y="469"/>
      <point x="323" y="469" type="curve" smooth="yes"/>
      <point x="357" y="469"/>
      <point x="383" y="464"/>
      <point x="436" y="445" type="curve"/>
      <point x="422" y="408"/>
      <point x="417" y="388"/>
      <point x="401" y="304" type="curve"/>
      <point x="368" y="304" type="line"/>
      <point x="374" y="360" type="line"/>
      <point x="370" y="374" type="line"/>
      <point x="338" y="397"/>
      <point x="309" y="407"/>
      <point x="278" y="407" type="curve" smooth="yes"/>
      <point x="238" y="407"/>
      <point x="206" y="383"/>
      <point x="186" y="339" type="curve" smooth="yes"/>
      <point x="165" y="292"/>
      <point x="146" y="198"/>
      <point x="146" y="140" type="curve" smooth="yes"/>
      <point x="146" y="85"/>
      <point x="177" y="50"/>
      <point x="225" y="50" type="curve" smooth="yes"/>
      <point x="272" y="50"/>
      <point x="312" y="67"/>
    </contour>
  </outline>
</glyph>
<glyph name="dcaron" format="1">
  <advance width="667"/>
  <unicode hex="010F"/>
  <outline>
    <contour>
      <point x="396" y="460" type="curve"/>
      <point x="414" y="572" type="line" smooth="yes"/>
      <point x="417" y="593"/>
      <point x="418" y="599"/>
      <point x="418" y="610" type="curve" smooth="yes"/>
      <point x="418" y="639"/>
      <point x="407" y="652"/>
      <point x="380" y="652" type="curve" smooth="yes"/>
      <point x="335" y="652" type="line"/>
      <point x="342" y="680" type="line"/>
      <point x="442" y="695"/>
      <point x="491" y="706"/>
      <point x="540" y="726" type="curve"/>
      <point x="550" y="717" type="line"/>
      <point x="547" y="704"/>
      <point x="546" y="698"/>
      <point x="544" y="693" type="curve"/>
      <point x="544" y="690"/>
      <point x="542" y="684"/>
      <point x="536" y="652" type="curve" smooth="yes"/>
      <point x="429" y="121" type="line" smooth="yes"/>
      <point x="426" y="105"/>
      <point x="424" y="91"/>
      <point x="424" y="81" type="curve" smooth="yes"/>
      <point x="424" y="73"/>
      <point x="430" y="65"/>
      <point x="438" y="65" type="curve" smooth="yes"/>
      <point x="443" y="65"/>
      <point x="453" y="71"/>
      <point x="487" y="93" type="curve" smooth="yes"/>
      <point x="513" y="110" type="line"/>
      <point x="522" y="82" type="line"/>
      <point x="486" y="56" type="line" smooth="yes"/>
      <point x="428" y="13"/>
      <point x="372" y="-17"/>
      <point x="350" y="-17" type="curve" smooth="yes"/>
      <point x="331" y="-17"/>
      <point x="315" y="1"/>
      <point x="315" y="24" type="curve" smooth="yes"/>
      <point x="315" y="38"/>
      <point x="317" y="55"/>
      <point x="322" y="74" type="curve" smooth="yes"/>
      <point x="362" y="238" type="line"/>
      <point x="297" y="130"/>
      <point x="264" y="86"/>
      <point x="217" y="45" type="curve" smooth="yes"/>
      <point x="168" y="3"/>
      <point x="132" y="-17"/>
      <point x="101" y="-17" type="curve" smooth="yes"/>
      <point x="65" y="-17"/>
      <point x="38" y="20"/>
      <point x="38" y="70" type="curve" smooth="yes"/>
      <point x="38" y="168"/>
      <point x="72" y="297"/>
      <point x="112" y="348" type="curve" smooth="yes"/>
      <point x="137" y="381"/>
      <point x="199" y="426"/>
      <point x="256" y="452" type="curve" smooth="yes"/>
      <point x="282" y="464"/>
      <point x="304" y="469"/>
      <point x="331" y="469" type="curve" smooth="yes"/>
      <point x="351" y="469"/>
      <point x="367" y="467"/>
    </contour>
    <contour>
      <point x="360" y="306" type="curve" smooth="yes"/>
      <point x="384" y="401" type="line"/>
      <point x="347" y="415"/>
      <point x="327" y="419"/>
      <point x="299" y="419" type="curve" smooth="yes"/>
      <point x="249" y="419"/>
      <point x="231" y="406"/>
      <point x="208" y="353" type="curve" smooth="yes"/>
      <point x="179" y="287"/>
      <point x="152" y="159"/>
      <point x="152" y="92" type="curve" smooth="yes"/>
      <point x="152" y="76"/>
      <point x="162" y="65"/>
      <point x="176" y="65" type="curve" smooth="yes"/>
      <point x="195" y="65"/>
      <point x="225" y="87"/>
      <point x="254" y="124" type="curve" smooth="yes"/>
      <point x="307" y="190"/>
      <point x="349" y="262"/>
    </contour>
    <contour>
      <point x="715" y="720" type="line"/>
      <point x="727" y="707" type="line"/>
      <point x="674" y="604"/>
      <point x="635" y="544"/>
      <point x="583" y="485" type="curve"/>
      <point x="538" y="460" type="line"/>
      <point x="524" y="470" type="line"/>
      <point x="566" y="542"/>
      <point x="592" y="611"/>
      <point x="606" y="692" type="curve"/>
      <point x="631" y="694"/>
      <point x="632" y="695"/>
      <point x="682" y="710" type="curve" smooth="yes"/>
    </contour>
  </outline>
</glyph>
<glyph name="ecaron" format="1">
  <advance width="444"/>
  <unicode hex="011B"/>
  <outline>
    <contour>
      <point x="377" y="114" type="curve"/>
      <point x="387" y="86" type="line"/>
      <point x="382" y="83"/>
      <point x="377" y="80"/>
      <point x="373" y="77" type="curve" smooth="yes"/>
      <point x="358" y="68" type="line"/>
      <point x="259" y="3"/>
      <point x="209" y="-17"/>
      <point x="149" y="-17" type="curve" smooth="yes"/>
      <point x="74" y="-17"/>
      <point x="28" y="27"/>
      <point x="28" y="100" type="curve" smooth="yes"/>
      <point x="28" y="168"/>
      <point x="55" y="273"/>
      <point x="88" y="331" type="curve" smooth="yes"/>
      <point x="127" y="400"/>
      <point x="246" y="469"/>
      <point x="325" y="469" type="curve" smooth="yes"/>
      <point x="382" y="469"/>
      <point x="418" y="435"/>
      <point x="418" y="381" type="curve" smooth="yes"/>
      <point x="418" y="323"/>
      <point x="382" y="277"/>
      <point x="311" y="243" type="curve" smooth="yes"/>
      <point x="269" y="223"/>
      <point x="232" y="212"/>
      <point x="147" y="193" type="curve"/>
      <point x="143" y="164"/>
      <point x="142" y="149"/>
      <point x="142" y="129" type="curve" smooth="yes"/>
      <point x="142" y="77"/>
      <point x="169" y="47"/>
      <point x="215" y="47" type="curve" smooth="yes"/>
      <point x="256" y="47"/>
      <point x="302" y="66"/>
    </contour>
    <contour>
      <point x="151" y="219" type="line"/>
      <point x="192" y="231" type="line" smooth="yes"/>
      <point x="273" y="255"/>
      <point x="324" y="307"/>
      <point x="324" y="368" type="curve" smooth="yes"/>
      <point x="324" y="401"/>
      <point x="306" y="421"/>
      <point x="276" y="421" type="curve" smooth="yes"/>
      <point x="227" y="421"/>
      <point x="187" y="370"/>
      <point x="165" y="277" type="curve" smooth="yes"/>
    </contour>
    <contour>
      <point x="257" y="510" type="line"/>
      <point x="169" y="684" type="line"/>
      <point x="219" y="684" type="line"/>
      <point x="310" y="587" type="line"/>
      <point x="445" y="684" type="line"/>
      <point x="501" y="684" type="line"/>
      <point x="339" y="510" type="line"/>
    </contour>
  </outline>
</glyph>
<glyph name="Gbreve" format="1">
  <advance width="778"/>
  <unicode hex="011E"/>
  <outline>
    <contour>
      <point x="517" y="59" type="curve"/>
      <point x="549" y="200" type="line" smooth="yes"/>
      <point x="551" y="208"/>
      <point x="552" y="217"/>
      <point x="552" y="223" type="curve" smooth="yes"/>
      <point x="552" y="242"/>
      <point x="540" y="250"/>
      <point x="508" y="251" type="curve" smooth="yes"/>
      <point x="448" y="253" type="line"/>
      <point x="453" y="286" type="line"/>
      <point x="578" y="283"/>
      <point x="578" y="283"/>
      <point x="602" y="283" type="curve" smooth="yes"/>
      <point x="628" y="283"/>
      <point x="628" y="283"/>
      <point x="750" y="286" type="curve"/>
      <point x="745" y="253" type="line"/>
      <point x="720" y="251" type="line" smooth="yes"/>
      <point x="693" y="248"/>
      <point x="683" y="238"/>
      <point x="675" y="206" type="curve"/>
      <point x="655" y="110" type="line" smooth="yes"/>
      <point x="651" y="91"/>
      <point x="649" y="77"/>
      <point x="649" y="64" type="curve"/>
      <point x="652" y="48" type="line"/>
      <point x="508" y="-4"/>
      <point x="452" y="-17"/>
      <point x="368" y="-17" type="curve" smooth="yes"/>
      <point x="269" y="-17"/>
      <point x="191" y="9"/>
      <point x="140" y="60" type="curve" smooth="yes"/>
      <point x="94" y="105"/>
      <point x="72" y="170"/>
      <point x="72" y="256" type="curve" smooth="yes"/>
      <point x="72" y="440"/>
      <point x="177" y="592"/>
      <point x="352" y="661" type="curve" smooth="yes"/>
      <point x="411" y="684"/>
      <point x="466" y="695"/>
      <point x="523" y="695" type="curve" smooth="yes"/>
      <point x="596" y="695"/>
      <point x="653" y="683"/>
      <point x="722" y="652" type="curve"/>
      <point x="696" y="560"/>
      <point x="689" y="531"/>
      <point x="684" y="484" type="curve"/>
      <point x="649" y="484" type="line"/>
      <point x="653" y="562" type="line" smooth="yes"/>
      <point x="654" y="568"/>
      <point x="654" y="572"/>
      <point x="654" y="574" type="curve" smooth="yes"/>
      <point x="654" y="605"/>
      <point x="574" y="633"/>
      <point x="482" y="633" type="curve" smooth="yes"/>
      <point x="418" y="633"/>
      <point x="354" y="613"/>
      <point x="316" y="580" type="curve" smooth="yes"/>
      <point x="253" y="526"/>
      <point x="210" y="395"/>
      <point x="210" y="259" type="curve" smooth="yes"/>
      <point x="210" y="111"/>
      <point x="276" y="30"/>
      <point x="396" y="30" type="curve" smooth="yes"/>
      <point x="443" y="30"/>
      <point x="483" y="40"/>
    </contour>
    <contour>
      <point x="379" y="892" type="curve"/>
      <point x="422" y="892" type="line"/>
      <point x="427" y="830"/>
      <point x="459" y="802"/>
      <point x="526" y="802" type="curve" smooth="yes"/>
      <point x="590" y="802"/>
      <point x="627" y="828"/>
      <point x="656" y="892" type="curve"/>
      <point x="695" y="892" type="line"/>
      <point x="685" y="844"/>
      <point x="676" y="821"/>
      <point x="657" y="796" type="curve" smooth="yes"/>
      <point x="625" y="754"/>
      <point x="573" y="730"/>
      <point x="511" y="730" type="curve" smooth="yes"/>
      <point x="464" y="730"/>
      <point x="432" y="743"/>
      <point x="410" y="772" type="curve" smooth="yes"/>
      <point x="388" y="800"/>
      <point x="380" y="831"/>
    </contour>
  </outline>
</glyph>
<glyph name="Gcommaaccent" format="1">
  <advance width="778"/>
  <unicode hex="0122"/>
  <outline>
    <contour>
      <point x="517" y="59" type="curve"/>
      <point x="549" y="200" type="line" smooth="yes"/>
      <point x="551" y="208"/>
      <point x="552" y="217"/>
      <point x="552" y="223" type="curve" smooth="yes"/>
      <point x="552" y="242"/>
      <point x="540" y="250"/>
      <point x="508" y="251" type="curve" smooth="yes"/>
      <point x="448" y="253" type="line"/>
      <point x="453" y="286" type="line"/>
      <point x="578" y="283"/>
      <point x="578" y="283"/>
      <point x="602" y="283" type="curve" smooth="yes"/>
      <point x="628" y="283"/>
      <point x="628" y="283"/>
      <point x="750" y="286" type="curve"/>
      <point x="745" y="253" type="line"/>
      <point x="720" y="251" type="line" smooth="yes"/>
      <point x="693" y="248"/>
      <point x="683" y="238"/>
      <point x="675" y="206" type="curve"/>
      <point x="655" y="110" type="line" smooth="yes"/>
      <point x="651" y="91"/>
      <point x="649" y="77"/>
      <point x="649" y="64" type="curve"/>
      <point x="652" y="48" type="line"/>
      <point x="508" y="-4"/>
      <point x="452" y="-17"/>
      <point x="368" y="-17" type="curve" smooth="yes"/>
      <point x="269" y="-17"/>
      <point x="191" y="9"/>
      <point x="140" y="60" type="curve" smooth="yes"/>
      <point x="94" y="105"/>
      <point x="72" y="170"/>
      <point x="72" y="256" type="curve" smooth="yes"/>
      <point x="72" y="440"/>
      <point x="177" y="592"/>
      <point x="352" y="661" type="curve" smooth="yes"/>
      <point x="411" y="684"/>
      <point x="466" y="695"/>
      <point x="523" y="695" type="curve" smooth="yes"/>
      <point x="596" y="695"/>
      <point x="653" y="683"/>
      <point x="722" y="652" type="curve"/>
      <point x="696" y="560"/>
      <point x="689" y="531"/>
      <point x="684" y="484" type="curve"/>
      <point x="649" y="484" type="line"/>
      <point x="653" y="562" type="line" smooth="yes"/>
      <point x="654" y="568"/>
      <point x="654" y="572"/>
      <point x="654" y="574" type="curve" smooth="yes"/>
      <point x="654" y="605"/>
      <point x="574" y="633"/>
      <point x="482" y="633" type="curve" smooth="yes"/>
      <point x="418" y="633"/>
      <point x="354" y="613"/>
      <point x="316" y="580" type="curve" smooth="yes"/>
      <point x="253" y="526"/>
      <point x="210" y="395"/>
      <point x="210" y="259" type="curve" smooth="yes"/>
      <point x="210" y="111"/>
      <point x="276" y="30"/>
      <point x="396" y="30" type="curve" smooth="yes"/>
      <point x="443" y="30"/>
      <point x="483" y="40"/>
    </contour>
    <contour>
      <point x="452" y="-40" type="line"/>
      <point x="464" y="-53" type="line"/>
      <point x="411" y="-156"/>
      <point x="372" y="-216"/>
      <point x="320" y="-275" type="curve"/>
      <point x="275" y="-300" type="line"/>
      <point x="261" y="-290" type="line"/>
      <point x="303" y="-218"/>
      <point x="329" y="-149"/>
      <point x="343" y="-68" type="curve"/>
      <point x="368" y="-66"/>
      <point x="369" y="-65"/>
      <point x="419" y="-50" type="curve" smooth="yes"/>
    </contour>
  </outline>
</glyph>
<glyph name="hbar" format="1">
  <advance width="556"/>
  <unicode hex="0127"/>
  <outline>
    <contour>
      <point x="140" y="551" type="line"/>
      <point x="147" y="590"/>
      <point x="150" y="617"/>
      <point x="150" y="627" type="curve" smooth="yes"/>
      <point x="150" y="644"/>
      <point x="139" y="652"/>
      <point x="116" y="652" type="curve" smooth="yes"/>
      <point x="71" y="652" type="line"/>
      <point x="78" y="680" type="line"/>
      <point x="178" y="695"/>
      <point x="227" y="706"/>
      <point x="276" y="726" type="curve"/>
      <point x="286" y="717" type="line"/>
      <point x="283" y="706"/>
      <point x="280" y="693"/>
      <point x="279" y="689" type="curve" smooth="yes"/>
      <point x="274" y="671"/>
      <point x="270" y="658"/>
      <point x="269" y="652" type="curve" smooth="yes"/>
      <point x="247" y="551" type="line"/>
      <point x="359" y="551" type="line"/>
      <point x="343" y="481" type="line"/>
      <point x="232" y="481" type="line"/>
      <point x="180" y="244" type="line"/>
      <point x="264" y="378"/>
      <point x="378" y="469"/>
      <point x="463" y="469" type="curve" smooth="yes"/>
      <point x="486" y="469"/>
      <point x="501" y="451"/>
      <point x="501" y="425" type="curve" smooth="yes"/>
      <point x="501" y="401"/>
      <point x="496" y="376"/>
      <point x="481" y="325" type="curve" smooth="yes"/>
      <point x="475" y="306"/>
      <point x="473" y="300"/>
      <point x="470" y="288" type="curve" smooth="yes"/>
      <point x="432" y="144" type="line" smooth="yes"/>
      <point x="427" y="124"/>
      <point x="424" y="103"/>
      <point x="424" y="81" type="curve" smooth="yes"/>
      <point x="424" y="71"/>
      <point x="428" y="65"/>
      <point x="436" y="65" type="curve" smooth="yes"/>
      <point x="445" y="65"/>
      <point x="462" y="73"/>
      <point x="497" y="95" type="curve" smooth="yes"/>
      <point x="513" y="105" type="line"/>
      <point x="522" y="79" type="line"/>
      <point x="418" y="8"/>
      <point x="371" y="-17"/>
      <point x="337" y="-17" type="curve" smooth="yes"/>
      <point x="319" y="-17"/>
      <point x="306" y="1"/>
      <point x="306" y="24" type="curve" smooth="yes"/>
      <point x="306" y="55"/>
      <point x="320" y="117"/>
      <point x="354" y="237" type="curve" smooth="yes"/>
      <point x="371" y="295"/>
      <point x="379" y="333"/>
      <point x="379" y="352" type="curve" smooth="yes"/>
      <point x="379" y="370"/>
      <point x="372" y="381"/>
      <point x="359" y="381" type="curve" smooth="yes"/>
      <point x="315" y="381"/>
      <point x="240" y="302"/>
      <point x="194" y="208" type="curve" smooth="yes"/>
      <point x="167" y="153"/>
      <point x="147" y="80"/>
      <point x="138" y="4" type="curve"/>
      <point x="102" y="2"/>
      <point x="54" y="-6"/>
      <point x="32" y="-13" type="curve"/>
      <point x="22" y="-2" type="line"/>
      <point x="40" y="35"/>
      <point x="69" y="158"/>
      <point x="102" y="334" type="curve" smooth="yes"/>
      <point x="129" y="481" type="line"/>
      <point x="17" y="481" type="line"/>
      <point x="34" y="551" type="line"/>
    </contour>
  </outline>
</glyph>
<glyph name="Itilde" format="1">
  <advance width="389"/>
  <unicode hex="0128"/>
  <outline>
    <contour>
      <point x="158" y="781" type="curve"/>
      <point x="118" y="781" type="line"/>
      <point x="136" y="860"/>
      <point x="176" y="900"/>
      <point x="236" y="900" type="curve" smooth="yes"/>
      <point x="262" y="900"/>
      <point x="279" y="896"/>
      <point x="312" y="881" type="curve" smooth="yes"/>
      <point x="345" y="866"/>
      <point x="370" y="858"/>
      <point x="387" y="858" type="curve" smooth="yes"/>
      <point x="409" y="858"/>
      <point x="422" y="869"/>
      <point x="436" y="900" type="curve"/>
      <point x="477" y="900" type="line"/>
      <point x="456" y="819"/>
      <point x="419" y="781"/>
      <point x="362" y="781" type="curve" smooth="yes"/>
      <point x="339" y="781"/>
      <point x="326" y="785"/>
      <point x="280" y="803" type="curve" smooth="yes"/>
      <point x="238" y="820"/>
      <point x="221" y="825"/>
      <point x="204" y="825" type="curve" smooth="yes"/>
      <point x="184" y="825"/>
      <point x="173" y="815"/>
    </contour>
    <contour>
      <point x="408" y="646" type="line"/>
      <point x="363" y="643" type="line" smooth="yes"/>
      <point x="330" y="641"/>
      <point x="324" y="636"/>
      <point x="317" y="599" type="curve" smooth="yes"/>
      <point x="230" y="100" type="line" smooth="yes"/>
      <point x="228" y="89"/>
      <point x="227" y="77"/>
      <point x="227" y="66" type="curve" smooth="yes"/>
      <point x="227" y="45"/>
      <point x="237" y="36"/>
      <point x="264" y="35" type="curve" smooth="yes"/>
      <point x="323" y="32" type="line"/>
      <point x="319" y="-3" type="line"/>
      <point x="171" y="0"/>
      <point x="171" y="0"/>
      <point x="156" y="0" type="curve" smooth="yes"/>
      <point x="139" y="0"/>
      <point x="139" y="0"/>
      <point x="-1" y="-3" type="curve"/>
      <point x="3" y="32" type="line"/>
      <point x="52" y="35" type="line" smooth="yes"/>
      <point x="85" y="37"/>
      <point x="90" y="47"/>
      <point x="106" y="132" type="curve"/>
      <point x="178" y="541" type="line" smooth="yes"/>
      <point x="184" y="575"/>
      <point x="187" y="599"/>
      <point x="187" y="613" type="curve" smooth="yes"/>
      <point x="187" y="632"/>
      <point x="175" y="641"/>
      <point x="149" y="643" type="curve" smooth="yes"/>
      <point x="97" y="646" type="line"/>
      <point x="101" y="681" type="line"/>
      <point x="231" y="678"/>
      <point x="231" y="678"/>
      <point x="253" y="678" type="curve" smooth="yes"/>
      <point x="275" y="678"/>
      <point x="275" y="678"/>
      <point x="412" y="681" type="curve"/>
    </contour>
  </outline>
</glyph>
<glyph name="itilde" format="1">
  <advance width="333"/>
  <unicode hex="0129"/>
  <outline>
    <contour>
      <point x="92" y="569" type="curve"/>
      <point x="52" y="569" type="line"/>
      <point x="70" y="648"/>
      <point x="110" y="688"/>
      <point x="170" y="688" type="curve" smooth="yes"/>
      <point x="196" y="688"/>
      <point x="213" y="684"/>
      <point x="246" y="669" type="curve" smooth="yes"/>
      <point x="279" y="654"/>
      <point x="304" y="646"/>
      <point x="321" y="646" type="curve" smooth="yes"/>
      <point x="343" y="646"/>
      <point x="356" y="657"/>
      <point x="370" y="688" type="curve"/>
      <point x="411" y="688" type="line"/>
      <point x="390" y="607"/>
      <point x="353" y="569"/>
      <point x="296" y="569" type="curve" smooth="yes"/>
      <point x="273" y="569"/>
      <point x="260" y="573"/>
      <point x="214" y="591" type="curve" smooth="yes"/>
      <point x="172" y="608"/>
      <point x="155" y="613"/>
      <point x="138" y="613" type="curve" smooth="yes"/>
      <point x="118" y="613"/>
      <point x="107" y="603"/>
    </contour>
    <contour>
      <point x="26" y="346" type="line"/>
      <point x="89" y="393" type="line" smooth="yes"/>
      <point x="150" y="439"/>
      <point x="210" y="469"/>
      <point x="238" y="469" type="curve" smooth="yes"/>
      <point x="253" y="469"/>
      <point x="264" y="454"/>
      <point x="264" y="432" type="curve" smooth="yes"/>
      <point x="264" y="413"/>
      <point x="260" y="383"/>
      <point x="255" y="365" type="curve" smooth="yes"/>
      <point x="201" y="169" type="line" smooth="yes"/>
      <point x="188" y="122"/>
      <point x="181" y="89"/>
      <point x="181" y="77" type="curve" smooth="yes"/>
      <point x="181" y="71"/>
      <point x="187" y="65"/>
      <point x="193" y="65" type="curve" smooth="yes"/>
      <point x="202" y="65"/>
      <point x="220" y="74"/>
      <point x="254" y="95" type="curve" smooth="yes"/>
      <point x="281" y="112" type="line"/>
      <point x="293" y="84" type="line"/>
      <point x="282" y="76"/>
      <point x="278" y="74"/>
      <point x="265" y="64" type="curve" smooth="yes"/>
      <point x="184" y="6"/>
      <point x="137" y="-17"/>
      <point x="99" y="-17" type="curve" smooth="yes"/>
      <point x="80" y="-17"/>
      <point x="67" y="0"/>
      <point x="67" y="26" type="curve" smooth="yes"/>
      <point x="67" y="41"/>
      <point x="70" y="64"/>
      <point x="73" y="78" type="curve" smooth="yes"/>
      <point x="132" y="319" type="line" smooth="yes"/>
      <point x="138" y="343"/>
      <point x="140" y="354"/>
      <point x="140" y="359" type="curve" smooth="yes"/>
      <point x="140" y="366"/>
      <point x="136" y="370"/>
      <point x="130" y="370" type="curve" smooth="yes"/>
      <point x="121" y="370"/>
      <point x="80" y="350"/>
      <point x="61" y="336" type="curve" smooth="yes"/>
      <point x="39" y="320" type="line"/>
    </contour>
  </outline>
</glyph>
<glyph name="Ibreve" format="1">
  <advance width="389"/>
  <unicode hex="012C"/>
  <outline>
    <contour>
      <point x="158" y="943" type="curve"/>
      <point x="201" y="943" type="line"/>
      <point x="206" y="881"/>
      <point x="238" y="853"/>
      <point x="305" y="853" type="curve" smooth="yes"/>
      <point x="369" y="853"/>
      <point x="406" y="879"/>
      <point x="435" y="943" type="curve"/>
      <point x="474" y="943" type="line"/>
      <point x="464" y="895"/>
      <point x="455" y="872"/>
      <point x="436" y="847" type="curve" smooth="yes"/>
      <point x="404" y="805"/>
      <point x="352" y="781"/>
      <point x="290" y="781" type="curve" smooth="yes"/>
      <point x="243" y="781"/>
      <point x="211" y="794"/>
      <point x="189" y="823" type="curve" smooth="yes"/>
      <point x="167" y="851"/>
      <point x="159" y="882"/>
    </contour>
    <contour>
      <point x="408" y="646" type="line"/>
      <point x="363" y="643" type="line" smooth="yes"/>
      <point x="330" y="641"/>
      <point x="324" y="636"/>
      <point x="317" y="599" type="curve" smooth="yes"/>
      <point x="230" y="100" type="line" smooth="yes"/>
      <point x="228" y="89"/>
      <point x="227" y="77"/>
      <point x="227" y="66" type="curve" smooth="yes"/>
      <point x="227" y="45"/>
      <point x="237" y="36"/>
      <point x="264" y="35" type="curve" smooth="yes"/>
      <point x="323" y="32" type="line"/>
      <point x="319" y="-3" type="line"/>
      <point x="171" y="0"/>
      <point x="171" y="0"/>
      <point x="156" y="0" type="curve" smooth="yes"/>
      <point x="139" y="0"/>
      <point x="139" y="0"/>
      <point x="-1" y="-3" type="curve"/>
      <point x="3" y="32" type="line"/>
      <point x="52" y="35" type="line" smooth="yes"/>
      <point x="85" y="37"/>
      <point x="90" y="47"/>
      <point x="106" y="132" type="curve"/>
      <point x="178" y="541" type="line" smooth="yes"/>
      <point x="184" y="575"/>
      <point x="187" y="599"/>
      <point x="187" y="613" type="curve" smooth="yes"/>
      <point x="187" y="632"/>
      <point x="175" y="641"/>
      <point x="149" y="643" type="curve" smooth="yes"/>
      <point x="97" y="646" type="line"/>
      <point x="101" y="681" type="line"/>
      <point x="231" y="678"/>
      <point x="231" y="678"/>
      <point x="253" y="678" type="curve" smooth="yes"/>
      <point x="275" y="678"/>
      <point x="275" y="678"/>
      <point x="412" y="681" type="curve"/>
    </contour>
  </outline>
</glyph>
<glyph name="ibreve" format="1">
  <advance width="333"/>
  <unicode hex="012D"/>
  <outline>
    <contour>
      <point x="92" y="731" type="curve"/>
      <point x="135" y="731" type="line"/>
      <point x="140" y="669"/>
      <point x="172" y="641"/>
      <point x="239" y="641" type="curve" smooth="yes"/>
      <point x="303" y="641"/>
      <point x="340" y="667"/>
      <point x="369" y="731" type="curve"/>
      <point x="408" y="731" type="line"/>
      <point x="398" y="683"/>
      <point x="389" y="660"/>
      <point x="370" y="635" type="curve" smooth="yes"/>
      <point x="338" y="593"/>
      <point x="286" y="569"/>
      <point x="224" y="569" type="curve" smooth="yes"/>
      <point x="177" y="569"/>
      <point x="145" y="582"/>
      <point x="123" y="611" type="curve" smooth="yes"/>
      <point x="101" y="639"/>
      <point x="93" y="670"/>
    </contour>
    <contour>
      <point x="26" y="346" type="line"/>
      <point x="89" y="393" type="line" smooth="yes"/>
      <point x="150" y="439"/>
      <point x="210" y="469"/>
      <point x="238" y="469" type="curve" smooth="yes"/>
      <point x="253" y="469"/>
      <point x="264" y="454"/>
      <point x="264" y="432" type="curve" smooth="yes"/>
      <point x="264" y="413"/>
      <point x="260" y="383"/>
      <point x="255" y="365" type="curve" smooth="yes"/>
      <point x="201" y="169" type="line" smooth="yes"/>
      <point x="188" y="122"/>
      <point x="181" y="89"/>
      <point x="181" y="77" type="curve" smooth="yes"/>
      <point x="181" y="71"/>
      <point x="187" y="65"/>
      <point x="193" y="65" type="curve" smooth="yes"/>
      <point x="202" y="65"/>
      <point x="220" y="74"/>
      <point x="254" y="95" type="curve" smooth="yes"/>
      <point x="281" y="112" type="line"/>
      <point x="293" y="84" type="line"/>
      <point x="282" y="76"/>
      <point x="278" y="74"/>
      <point x="265" y="64" type="curve" smooth="yes"/>
      <point x="184" y="6"/>
      <point x="137" y="-17"/>
      <point x="99" y="-17" type="curve" smooth="yes"/>
      <point x="80" y="-17"/>
      <point x="67" y="0"/>
      <point x="67" y="26" type="curve" smooth="yes"/>
      <point x="67" y="41"/>
      <point x="70" y="64"/>
      <point x="73" y="78" type="curve" smooth="yes"/>
      <point x="132" y="319" type="line" smooth="yes"/>
      <point x="138" y="343"/>
      <point x="140" y="354"/>
      <point x="140" y="359" type="curve" smooth="yes"/>
      <point x="140" y="366"/>
      <point x="136" y="370"/>
      <point x="130" y="370" type="curve" smooth="yes"/>
      <point x="121" y="370"/>
      <point x="80" y="350"/>
      <point x="61" y="336" type="curve" smooth="yes"/>
      <point x="39" y="320" type="line"/>
    </contour>
  </outline>
</glyph>
<glyph name="Iogonek" format="1">
  <advance width="389"/>
  <unicode hex="012E"/>
  <outline>
    <contour>
      <point x="97" y="646" type="line"/>
      <point x="101" y="681" type="line"/>
      <point x="231" y="678"/>
      <point x="231" y="678"/>
      <point x="253" y="678" type="curve" smooth="yes"/>
      <point x="275" y="678"/>
      <point x="275" y="678"/>
      <point x="412" y="681" type="curve"/>
      <point x="408" y="646" type="line"/>
      <point x="363" y="643" type="line" smooth="yes"/>
      <point x="330" y="641"/>
      <point x="324" y="636"/>
      <point x="317" y="599" type="curve" smooth="yes"/>
      <point x="230" y="100" type="line" smooth="yes"/>
      <point x="228" y="89"/>
      <point x="227" y="77"/>
      <point x="227" y="66" type="curve" smooth="yes"/>
      <point x="227" y="45"/>
      <point x="237" y="36"/>
      <point x="264" y="35" type="curve" smooth="yes"/>
      <point x="323" y="32" type="line"/>
      <point x="319" y="-3" type="line"/>
      <point x="304" y="-3" type="line"/>
      <point x="300" y="-2" type="line" smooth="yes"/>
      <point x="298" y="-2"/>
      <point x="291" y="-8"/>
      <point x="276" y="-22" type="curve" smooth="yes"/>
      <point x="249" y="-48"/>
      <point x="237" y="-68"/>
      <point x="237" y="-88" type="curve" smooth="yes"/>
      <point x="237" y="-112"/>
      <point x="260" y="-134"/>
      <point x="285" y="-134" type="curve" smooth="yes"/>
      <point x="306" y="-134"/>
      <point x="324" y="-124"/>
      <point x="349" y="-99" type="curve"/>
      <point x="373" y="-112" type="line"/>
      <point x="319" y="-168"/>
      <point x="280" y="-189"/>
      <point x="234" y="-189" type="curve" smooth="yes"/>
      <point x="193" y="-189"/>
      <point x="167" y="-163"/>
      <point x="167" y="-124" type="curve" smooth="yes"/>
      <point x="167" y="-85"/>
      <point x="184" y="-61"/>
      <point x="255" y="-2" type="curve"/>
      <point x="193" y="0"/>
      <point x="167" y="0"/>
      <point x="156" y="0" type="curve" smooth="yes"/>
      <point x="141" y="0"/>
      <point x="141" y="0"/>
      <point x="-1" y="-3" type="curve"/>
      <point x="3" y="32" type="line"/>
      <point x="52" y="35" type="line" smooth="yes"/>
      <point x="85" y="37"/>
      <point x="90" y="47"/>
      <point x="106" y="132" type="curve"/>
      <point x="178" y="541" type="line" smooth="yes"/>
      <point x="184" y="575"/>
      <point x="187" y="599"/>
      <point x="187" y="613" type="curve" smooth="yes"/>
      <point x="187" y="632"/>
      <point x="175" y="641"/>
      <point x="149" y="643" type="curve" smooth="yes"/>
    </contour>
  </outline>
</glyph>
<glyph name="iogonek" format="1">
  <advance width="333"/>
  <unicode hex="012F"/>
  <outline>
    <contour>
      <point x="281" y="112" type="line"/>
      <point x="293" y="84" type="line"/>
      <point x="158" y="-9"/>
      <point x="116" y="-49"/>
      <point x="116" y="-87" type="curve" smooth="yes"/>
      <point x="116" y="-113"/>
      <point x="136" y="-133"/>
      <point x="164" y="-133" type="curve" smooth="yes"/>
      <point x="186" y="-133"/>
      <point x="203" y="-124"/>
      <point x="227" y="-99" type="curve"/>
      <point x="251" y="-112" type="line"/>
      <point x="197" y="-167"/>
      <point x="158" y="-189"/>
      <point x="112" y="-189" type="curve" smooth="yes"/>
      <point x="72" y="-189"/>
      <point x="45" y="-163"/>
      <point x="45" y="-124" type="curve" smooth="yes"/>
      <point x="45" y="-88"/>
      <point x="60" y="-65"/>
      <point x="117" y="-15" type="curve"/>
      <point x="110" y="-16"/>
      <point x="104" y="-17"/>
      <point x="99" y="-17" type="curve" smooth="yes"/>
      <point x="80" y="-17"/>
      <point x="67" y="0"/>
      <point x="67" y="26" type="curve" smooth="yes"/>
      <point x="67" y="41"/>
      <point x="70" y="64"/>
      <point x="73" y="78" type="curve" smooth="yes"/>
      <point x="132" y="319" type="line" smooth="yes"/>
      <point x="138" y="343"/>
      <point x="140" y="354"/>
      <point x="140" y="359" type="curve" smooth="yes"/>
      <point x="140" y="366"/>
      <point x="136" y="370"/>
      <point x="130" y="370" type="curve" smooth="yes"/>
      <point x="121" y="370"/>
      <point x="80" y="350"/>
      <point x="61" y="336" type="curve" smooth="yes"/>
      <point x="39" y="320" type="line"/>
      <point x="26" y="346" type="line"/>
      <point x="89" y="393" type="line" smooth="yes"/>
      <point x="150" y="439"/>
      <point x="210" y="469"/>
      <point x="238" y="469" type="curve" smooth="yes"/>
      <point x="253" y="469"/>
      <point x="264" y="454"/>
      <point x="264" y="432" type="curve" smooth="yes"/>
      <point x="264" y="413"/>
      <point x="260" y="383"/>
      <point x="255" y="365" type="curve" smooth="yes"/>
      <point x="201" y="169" type="line" smooth="yes"/>
      <point x="188" y="122"/>
      <point x="181" y="89"/>
      <point x="181" y="77" type="curve" smooth="yes"/>
      <point x="181" y="71"/>
      <point x="187" y="65"/>
      <point x="193" y="65" type="curve" smooth="yes"/>
      <point x="202" y="65"/>
      <point x="220" y="74"/>
      <point x="254" y="95" type="curve" smooth="yes"/>
    </contour>
    <contour>
      <point x="257" y="695" type="curve" smooth="yes"/>
      <point x="289" y="695"/>
      <point x="312" y="670"/>
      <point x="312" y="636" type="curve" smooth="yes"/>
      <point x="312" y="595"/>
      <point x="283" y="564"/>
      <point x="243" y="564" type="curve" smooth="yes"/>
      <point x="210" y="564"/>
      <point x="189" y="586"/>
      <point x="189" y="621" type="curve" smooth="yes"/>
      <point x="189" y="662"/>
      <point x="219" y="695"/>
    </contour>
  </outline>
</glyph>
<glyph name="dotlessi" format="1">
  <advance width="333"/>
  <unicode hex="0131"/>
  <outline>
    <contour>
      <point x="26" y="346" type="line"/>
      <point x="89" y="393" type="line" smooth="yes"/>
      <point x="150" y="439"/>
      <point x="210" y="469"/>
      <point x="238" y="469" type="curve" smooth="yes"/>
      <point x="253" y="469"/>
      <point x="264" y="454"/>
      <point x="264" y="432" type="curve" smooth="yes"/>
      <point x="264" y="413"/>
      <point x="260" y="383"/>
      <point x="255" y="365" type="curve" smooth="yes"/>
      <point x="201" y="169" type="line" smooth="yes"/>
      <point x="188" y="122"/>
      <point x="181" y="89"/>
      <point x="181" y="77" type="curve" smooth="yes"/>
      <point x="181" y="71"/>
      <point x="187" y="65"/>
      <point x="193" y="65" type="curve" smooth="yes"/>
      <point x="202" y="65"/>
      <point x="220" y="74"/>
      <point x="254" y="95" type="curve" smooth="yes"/>
      <point x="281" y="112" type="line"/>
      <point x="293" y="84" type="line"/>
      <point x="282" y="76"/>
      <point x="278" y="74"/>
      <point x="265" y="64" type="curve" smooth="yes"/>
      <point x="184" y="6"/>
      <point x="137" y="-17"/>
      <point x="99" y="-17" type="curve" smooth="yes"/>
      <point x="80" y="-17"/>
      <point x="67" y="0"/>
      <point x="67" y="26" type="curve" smooth="yes"/>
      <point x="67" y="41"/>
      <point x="70" y="64"/>
      <point x="73" y="78" type="curve" smooth="yes"/>
      <point x="132" y="319" type="line" smooth="yes"/>
      <point x="138" y="343"/>
      <point x="140" y="354"/>
      <point x="140" y="359" type="curve" smooth="yes"/>
      <point x="140" y="366"/>
      <point x="136" y="370"/>
      <point x="130" y="370" type="curve" smooth="yes"/>
      <point x="121" y="370"/>
      <point x="80" y="350"/>
      <point x="61" y="336" type="curve" smooth="yes"/>
      <point x="39" y="320" type="line"/>
    </contour>
  </outline>
</glyph>
<glyph name="IJ" format="1">
  <advance width="766"/>
  <unicode hex="0132"/>
  <outline>
    <contour>
      <point x="752" y="646" type="line"/>
      <point x="706" y="643" type="line" smooth="yes"/>
      <point x="673" y="641"/>
      <point x="667" y="635"/>
      <point x="660" y="599" type="curve" smooth="yes"/>
      <point x="562" y="43" type="line" smooth="yes"/>
      <point x="539" y="-88"/>
      <point x="444" y="-207"/>
      <point x="363" y="-207" type="curve" smooth="yes"/>
      <point x="350" y="-207"/>
      <point x="333" y="-204"/>
      <point x="311" y="-197" type="curve"/>
      <point x="311" y="-162" type="line"/>
      <point x="325" y="-168"/>
      <point x="334" y="-170"/>
      <point x="347" y="-170" type="curve" smooth="yes"/>
      <point x="372" y="-170"/>
      <point x="390" y="-157"/>
      <point x="403" y="-131" type="curve"/>
      <point x="410" y="-114"/>
      <point x="413" y="-101"/>
      <point x="424" y="-35" type="curve" smooth="yes"/>
      <point x="520" y="541" type="line" smooth="yes"/>
      <point x="525" y="570"/>
      <point x="530" y="608"/>
      <point x="530" y="614" type="curve" smooth="yes"/>
      <point x="530" y="632"/>
      <point x="518" y="641"/>
      <point x="492" y="643" type="curve" smooth="yes"/>
      <point x="441" y="646" type="line"/>
      <point x="446" y="681" type="line"/>
      <point x="576" y="678"/>
      <point x="576" y="678"/>
      <point x="599" y="678" type="curve" smooth="yes"/>
      <point x="621" y="678"/>
      <point x="621" y="678"/>
      <point x="757" y="681" type="curve"/>
    </contour>
    <contour>
      <point x="408" y="646" type="line"/>
      <point x="363" y="643" type="line" smooth="yes"/>
      <point x="330" y="641"/>
      <point x="324" y="636"/>
      <point x="317" y="599" type="curve" smooth="yes"/>
      <point x="230" y="100" type="line" smooth="yes"/>
      <point x="228" y="89"/>
      <point x="227" y="77"/>
      <point x="227" y="66" type="curve" smooth="yes"/>
      <point x="227" y="45"/>
      <point x="237" y="36"/>
      <point x="264" y="35" type="curve" smooth="yes"/>
      <point x="323" y="32" type="line"/>
      <point x="319" y="-3" type="line"/>
      <point x="171" y="0"/>
      <point x="171" y="0"/>
      <point x="156" y="0" type="curve" smooth="yes"/>
      <point x="139" y="0"/>
      <point x="139" y="0"/>
      <point x="-1" y="-3" type="curve"/>
      <point x="3" y="32" type="line"/>
      <point x="52" y="35" type="line" smooth="yes"/>
      <point x="85" y="37"/>
      <point x="90" y="47"/>
      <point x="106" y="132" type="curve"/>
      <point x="178" y="541" type="line" smooth="yes"/>
      <point x="184" y="575"/>
      <point x="187" y="599"/>
      <point x="187" y="613" type="curve" smooth="yes"/>
      <point x="187" y="632"/>
      <point x="175" y="641"/>
      <point x="149" y="643" type="curve" smooth="yes"/>
      <point x="97" y="646" type="line"/>
      <point x="101" y="681" type="line"/>
      <point x="231" y="678"/>
      <point x="231" y="678"/>
      <point x="253" y="678" type="curve" smooth="yes"/>
      <point x="275" y="678"/>
      <point x="275" y="678"/>
      <point x="412" y="681" type="curve"/>
    </contour>
  </outline>
</glyph>
<glyph name="Jcircumflex" format="1">
  <advance width="389"/>
  <unicode hex="0134"/>
  <outline>
    <contour>
      <point x="357" y="955" type="line"/>
      <point x="443" y="781" type="line"/>
      <point x="392" y="781" type="line"/>
      <point x="304" y="876" type="line"/>
      <point x="173" y="781" type="line"/>
      <point x="116" y="781" type="line"/>
      <point x="276" y="955" type="line"/>
    </contour>
    <contour>
      <point x="412" y="646" type="line"/>
      <point x="366" y="643" type="line" smooth="yes"/>
      <point x="333" y="641"/>
      <point x="327" y="635"/>
      <point x="320" y="599" type="curve" smooth="yes"/>
      <point x="222" y="43" type="line" smooth="yes"/>
      <point x="199" y="-88"/>
      <point x="104" y="-207"/>
      <point x="23" y="-207" type="curve" smooth="yes"/>
      <point x="10" y="-207"/>
      <point x="-7" y="-204"/>
      <point x="-29" y="-197" type="curve"/>
      <point x="-29" y="-162" type="line"/>
      <point x="-15" y="-168"/>
      <point x="-6" y="-170"/>
      <point x="7" y="-170" type="curve" smooth="yes"/>
      <point x="32" y="-170"/>
      <point x="50" y="-157"/>
      <point x="63" y="-131" type="curve"/>
      <point x="70" y="-114"/>
      <point x="73" y="-101"/>
      <point x="84" y="-35" type="curve" smooth="yes"/>
      <point x="180" y="541" type="line" smooth="yes"/>
      <point x="185" y="570"/>
      <point x="190" y="608"/>
      <point x="190" y="614" type="curve" smooth="yes"/>
      <point x="190" y="632"/>
      <point x="178" y="641"/>
      <point x="152" y="643" type="curve" smooth="yes"/>
      <point x="101" y="646" type="line"/>
      <point x="106" y="681" type="line"/>
      <point x="236" y="678"/>
      <point x="236" y="678"/>
      <point x="259" y="678" type="curve" smooth="yes"/>
      <point x="281" y="678"/>
      <point x="281" y="678"/>
      <point x="417" y="681" type="curve"/>
    </contour>
  </outline>
</glyph>
<glyph name="jcircumflex" format="1">
  <advance width="333"/>
  <unicode hex="0135"/>
  <outline>
    <contour>
      <point x="49" y="320" type="line"/>
      <point x="36" y="346" type="line"/>
      <point x="99" y="393" type="line" smooth="yes"/>
      <point x="160" y="439"/>
      <point x="220" y="469"/>
      <point x="248" y="469" type="curve" smooth="yes"/>
      <point x="264" y="469"/>
      <point x="274" y="454"/>
      <point x="274" y="429" type="curve" smooth="yes"/>
      <point x="274" y="411"/>
      <point x="271" y="389"/>
      <point x="265" y="365" type="curve" smooth="yes"/>
      <point x="198" y="91" type="line" smooth="yes"/>
      <point x="165" y="-44"/>
      <point x="134" y="-123"/>
      <point x="91" y="-185" type="curve" smooth="yes"/>
      <point x="50" y="-243"/>
      <point x="11" y="-271"/>
      <point x="-30" y="-271" type="curve" smooth="yes"/>
      <point x="-40" y="-271"/>
      <point x="-48" y="-270"/>
      <point x="-64" y="-266" type="curve"/>
      <point x="-59" y="-238"/>
      <point x="-56" y="-219"/>
      <point x="-54" y="-187" type="curve"/>
      <point x="-40" y="-184" type="line"/>
      <point x="-26" y="-206"/>
      <point x="-12" y="-217"/>
      <point x="4" y="-217" type="curve" smooth="yes"/>
      <point x="24" y="-217"/>
      <point x="39" y="-193"/>
      <point x="50" y="-139" type="curve" smooth="yes"/>
      <point x="136" y="269" type="line" smooth="yes"/>
      <point x="145" y="314"/>
      <point x="150" y="342"/>
      <point x="150" y="357" type="curve" smooth="yes"/>
      <point x="150" y="366"/>
      <point x="147" y="370"/>
      <point x="140" y="370" type="curve" smooth="yes"/>
      <point x="131" y="370"/>
      <point x="90" y="350"/>
      <point x="71" y="336" type="curve" smooth="yes"/>
    </contour>
    <contour>
      <point x="329" y="684" type="line"/>
      <point x="415" y="510" type="line"/>
      <point x="364" y="510" type="line"/>
      <point x="276" y="605" type="line"/>
      <point x="145" y="510" type="line"/>
      <point x="88" y="510" type="line"/>
      <point x="248" y="684" type="line"/>
    </contour>
  </outline>
</glyph>
<glyph name="lcommaaccent" format="1">
  <advance width="333"/>
  <unicode hex="013C"/>
  <outline>
    <contour>
      <point x="277" y="114" type="line"/>
      <point x="291" y="87" type="line"/>
      <point x="175" y="2"/>
      <point x="139" y="-17"/>
      <point x="96" y="-17" type="curve" smooth="yes"/>
      <point x="75" y="-17"/>
      <point x="64" y="1"/>
      <point x="64" y="36" type="curve" smooth="yes"/>
      <point x="64" y="70"/>
      <point x="65" y="80"/>
      <point x="80" y="146" type="curve" smooth="yes"/>
      <point x="179" y="596" type="line" smooth="yes"/>
      <point x="182" y="608"/>
      <point x="183" y="618"/>
      <point x="183" y="627" type="curve" smooth="yes"/>
      <point x="183" y="643"/>
      <point x="171" y="652"/>
      <point x="148" y="652" type="curve" smooth="yes"/>
      <point x="103" y="652" type="line"/>
      <point x="110" y="680" type="line"/>
      <point x="210" y="695"/>
      <point x="259" y="706"/>
      <point x="308" y="726" type="curve"/>
      <point x="318" y="717" type="line"/>
      <point x="315" y="706"/>
      <point x="312" y="695"/>
      <point x="311" y="689" type="curve" smooth="yes"/>
      <point x="306" y="671"/>
      <point x="302" y="658"/>
      <point x="301" y="652" type="curve" smooth="yes"/>
      <point x="194" y="170" type="line" smooth="yes"/>
      <point x="186" y="136"/>
      <point x="182" y="102"/>
      <point x="182" y="79" type="curve" smooth="yes"/>
      <point x="182" y="71"/>
      <point x="187" y="65"/>
      <point x="194" y="65" type="curve" smooth="yes"/>
      <point x="204" y="65"/>
      <point x="229" y="77"/>
      <point x="247" y="91" type="curve" smooth="yes"/>
    </contour>
    <contour>
      <point x="190" y="-40" type="line"/>
      <point x="202" y="-53" type="line"/>
      <point x="149" y="-156"/>
      <point x="110" y="-216"/>
      <point x="58" y="-275" type="curve"/>
      <point x="13" y="-300" type="line"/>
      <point x="-1" y="-290" type="line"/>
      <point x="41" y="-218"/>
      <point x="67" y="-149"/>
      <point x="81" y="-68" type="curve"/>
      <point x="106" y="-66"/>
      <point x="107" y="-65"/>
      <point x="157" y="-50" type="curve" smooth="yes"/>
    </contour>
  </outline>
</glyph>
<glyph name="lcaron" format="1">
  <advance width="429"/>
  <unicode hex="013E"/>
  <outline>
    <contour>
      <point x="277" y="114" type="line"/>
      <point x="291" y="87" type="line"/>
      <point x="175" y="2"/>
      <point x="139" y="-17"/>
      <point x="96" y="-17" type="curve" smooth="yes"/>
      <point x="75" y="-17"/>
      <point x="64" y="1"/>
      <point x="64" y="36" type="curve" smooth="yes"/>
      <point x="64" y="70"/>
      <point x="65" y="80"/>
      <point x="80" y="146" type="curve" smooth="yes"/>
      <point x="179" y="596" type="line" smooth="yes"/>
      <point x="182" y="608"/>
      <point x="183" y="618"/>
      <point x="183" y="627" type="curve" smooth="yes"/>
      <point x="183" y="643"/>
      <point x="171" y="652"/>
      <point x="148" y="652" type="curve" smooth="yes"/>
      <point x="103" y="652" type="line"/>
      <point x="110" y="680" type="line"/>
      <point x="210" y="695"/>
      <point x="259" y="706"/>
      <point x="308" y="726" type="curve"/>
      <point x="318" y="717" type="line"/>
      <point x="315" y="706"/>
      <point x="312" y="695"/>
      <point x="311" y="689" type="curve" smooth="yes"/>
      <point x="306" y="671"/>
      <point x="302" y="658"/>
      <point x="301" y="652" type="curve" smooth="yes"/>
      <point x="194" y="170" type="line" smooth="yes"/>
      <point x="186" y="136"/>
      <point x="182" y="102"/>
      <point x="182" y="79" type="curve" smooth="yes"/>
      <point x="182" y="71"/>
      <point x="187" y="65"/>
      <point x="194" y="65" type="curve" smooth="yes"/>
      <point x="204" y="65"/>
      <point x="229" y="77"/>
      <point x="247" y="91" type="curve" smooth="yes"/>
    </contour>
    <contour>
      <point x="476" y="720" type="line"/>
      <point x="488" y="707" type="line"/>
      <point x="435" y="604"/>
      <point x="396" y="544"/>
      <point x="344" y="485" type="curve"/>
      <point x="299" y="460" type="line"/>
      <point x="285" y="470" type="line"/>
      <point x="327" y="542"/>
      <point x="353" y="611"/>
      <point x="367" y="692" type="curve"/>
      <point x="392" y="694"/>
      <point x="393" y="695"/>
      <point x="443" y="710" type="curve" smooth="yes"/>
    </contour>
  </outline>
</glyph>
<glyph name="Ldot" format="1">
  <advance width="611"/>
  <unicode hex="013F"/>
  <outline>
    <contour>
      <point x="430" y="415" type="curve" smooth="yes"/>
      <point x="468" y="415"/>
      <point x="492" y="390"/>
      <point x="492" y="351" type="curve" smooth="yes"/>
      <point x="492" y="300"/>
      <point x="461" y="263"/>
      <point x="418" y="263" type="curve" smooth="yes"/>
      <point x="379" y="263"/>
      <point x="353" y="289"/>
      <point x="353" y="329" type="curve" smooth="yes"/>
      <point x="353" y="379"/>
      <point x="385" y="415"/>
    </contour>
    <contour>
      <point x="416" y="646" type="line"/>
      <point x="371" y="643" type="line" smooth="yes"/>
      <point x="338" y="641"/>
      <point x="332" y="635"/>
      <point x="325" y="599" type="curve" smooth="yes"/>
      <point x="226" y="56" type="line"/>
      <point x="251" y="51"/>
      <point x="263" y="50"/>
      <point x="294" y="50" type="curve" smooth="yes"/>
      <point x="334" y="50"/>
      <point x="426" y="53"/>
      <point x="462" y="56" type="curve" smooth="yes"/>
      <point x="496" y="59"/>
      <point x="510" y="70"/>
      <point x="519" y="98" type="curve" smooth="yes"/>
      <point x="542" y="174" type="line"/>
      <point x="578" y="174" type="line"/>
      <point x="559" y="81"/>
      <point x="552" y="50"/>
      <point x="544" y="0" type="curve"/>
      <point x="402" y="-3"/>
      <point x="402" y="-3"/>
      <point x="372" y="-3" type="curve" smooth="yes"/>
      <point x="360" y="-3"/>
      <point x="357" y="-3"/>
      <point x="258" y="-1" type="curve" smooth="yes"/>
      <point x="171" y="0" type="line" smooth="yes"/>
      <point x="128" y="0"/>
      <point x="126" y="0"/>
      <point x="26" y="-3" type="curve"/>
      <point x="30" y="29" type="line"/>
      <point x="58" y="32" type="line" smooth="yes"/>
      <point x="87" y="35"/>
      <point x="95" y="46"/>
      <point x="104" y="92" type="curve" smooth="yes"/>
      <point x="186" y="541" type="line" smooth="yes"/>
      <point x="192" y="573"/>
      <point x="195" y="599"/>
      <point x="195" y="615" type="curve" smooth="yes"/>
      <point x="195" y="632"/>
      <point x="183" y="642"/>
      <point x="157" y="643" type="curve" smooth="yes"/>
      <point x="105" y="646" type="line"/>
      <point x="109" y="681" type="line"/>
      <point x="239" y="678"/>
      <point x="239" y="678"/>
      <point x="261" y="678" type="curve" smooth="yes"/>
      <point x="283" y="678"/>
      <point x="283" y="678"/>
      <point x="420" y="681" type="curve"/>
    </contour>
  </outline>
</glyph>
<glyph name="ldot" format="1">
  <advance width="502"/>
  <unicode hex="0140"/>
  <outline>
    <contour>
      <point x="399" y="394" type="curve" smooth="yes"/>
      <point x="437" y="394"/>
      <point x="461" y="369"/>
      <point x="461" y="330" type="curve" smooth="yes"/>
      <point x="461" y="279"/>
      <point x="430" y="242"/>
      <point x="387" y="242" type="curve" smooth="yes"/>
      <point x="348" y="242"/>
      <point x="322" y="268"/>
      <point x="322" y="308" type="curve" smooth="yes"/>
      <point x="322" y="358"/>
      <point x="354" y="394"/>
    </contour>
    <contour>
      <point x="277" y="114" type="line"/>
      <point x="291" y="87" type="line"/>
      <point x="175" y="2"/>
      <point x="139" y="-17"/>
      <point x="96" y="-17" type="curve" smooth="yes"/>
      <point x="75" y="-17"/>
      <point x="64" y="1"/>
      <point x="64" y="36" type="curve" smooth="yes"/>
      <point x="64" y="70"/>
      <point x="65" y="80"/>
      <point x="80" y="146" type="curve" smooth="yes"/>
      <point x="179" y="596" type="line" smooth="yes"/>
      <point x="182" y="608"/>
      <point x="183" y="618"/>
      <point x="183" y="627" type="curve" smooth="yes"/>
      <point x="183" y="643"/>
      <point x="171" y="652"/>
      <point x="148" y="652" type="curve" smooth="yes"/>
      <point x="103" y="652" type="line"/>
      <point x="110" y="680" type="line"/>
      <point x="210" y="695"/>
      <point x="259" y="706"/>
      <point x="308" y="726" type="curve"/>
      <point x="318" y="717" type="line"/>
      <point x="315" y="706"/>
      <point x="312" y="695"/>
      <point x="311" y="689" type="curve" smooth="yes"/>
      <point x="306" y="671"/>
      <point x="302" y="658"/>
      <point x="301" y="652" type="curve" smooth="yes"/>
      <point x="194" y="170" type="line" smooth="yes"/>
      <point x="186" y="136"/>
      <point x="182" y="102"/>
      <point x="182" y="79" type="curve" smooth="yes"/>
      <point x="182" y="71"/>
      <point x="187" y="65"/>
      <point x="194" y="65" type="curve" smooth="yes"/>
      <point x="204" y="65"/>
      <point x="229" y="77"/>
      <point x="247" y="91" type="curve" smooth="yes"/>
    </contour>
  </outline>
</glyph>
<glyph name="Ncaron" format="1">
  <advance width="778"/>
  <unicode hex="0147"/>
  <outline>
    <contour>
      <point x="620" y="-3" type="curve"/>
      <point x="535" y="-3" type="line"/>
      <point x="225" y="534" type="line"/>
      <point x="152" y="138" type="line" smooth="yes"/>
      <point x="147" y="111"/>
      <point x="144" y="88"/>
      <point x="144" y="76" type="curve" smooth="yes"/>
      <point x="144" y="50"/>
      <point x="156" y="36"/>
      <point x="180" y="35" type="curve" smooth="yes"/>
      <point x="231" y="32" type="line"/>
      <point x="226" y="-3" type="line"/>
      <point x="133" y="0"/>
      <point x="133" y="0"/>
      <point x="114" y="0" type="curve" smooth="yes"/>
      <point x="95" y="0"/>
      <point x="95" y="0"/>
      <point x="-2" y="-3" type="curve"/>
      <point x="0" y="32" type="line"/>
      <point x="48" y="35" type="line" smooth="yes"/>
      <point x="70" y="36"/>
      <point x="80" y="50"/>
      <point x="88" y="91" type="curve" smooth="yes"/>
      <point x="185" y="578" type="line"/>
      <point x="186" y="582" type="line" smooth="yes"/>
      <point x="188" y="592"/>
      <point x="171" y="617"/>
      <point x="153" y="629" type="curve" smooth="yes"/>
      <point x="139" y="638"/>
      <point x="119" y="645"/>
      <point x="103" y="646" type="curve" smooth="yes"/>
      <point x="64" y="649" type="line"/>
      <point x="67" y="681" type="line"/>
      <point x="112" y="679"/>
      <point x="156" y="678"/>
      <point x="174" y="678" type="curve" smooth="yes"/>
      <point x="192" y="678"/>
      <point x="192" y="678"/>
      <point x="282" y="681" type="curve"/>
      <point x="596" y="142" type="line"/>
      <point x="670" y="542" type="line" smooth="yes"/>
      <point x="673" y="561"/>
      <point x="676" y="590"/>
      <point x="676" y="612" type="curve" smooth="yes"/>
      <point x="676" y="633"/>
      <point x="661" y="644"/>
      <point x="630" y="646" type="curve" smooth="yes"/>
      <point x="588" y="649" type="line"/>
      <point x="593" y="681" type="line"/>
      <point x="691" y="678"/>
      <point x="691" y="678"/>
      <point x="711" y="678" type="curve" smooth="yes"/>
      <point x="731" y="678"/>
      <point x="731" y="678"/>
      <point x="829" y="681" type="curve"/>
      <point x="823" y="649" type="line"/>
      <point x="786" y="646" type="line" smooth="yes"/>
      <point x="767" y="644"/>
      <point x="760" y="642"/>
      <point x="752" y="636" type="curve" smooth="yes"/>
      <point x="744" y="629"/>
      <point x="739" y="612"/>
      <point x="722" y="528" type="curve" smooth="yes"/>
      <point x="636" y="100" type="line" smooth="yes"/>
      <point x="629" y="67"/>
      <point x="625" y="37"/>
    </contour>
    <contour>
      <point x="424" y="722" type="line"/>
      <point x="336" y="896" type="line"/>
      <point x="386" y="896" type="line"/>
      <point x="477" y="799" type="line"/>
      <point x="612" y="896" type="line"/>
      <point x="668" y="896" type="line"/>
      <point x="506" y="722" type="line"/>
    </contour>
  </outline>
</glyph>
<glyph name="napostrophe" format="1">
  <advance width="556"/>
  <unicode hex="0149"/>
  <outline>
    <contour>
      <point x="338" y="770" type="line"/>
      <point x="352" y="756" type="line"/>
      <point x="292" y="641"/>
      <point x="249" y="574"/>
      <point x="192" y="509" type="curve"/>
      <point x="142" y="481" type="line"/>
      <point x="126" y="492" type="line"/>
      <point x="173" y="572"/>
      <point x="201" y="649"/>
      <point x="217" y="739" type="curve"/>
      <point x="244" y="741"/>
      <point x="247" y="742"/>
      <point x="302" y="759" type="curve" smooth="yes"/>
    </contour>
    <contour>
      <point x="30" y="331" type="line"/>
      <point x="17" y="358" type="line"/>
      <point x="101" y="420" type="line" smooth="yes"/>
      <point x="146" y="454"/>
      <point x="179" y="469"/>
      <point x="203" y="469" type="curve" smooth="yes"/>
      <point x="220" y="469"/>
      <point x="230" y="458"/>
      <point x="230" y="439" type="curve" smooth="yes"/>
      <point x="230" y="411"/>
      <point x="224" y="382"/>
      <point x="196" y="282" type="curve" smooth="yes"/>
      <point x="179" y="222" type="line"/>
      <point x="214" y="282"/>
      <point x="231" y="307"/>
      <point x="266" y="344" type="curve"/>
      <point x="333" y="418"/>
      <point x="414" y="469"/>
      <point x="461" y="469" type="curve" smooth="yes"/>
      <point x="484" y="469"/>
      <point x="500" y="452"/>
      <point x="500" y="427" type="curve" smooth="yes"/>
      <point x="500" y="414"/>
      <point x="494" y="382"/>
      <point x="484" y="344" type="curve" smooth="yes"/>
      <point x="436" y="160" type="line" smooth="yes"/>
      <point x="428" y="128"/>
      <point x="423" y="100"/>
      <point x="423" y="82" type="curve" smooth="yes"/>
      <point x="423" y="71"/>
      <point x="427" y="65"/>
      <point x="434" y="65" type="curve" smooth="yes"/>
      <point x="444" y="65"/>
      <point x="455" y="71"/>
      <point x="479" y="87" type="curve" smooth="yes"/>
      <point x="508" y="107" type="line"/>
      <point x="521" y="80" type="line"/>
      <point x="492" y="59" type="line"/>
      <point x="417" y="3"/>
      <point x="377" y="-17"/>
      <point x="341" y="-17" type="curve" smooth="yes"/>
      <point x="320" y="-17"/>
      <point x="305" y="1"/>
      <point x="305" y="25" type="curve" smooth="yes"/>
      <point x="305" y="54"/>
      <point x="321" y="125"/>
      <point x="353" y="237" type="curve" smooth="yes"/>
      <point x="368" y="288"/>
      <point x="378" y="333"/>
      <point x="378" y="349" type="curve" smooth="yes"/>
      <point x="378" y="363"/>
      <point x="371" y="370"/>
      <point x="358" y="370" type="curve" smooth="yes"/>
      <point x="310" y="370"/>
      <point x="219" y="260"/>
      <point x="181" y="154" type="curve" smooth="yes"/>
      <point x="168" y="120"/>
      <point x="151" y="50"/>
      <point x="145" y="4" type="curve"/>
      <point x="109" y="2"/>
      <point x="61" y="-6"/>
      <point x="39" y="-13" type="curve"/>
      <point x="29" y="-2" type="line"/>
      <point x="75" y="136"/>
      <point x="114" y="298"/>
      <point x="114" y="353" type="curve" smooth="yes"/>
      <point x="114" y="364"/>
      <point x="110" y="370"/>
      <point x="103" y="370" type="curve" smooth="yes"/>
      <point x="92" y="370"/>
      <point x="78" y="364"/>
      <point x="62" y="353" type="curve" smooth="yes"/>
    </contour>
  </outline>
</glyph>
<glyph name="Obreve" format="1">
  <advance width="833"/>
  <unicode hex="014E"/>
  <outline>
    <contour>
      <point x="382" y="943" type="curve"/>
      <point x="425" y="943" type="line"/>
      <point x="430" y="881"/>
      <point x="462" y="853"/>
      <point x="529" y="853" type="curve" smooth="yes"/>
      <point x="593" y="853"/>
      <point x="630" y="879"/>
      <point x="659" y="943" type="curve"/>
      <point x="698" y="943" type="line"/>
      <point x="688" y="895"/>
      <point x="679" y="872"/>
      <point x="660" y="847" type="curve" smooth="yes"/>
      <point x="628" y="805"/>
      <point x="576" y="781"/>
      <point x="514" y="781" type="curve" smooth="yes"/>
      <point x="467" y="781"/>
      <point x="435" y="794"/>
      <point x="413" y="823" type="curve" smooth="yes"/>
      <point x="391" y="851"/>
      <point x="383" y="882"/>
    </contour>
    <contour>
      <point x="493" y="695" type="curve" smooth="yes"/>
      <point x="588" y="695"/>
      <point x="667" y="666"/>
      <point x="721" y="612" type="curve" smooth="yes"/>
      <point x="770" y="563"/>
      <point x="794" y="499"/>
      <point x="794" y="414" type="curve" smooth="yes"/>
      <point x="794" y="170"/>
      <point x="608" y="-17"/>
      <point x="365" y="-17" type="curve" smooth="yes"/>
      <point x="182" y="-17"/>
      <point x="76" y="87"/>
      <point x="76" y="268" type="curve" smooth="yes"/>
      <point x="76" y="518"/>
      <point x="249" y="695"/>
    </contour>
    <contour>
      <point x="480" y="652" type="curve" smooth="yes"/>
      <point x="394" y="652"/>
      <point x="332" y="616"/>
      <point x="285" y="537" type="curve" smooth="yes"/>
      <point x="243" y="467"/>
      <point x="214" y="346"/>
      <point x="214" y="239" type="curve" smooth="yes"/>
      <point x="214" y="99"/>
      <point x="274" y="26"/>
      <point x="388" y="26" type="curve" smooth="yes"/>
      <point x="473" y="26"/>
      <point x="541" y="69"/>
      <point x="589" y="153" type="curve" smooth="yes"/>
      <point x="631" y="226"/>
      <point x="656" y="332"/>
      <point x="656" y="435" type="curve" smooth="yes"/>
      <point x="656" y="579"/>
      <point x="596" y="652"/>
    </contour>
  </outline>
</glyph>
